<svg width="40" height="40" viewBox="0 0 40 40" fill="none" xmlns="http://www.w3.org/2000/svg">
<path d="M29.6833 9.15001V10.3833L23.7833 6.96668C21.55 5.68334 18.4333 5.68334 16.2166 6.96668L10.3167 10.4V9.15001C10.3167 5.40001 12.3667 3.33334 16.1167 3.33334H23.8833C27.6333 3.33334 29.6833 5.40001 29.6833 9.15001Z" fill="#BEAF86"/>
<path d="M29.7334 13.2833L29.5 13.1667L27.2334 11.8667L22.5334 9.14999C21.1 8.31666 18.9 8.31666 17.4667 9.14999L12.7667 11.85L10.5 13.1833L10.2 13.3333C7.28337 15.3 7.08337 15.6667 7.08337 18.8167V26.35C7.08337 29.5 7.28337 29.8667 10.2667 31.8833L17.4667 36.0333C18.1834 36.4667 19.0834 36.65 20 36.65C20.9 36.65 21.8167 36.45 22.5334 36.0333L29.8 31.8333C32.7334 29.8667 32.9167 29.5167 32.9167 26.35V18.8167C32.9167 15.6667 32.7167 15.3 29.7334 13.2833ZM24.65 22.5L23.6334 23.75C23.4667 23.9333 23.35 24.2833 23.3667 24.5333L23.4667 26.1333C23.5334 27.1167 22.8334 27.6167 21.9167 27.2667L20.4334 26.6667C20.2 26.5833 19.8167 26.5833 19.5834 26.6667L18.1 27.25C17.1834 27.6167 16.4834 27.1 16.55 26.1167L16.65 24.5167C16.6667 24.2667 16.55 23.9167 16.3834 23.7333L15.35 22.5C14.7167 21.75 15 20.9167 15.95 20.6667L17.5 20.2667C17.75 20.2 18.0334 19.9667 18.1667 19.7667L19.0334 18.4333C19.5667 17.6 20.4167 17.6 20.9667 18.4333L21.8334 19.7667C21.9667 19.9833 22.2667 20.2 22.5 20.2667L24.05 20.6667C25 20.9167 25.2834 21.75 24.65 22.5Z" fill="#BEAF86"/>
</svg>
