<svg width="40" height="40" viewBox="0 0 40 40" fill="none" xmlns="http://www.w3.org/2000/svg">
<path d="M23.9167 3.33331H16.0833C14.35 3.33331 12.9333 4.73331 12.9333 6.46665V8.03331C12.9333 9.76665 14.3333 11.1666 16.0667 11.1666H23.9167C25.65 11.1666 27.05 9.76665 27.05 8.03331V6.46665C27.0667 4.73331 25.65 3.33331 23.9167 3.33331Z" fill="#BEAF86"/>
<path d="M28.7333 8.03336C28.7333 10.6834 26.5666 12.85 23.9166 12.85H16.0833C13.4333 12.85 11.2666 10.6834 11.2666 8.03336C11.2666 7.10003 10.2666 6.51669 9.43328 6.95003C7.08328 8.20003 5.48328 10.6834 5.48328 13.5334V29.2167C5.48328 33.3167 8.83328 36.6667 12.9333 36.6667H27.0666C31.1666 36.6667 34.5166 33.3167 34.5166 29.2167V13.5334C34.5166 10.6834 32.9166 8.20003 30.5666 6.95003C29.7333 6.51669 28.7333 7.10003 28.7333 8.03336ZM20.6333 28.25H13.3333C12.6499 28.25 12.0833 27.6834 12.0833 27C12.0833 26.3167 12.6499 25.75 13.3333 25.75H20.6333C21.3166 25.75 21.8833 26.3167 21.8833 27C21.8833 27.6834 21.3166 28.25 20.6333 28.25ZM24.9999 21.5834H13.3333C12.6499 21.5834 12.0833 21.0167 12.0833 20.3334C12.0833 19.65 12.6499 19.0834 13.3333 19.0834H24.9999C25.6833 19.0834 26.2499 19.65 26.2499 20.3334C26.2499 21.0167 25.6833 21.5834 24.9999 21.5834Z" fill="#BEAF86"/>
</svg>
