<svg width="509" height="620" viewBox="0 0 509 620" fill="none" xmlns="http://www.w3.org/2000/svg">
<path d="M193.211 226.117C199.536 258.094 229.404 271.447 242.406 274.258H489.433C409.878 248.958 258.804 231.622 193.211 226.117Z" fill="#1E9166" stroke="#1E9166" stroke-width="0.702782"/>
<path d="M523.167 274.609H244.514C223.782 281.988 200.239 299.827 187.94 306.234C129.258 336.805 526.329 283.745 523.167 274.609Z" fill="#004A40" stroke="#004A40" stroke-width="0.702782"/>
<path d="M95.5242 -94H602.933L602.23 -7.20645H490.839V138.269L219.214 173.408L156.666 166.732C80.2035 81.836 84.0454 -42.4627 95.5242 -94Z" fill="#8CECFA" stroke="#8CECFA" stroke-width="0.702782"/>
<path d="M219.565 173.409L155.963 166.732L163.343 174.111L173.182 182.896L183.02 190.627L193.211 197.655C190.119 202.152 192.274 218.152 193.211 225.766C322.242 235.324 445.392 262.662 490.839 274.258V138.621L219.565 173.409Z" fill="#6AECC0" stroke="#6AECC0" stroke-width="0.702782"/>
<path d="M534.735 626L537.223 276.015L359.192 301.848L257.918 313.172L225.581 315.649L197.508 313.172L194.666 307.864L166.857 321.344L135.231 343.482L118.013 357.889L105.363 369.133L93.4158 380.378L77.2519 399.001L62.4934 418.328L49.8434 437.654L39.7331 457.554L28.4085 481.578L20.8996 502.497L15.4071 519.529L12.5959 529.016L8.10702 549.916L3.45976 585.239L2.40559 607.728L1.00002 626H534.735Z" fill="#005B56"/>
<path d="M534.735 626L537.223 276.015L359.192 301.848L257.918 313.172L225.581 315.649L197.508 313.172L194.666 307.864L166.857 321.344L135.231 343.482L118.013 357.889L105.363 369.133L93.4158 380.378L77.2519 399.001L62.4934 418.328L49.8434 437.654L39.7331 457.554L28.4085 481.578L20.8996 502.497L15.4071 519.529L12.5959 529.016L8.10702 549.916L3.45976 585.239L2.40559 607.728L1.00002 626H534.735Z" stroke="#004A40" stroke-width="0.702782"/>
<path d="M534.735 626L537.223 276.015L359.192 301.848L257.918 313.172L225.581 315.649L197.508 313.172L194.666 307.864L166.857 321.344L135.231 343.482L118.013 357.889L105.363 369.133L93.4158 380.378L77.2519 399.001L62.4934 418.328L49.8434 437.654L39.7331 457.554L28.4085 481.578L20.8996 502.497L15.4071 519.529L12.5959 529.016L8.10702 549.916L3.45976 585.239L2.40559 607.728L1.00002 626H534.735Z" stroke="black" stroke-opacity="0.2" stroke-width="0.702782"/>
<path d="M230.325 542.023C230.559 540.562 231.373 538.085 233.241 537.301C233.347 538.557 233.115 541.348 231.404 542.809C232.187 542.253 234.126 541.447 237.135 541.691C236.629 542.502 234.733 544.083 231.196 543.921C233.518 544.256 235.331 546.402 235.947 547.433C233.307 547.325 231.46 545.317 230.866 544.326C232.291 546.758 232.032 549.707 231.724 550.878C230.221 549.832 230.408 545.481 230.46 544.61C230.252 547.027 227.538 548.978 226.181 549.662C226.128 547.771 228.578 545.317 229.81 544.326C227.434 545.839 224.333 545.587 223.079 545.272C223.977 543.867 227.632 543.785 229.348 543.921C226.022 542.786 224.707 540.701 224.465 539.8C227.132 540.525 228.494 541.691 229.058 542.493C227.422 539.281 227.674 537.567 228.028 537.098C230.014 538.894 230.394 540.924 230.325 542.023Z" fill="#F87171"/>
<path d="M230.272 542.434C230.404 541.083 231.182 538.165 233.241 537.301C233.351 538.607 233.096 541.57 231.196 542.975M230.272 542.434C230.589 542.326 231.02 542.75 231.196 542.975M230.272 542.434C230.47 541.511 230.298 539.152 228.028 537.098C227.654 537.593 227.395 539.476 229.348 543.042M230.272 542.434C229.85 542.218 229.48 542.75 229.348 543.042M231.196 542.975C231.79 542.434 233.809 541.421 237.135 541.691C236.629 542.502 234.733 544.083 231.196 543.921M231.196 542.975C231.407 543.407 231.284 543.785 231.196 543.921M231.196 543.921C233.518 544.256 235.331 546.402 235.947 547.433C233.307 547.325 231.46 545.317 230.866 544.326M231.196 543.921C231.152 544.033 231.024 544.272 230.866 544.326M229.348 543.042C229.128 542.344 227.843 540.719 224.465 539.8C224.707 540.701 226.022 542.786 229.348 543.921M229.348 543.042C229.19 543.421 229.282 543.785 229.348 543.921M229.348 543.921C227.632 543.785 223.977 543.867 223.079 545.272C224.333 545.587 227.434 545.839 229.81 544.326M229.81 544.326C228.578 545.317 226.128 547.771 226.181 549.662C227.566 548.964 230.364 546.947 230.47 544.461M229.81 544.326C230.021 544.488 230.338 544.483 230.47 544.461M230.47 544.461C230.461 544.596 230.074 549.73 231.724 550.878C232.032 549.707 232.291 546.758 230.866 544.326M230.47 544.461L230.866 544.326" stroke="#F87171" stroke-width="0.702782"/>
<path d="M345.867 583.833C340.208 602.386 341.741 619.441 343.214 625.649H367.969C369.855 607.095 354.02 590.041 345.867 583.833Z" fill="#008A5B"/>
<path d="M408.047 551.154C417.949 584.044 410.209 614.521 405.101 625.649H369.442C371.564 587.136 396.063 559.938 408.047 551.154Z" fill="#008A5B"/>
<path d="M345.867 583.833C340.208 602.386 341.741 619.441 343.214 625.649H367.969C369.855 607.095 354.02 590.041 345.867 583.833Z" stroke="#008A5B" stroke-width="0.702782"/>
<path d="M408.047 551.154C417.949 584.044 410.209 614.521 405.101 625.649H369.442C371.564 587.136 396.063 559.938 408.047 551.154Z" stroke="#008A5B" stroke-width="0.702782"/>
<path d="M457.808 597.889C460.619 592.548 479.243 577.859 515.788 577.859L519.653 582.779C507.284 593.18 468.35 597.537 457.808 597.889Z" fill="#157331"/>
<path d="M508.057 442.574C524.362 474.902 514.851 532.881 508.057 557.83L499.624 548.343C486.974 499.991 500.092 457.567 508.057 442.574Z" fill="#157331"/>
<path d="M411.073 557.83C427.372 549.386 475.026 552.676 496.813 555.37L504.543 564.507C470.81 568.372 428.643 577.859 407.208 572.94C395.261 568.02 381.908 572.94 411.073 557.83Z" fill="#157331"/>
<path d="M482.757 434.492C497.375 469.631 488.848 511.681 482.757 528.313L475.729 520.934C464.766 471.177 475.963 442.457 482.757 434.492Z" fill="#157331"/>
<path d="M386.827 529.367C404.256 519.247 453.591 525.151 473.621 529.367L480.216 535.963L471.864 526.556L454.408 507.23L457.808 511.447C432.823 518.755 387.427 510.978 372.42 505.473C384.898 497.986 430.54 498.545 448.305 500.473L442.347 493.877L429.64 480.918C412.445 493.788 365.14 485.203 348.526 479.119C362.478 466.561 405.285 468.778 420.577 471.675L396.197 446.81L404.397 455.575C390.693 464.36 331.307 456.63 327.091 451.007C353.837 437.113 390.883 444.507 394.108 444.679L389.287 439.763L395.261 435.195L389.287 439.411C355.553 436.319 339.389 401.578 335.524 384.946C360.824 384.946 386.476 418.445 395.261 435.195L427.94 468.577L484.865 531.476L526.329 580.319L530.897 584.536V592.618C528.086 607.798 504.426 620.495 492.947 624.946C499.413 607.517 517.779 593.438 526.154 588.577L521.41 584.536L508.057 567.318L482.533 538.572C450.771 548.287 403.888 536.496 386.827 529.367Z" fill="#157331"/>
<path d="M457.808 429.572C478.54 456.278 458.511 497.742 457.808 500.553L448.672 490.714C440.52 461.849 451.483 437.926 457.808 429.572Z" fill="#157331"/>
<path d="M429.697 413.057C449.375 433.789 432.859 468.928 431.102 471.388L421.615 461.198C415.43 438.709 424.543 419.616 429.697 413.057Z" fill="#157331"/>
<path d="M396.666 384.946C419.999 408.84 416.11 439.06 411.425 451.007L399.126 438.709C387.038 424.653 392.449 397.01 396.666 384.946Z" fill="#157331"/>
<path d="M395.261 435.195C386.476 418.445 360.824 384.946 335.524 384.946C339.389 401.578 355.553 436.319 389.287 439.411L395.261 435.195ZM395.261 435.195L427.94 468.577L484.865 531.476L526.329 580.319M395.261 435.195L389.287 439.763L442.347 493.877L471.864 526.556L508.057 567.318L521.41 584.536M521.41 584.536L526.329 580.319M521.41 584.536L526.154 588.577M526.329 580.319L530.897 584.536V592.618M530.897 592.618L526.154 588.577M530.897 592.618C528.086 607.798 504.426 620.495 492.947 624.946C499.413 607.517 517.779 593.438 526.154 588.577M515.788 577.859C479.243 577.859 460.619 592.548 457.808 597.889C468.35 597.537 507.284 593.18 519.653 582.779L515.788 577.859ZM508.057 557.83C514.851 532.881 524.362 474.902 508.057 442.574C500.092 457.567 486.974 499.991 499.624 548.343L508.057 557.83ZM496.813 555.37C475.026 552.676 427.372 549.386 411.073 557.83C381.908 572.94 395.261 568.02 407.208 572.94C428.643 577.859 470.81 568.372 504.543 564.507L496.813 555.37ZM482.757 528.313C488.848 511.681 497.375 469.631 482.757 434.492C475.963 442.457 464.766 471.177 475.729 520.934L482.757 528.313ZM473.621 529.367C453.591 525.151 404.256 519.247 386.827 529.367C403.928 536.512 450.991 548.343 482.757 538.504L473.621 529.367ZM457.808 500.553C458.511 497.742 478.54 456.278 457.808 429.572C451.483 437.926 440.52 461.849 448.672 490.714L457.808 500.553ZM449.023 500.553C431.805 498.562 385.07 497.883 372.42 505.473C387.427 510.978 432.823 518.755 457.808 511.447L449.023 500.553ZM431.102 471.388C432.859 468.928 449.375 433.789 429.697 413.057C424.543 419.616 415.43 438.709 421.615 461.198L431.102 471.388ZM420.912 471.739C405.919 468.811 362.581 466.468 348.526 479.119C365.158 485.209 412.549 493.807 429.697 480.876L420.912 471.739ZM411.425 451.007C416.11 439.06 419.999 408.84 396.666 384.946C392.449 397.01 387.038 424.653 399.126 438.709L411.425 451.007ZM394.206 444.682C391.747 444.682 354.148 436.952 327.091 451.007C331.307 456.63 390.693 464.36 404.397 455.575L394.206 444.682Z" stroke="#157331" stroke-width="0.702782"/>
<path d="M248.731 625.342C246.974 622.53 225.539 615.151 223.782 609.178C228.936 608.123 242.546 607.702 255.758 614.448C254.353 613.758 233.269 591.959 235.026 588.445C242.959 591.828 260.045 599.974 265.183 605.594C263.453 603.509 249.11 574.404 251.19 575.444C257.164 580.012 274.031 591.257 276.139 597.23C274.968 586.806 272.977 566.238 274.382 567.362C276.139 568.768 285.978 585.283 288.086 597.23C290.195 587.274 295.044 567.362 297.574 567.362C299.682 572.75 303.266 586.267 300.736 597.23C305.773 589.382 316.619 574.038 319.712 575.444C319.712 579.192 318.798 589.148 315.143 598.987C319.243 596.41 329.621 590.905 338.335 589.5C338.335 594.068 336.93 595.473 324.28 609.88C328.379 608.709 339.46 606.577 350.985 607.421C345.246 613.043 332.643 624.428 328.145 624.99L248.731 625.342Z" fill="#118745"/>
<path d="M248.731 625.342C246.974 622.53 225.539 615.151 223.782 609.178C228.936 608.123 242.546 607.702 255.758 614.448C254.353 613.758 233.269 591.959 235.026 588.445C242.991 591.842 260.186 600.041 265.246 605.664C263.84 604.296 249.082 574.39 251.19 575.444C257.164 580.012 274.031 591.257 276.139 597.23C274.968 586.806 272.977 566.238 274.382 567.362C276.139 568.768 285.978 585.283 288.086 597.23C290.195 587.274 295.044 567.362 297.574 567.362C299.682 572.75 303.266 586.267 300.736 597.23C305.773 589.382 316.619 574.038 319.712 575.444C319.712 579.192 318.798 589.148 315.143 598.987C319.243 596.41 329.621 590.905 338.335 589.5C338.335 594.068 336.93 595.473 324.28 609.88C328.379 608.709 339.46 606.577 350.985 607.421C345.246 613.043 332.643 624.428 328.145 624.99L248.731 625.342Z" stroke="#118745" stroke-width="0.702782"/>
<g clip-path="url(#clip0_749_922)">
<rect width="112.445" height="632.504" transform="translate(418.452 -6.50366)" fill="#162D3B"/>
<rect x="461.322" y="-6.50366" width="7.02782" height="140.556" rx="3.51391" fill="#2C435B"/>
<rect x="486.622" y="-5.8009" width="7.02782" height="189.751" rx="3.51391" fill="#2C435B"/>
</g>
<path d="M428.307 374.024C429.822 364.338 435.114 347.92 447.26 342.717C447.948 351.048 446.438 369.55 435.32 379.236C440.404 375.55 453.01 370.207 472.567 371.827C469.278 377.201 456.954 387.681 433.963 386.606C449.061 388.833 460.843 403.06 464.846 409.895C447.689 409.178 435.679 395.862 431.818 389.293C441.083 405.416 439.396 424.972 437.395 432.735C427.629 425.801 428.846 396.952 429.182 391.179C427.831 407.204 410.191 420.139 401.365 424.674C401.021 412.134 416.949 395.862 424.956 389.293C409.514 399.325 389.355 397.653 381.205 395.563C387.038 386.248 410.801 385.711 421.953 386.606C400.335 379.082 391.785 365.259 390.212 359.287C407.546 364.095 416.4 371.822 420.065 377.141C409.437 355.849 411.072 344.485 413.375 341.373C426.279 353.28 428.751 366.74 428.307 374.024Z" fill="#F87171"/>
<path d="M427.958 376.754C428.816 367.797 433.877 348.449 447.26 342.717C447.975 351.375 446.316 371.021 433.963 380.336M427.958 376.754C430.017 376.037 432.819 378.844 433.963 380.336M427.958 376.754C429.245 370.633 428.13 354.988 413.375 341.373C410.944 344.658 409.257 357.138 421.953 380.784M427.958 376.754C425.213 375.32 422.811 378.844 421.953 380.784M433.963 380.336C437.823 376.754 450.949 370.036 472.567 371.827C469.278 377.201 456.954 387.681 433.963 386.606M433.963 380.336C435.336 383.203 434.535 385.711 433.963 386.606M433.963 386.606C449.061 388.833 460.843 403.06 464.846 409.895C447.689 409.178 435.679 395.862 431.818 389.293M433.963 386.606C433.677 387.353 432.848 388.935 431.818 389.293M421.953 380.784C420.523 376.156 412.174 365.378 390.212 359.287C391.785 365.259 400.335 379.082 421.953 386.606M421.953 380.784C420.924 383.292 421.524 385.711 421.953 386.606M421.953 386.606C410.801 385.711 387.038 386.248 381.205 395.563C389.355 397.653 409.514 399.325 424.956 389.293M424.956 389.293C416.949 395.862 401.021 412.134 401.365 424.674C410.372 420.046 428.559 406.67 429.245 390.189M424.956 389.293C426.328 390.368 428.387 390.338 429.245 390.189M429.245 390.189C429.19 391.085 426.671 425.121 437.395 432.735C439.396 424.972 441.083 405.416 431.818 389.293M429.245 390.189L431.818 389.293" stroke="#F87171" stroke-width="0.702782"/>
<path d="M119.458 563.268C120.623 555.817 124.694 543.188 134.037 539.186C134.566 545.594 133.405 559.827 124.852 567.277C128.764 564.442 138.461 560.332 153.504 561.578C150.974 565.712 141.494 573.774 123.809 572.947C135.423 574.66 144.485 585.603 147.565 590.861C134.367 590.31 125.129 580.067 122.159 575.014C129.286 587.416 127.988 602.459 126.448 608.431C118.936 603.097 119.873 580.905 120.131 576.465C119.092 588.792 105.523 598.741 98.733 602.23C98.469 592.583 110.721 580.067 116.88 575.014C105.002 582.731 89.4945 581.445 83.2256 579.837C87.7128 572.671 105.992 572.258 114.57 572.947C97.9411 567.159 91.3642 556.526 90.1544 551.932C103.488 555.63 110.299 561.575 113.118 565.666C104.942 549.287 106.2 540.546 107.971 538.152C117.898 547.312 119.799 557.666 119.458 563.268Z" fill="#F87171"/>
<path d="M119.19 565.368C119.849 558.478 123.743 543.595 134.037 539.186C134.587 545.846 133.311 560.958 123.809 568.124M119.19 565.368C120.773 564.817 122.929 566.976 123.809 568.124M119.19 565.368C120.179 560.66 119.322 548.625 107.971 538.152C106.102 540.679 104.804 550.279 114.57 568.468M119.19 565.368C117.078 564.266 115.23 566.976 114.57 568.468M123.809 568.124C126.778 565.368 136.875 560.2 153.504 561.578C150.974 565.712 141.494 573.774 123.809 572.947M123.809 568.124C124.865 570.329 124.249 572.258 123.809 572.947M123.809 572.947C135.423 574.66 144.485 585.603 147.565 590.861C134.367 590.31 125.129 580.067 122.159 575.014M123.809 572.947C123.589 573.521 122.951 574.738 122.159 575.014M114.57 568.468C113.47 564.909 107.048 556.618 90.1544 551.932C91.3642 556.526 97.9411 567.159 114.57 572.947M114.57 568.468C113.778 570.398 114.24 572.258 114.57 572.947M114.57 572.947C105.992 572.258 87.7128 572.671 83.2256 579.837C89.4945 581.445 105.002 582.731 116.88 575.014M116.88 575.014C110.721 580.067 98.469 592.583 98.733 602.23C105.662 598.67 119.651 588.381 120.179 575.703M116.88 575.014C117.936 575.841 119.519 575.818 120.179 575.703M120.179 575.703C120.137 576.392 118.2 602.574 126.448 608.431C127.988 602.459 129.286 587.416 122.159 575.014M120.179 575.703L122.159 575.014" stroke="#F87171" stroke-width="0.702782"/>
<path d="M420.248 195.713C421.414 188.262 425.484 175.633 434.828 171.631C435.357 178.039 434.196 192.272 425.643 199.722C429.554 196.887 439.251 192.777 454.294 194.023C451.765 198.157 442.284 206.219 424.599 205.392C436.213 207.105 445.276 218.048 448.355 223.306C435.157 222.755 425.919 212.512 422.95 207.459C430.076 219.861 428.779 234.904 427.239 240.876C419.727 235.542 420.663 213.35 420.922 208.91C419.882 221.237 406.313 231.186 399.523 234.675C399.26 225.029 411.511 212.512 417.67 207.459C405.792 215.176 390.285 213.89 384.016 212.282C388.503 205.116 406.782 204.703 415.361 205.392C398.732 199.604 392.155 188.971 390.945 184.377C404.278 188.075 411.089 194.02 413.908 198.111C405.733 181.732 406.991 172.991 408.762 170.597C418.688 179.757 420.59 190.111 420.248 195.713Z" fill="#F87171"/>
<path d="M419.98 197.813C420.64 190.923 424.533 176.041 434.828 171.631C435.377 178.291 434.102 193.403 424.599 200.569M419.98 197.813C421.564 197.262 423.719 199.421 424.599 200.569M419.98 197.813C420.97 193.105 420.112 181.07 408.762 170.597C406.892 173.124 405.594 182.724 415.361 200.913M419.98 197.813C417.868 196.711 416.021 199.421 415.361 200.913M424.599 200.569C427.569 197.813 437.665 192.645 454.294 194.023C451.765 198.157 442.284 206.219 424.599 205.392M424.599 200.569C425.655 202.774 425.039 204.703 424.599 205.392M424.599 205.392C436.213 207.105 445.276 218.048 448.355 223.306C435.157 222.755 425.919 212.512 422.95 207.459M424.599 205.392C424.379 205.966 423.741 207.183 422.95 207.459M415.361 200.913C414.261 197.354 407.838 189.063 390.945 184.377C392.155 188.971 398.732 199.604 415.361 205.392M415.361 200.913C414.569 202.843 415.031 204.703 415.361 205.392M415.361 205.392C406.782 204.703 388.503 205.116 384.016 212.282C390.285 213.89 405.792 215.176 417.67 207.459M417.67 207.459C411.511 212.512 399.26 225.029 399.523 234.675C406.452 231.115 420.442 220.826 420.97 208.148M417.67 207.459C418.726 208.286 420.31 208.263 420.97 208.148M420.97 208.148C420.928 208.837 418.99 235.019 427.239 240.876C428.779 234.904 430.076 219.861 422.95 207.459M420.97 208.148L422.95 207.459" stroke="#F87171" stroke-width="0.702782"/>
<path d="M410.019 6.49783C409.395 6.42293 412.479 2.98392 420.912 -1.93556L426.534 -5.09808L431.061 -6.6957C432.014 -7.03222 433.029 -7.15903 434.036 -7.06749L436.373 -6.85503C439.536 -0.178602 418.804 7.552 410.019 6.49783Z" fill="#334833"/>
<path d="M474.675 33.555C469.896 26.5271 453.474 18.4452 445.861 15.2826V21.2563C450.359 27.1597 466.944 31.9151 474.675 33.555Z" fill="#334833"/>
<path d="M409.668 63.4232C406.294 62.2987 426.066 45.8537 436.373 37.7717V49.0162C435.319 53.9356 413.884 64.8288 409.668 63.4232Z" fill="#334833"/>
<path d="M467.647 103.833C466.523 95.6809 452.654 87.7863 445.861 84.858V94.3456C448.11 98.8434 461.322 102.545 467.647 103.833Z" fill="#334833"/>
<path d="M406.505 137.567C411.003 128.29 428.291 121.754 436.373 119.646L436.725 125.619C433.351 131.242 415.173 135.927 406.505 137.567Z" fill="#334833"/>
<path d="M471.161 171.652C468.631 162.375 453.24 152.325 445.861 148.46V157.947C450.921 164.975 464.836 170.012 471.161 171.652Z" fill="#334833"/>
<path d="M410.019 6.49783C409.395 6.42293 412.479 2.98392 420.912 -1.93556L426.534 -5.09808L431.061 -6.6957C432.014 -7.03222 433.029 -7.15903 434.036 -7.06749L436.373 -6.85503C439.536 -0.178602 418.804 7.552 410.019 6.49783Z" stroke="#334833" stroke-width="0.702782"/>
<path d="M474.675 33.555C469.896 26.5271 453.474 18.4452 445.861 15.2826V21.2563C450.359 27.1597 466.944 31.9151 474.675 33.555Z" stroke="#334833" stroke-width="0.702782"/>
<path d="M409.668 63.4232C406.294 62.2987 426.066 45.8537 436.373 37.7717V49.0162C435.319 53.9356 413.884 64.8288 409.668 63.4232Z" stroke="#334833" stroke-width="0.702782"/>
<path d="M467.647 103.833C466.523 95.6809 452.654 87.7863 445.861 84.858V94.3456C448.11 98.8434 461.322 102.545 467.647 103.833Z" stroke="#334833" stroke-width="0.702782"/>
<path d="M406.505 137.567C411.003 128.29 428.291 121.754 436.373 119.646L436.725 125.619C433.351 131.242 415.173 135.927 406.505 137.567Z" stroke="#334833" stroke-width="0.702782"/>
<path d="M471.161 171.652C468.631 162.375 453.24 152.325 445.861 148.46V157.947C450.921 164.975 464.836 170.012 471.161 171.652Z" stroke="#334833" stroke-width="0.702782"/>
<path d="M445.158 -6.85498H436.725L436.022 204.331H445.158V-6.85498Z" fill="#334833" stroke="#334833" stroke-width="0.702782"/>
<path d="M530.897 196.608V399.712C529.258 402.757 526.119 415.868 525.275 415.868C524.221 415.868 509.463 376.169 508.76 366.681C503.372 377.691 489.293 406.24 484.514 405.678C478.54 404.975 485.217 358.95 486.622 357.896C477.955 364.807 458.511 383.189 457.105 381.783C456.754 381.315 458.019 374.833 458.862 372.303C459.917 369.141 462.728 358.248 463.43 356.139C463.993 354.453 466.007 348.174 466.944 345.246C460.034 347.823 445.791 353.047 444.104 353.328C441.996 353.68 429.697 359.997 428.643 358.943C427.799 358.1 434.382 350.986 435.671 349.463C441.015 342.782 451.568 329.814 453.08 328.791C449.96 329.384 404.382 332.738 404.045 328.021C404.748 326.615 413.322 321.844 423.723 316.784C427.823 314.675 436.092 310.459 436.373 310.459C436.654 310.459 444.69 306.242 448.672 304.133C434.382 301.322 402.64 294.638 402.64 290.422C411.19 287.376 435.389 281.363 451.132 281.644C436.256 272.977 403.272 253.947 407.208 252.823C412.127 251.417 459.565 260.21 460.268 260.561C460.971 260.912 422.318 220.846 427.589 217.332C431.805 214.521 461.322 232.684 473.621 240.532C468.233 226.945 456.543 195.546 461.322 192.735C466.101 189.924 487.442 217.574 496.461 229.99C495.758 214.177 494.564 178.82 498.218 179.382C501.873 179.944 513.796 214.646 518.95 229.99L530.897 196.608Z" fill="#157331"/>
<path d="M530.897 196.608V399.712C529.258 402.757 526.119 415.868 525.275 415.868C524.221 415.868 509.463 376.169 508.76 366.681C503.372 377.691 489.293 406.24 484.514 405.678C478.54 404.975 485.217 358.95 486.622 357.896C477.955 364.807 458.511 383.189 457.105 381.783C456.754 381.315 458.019 374.833 458.862 372.303C459.917 369.141 462.728 358.248 463.43 356.139C463.993 354.453 466.007 348.174 466.944 345.246C460.034 347.823 445.791 353.047 444.104 353.328C441.996 353.68 429.697 359.997 428.643 358.943C427.799 358.1 434.382 350.986 435.671 349.463C441.293 342.435 452.678 328.45 453.24 328.731C453.943 329.082 404.397 332.94 404.045 328.021C404.748 326.615 413.322 321.844 423.723 316.784C427.823 314.675 436.092 310.459 436.373 310.459C436.654 310.459 444.69 306.242 448.672 304.133C434.382 301.322 402.64 294.638 402.64 290.422C411.19 287.376 435.389 281.363 451.132 281.644C436.256 272.977 403.272 253.947 407.208 252.823C412.127 251.417 459.565 260.21 460.268 260.561C460.971 260.912 422.318 220.846 427.589 217.332C431.805 214.521 461.322 232.684 473.621 240.532C468.233 226.945 456.543 195.546 461.322 192.735C466.101 189.924 487.442 217.574 496.461 229.99C495.758 214.177 494.564 178.82 498.218 179.382C501.873 179.944 513.796 214.646 518.95 229.99L530.897 196.608Z" stroke="#157331" stroke-width="0.702782"/>
<path d="M457.808 597.889C460.619 592.548 479.243 577.859 515.788 577.859L519.653 582.779C507.284 593.18 468.35 597.537 457.808 597.889Z" fill="#157331"/>
<path d="M508.057 442.574C524.362 474.902 514.851 532.881 508.057 557.83L499.624 548.343C486.974 499.991 500.092 457.567 508.057 442.574Z" fill="#157331"/>
<path d="M411.073 557.83C427.372 549.386 475.026 552.676 496.813 555.37L504.543 564.507C470.81 568.372 428.643 577.859 407.208 572.94C395.261 568.02 381.908 572.94 411.073 557.83Z" fill="#157331"/>
<path d="M482.757 434.492C497.375 469.631 488.848 511.681 482.757 528.313L475.729 520.934C464.766 471.177 475.963 442.457 482.757 434.492Z" fill="#157331"/>
<path d="M386.827 529.367C404.256 519.247 453.591 525.151 473.621 529.367L480.216 535.963L471.864 526.556L454.408 507.23L457.808 511.447C432.823 518.755 387.427 510.978 372.42 505.473C384.898 497.986 430.54 498.545 448.305 500.473L442.347 493.877L429.64 480.918C412.445 493.788 365.14 485.203 348.526 479.119C362.478 466.561 405.285 468.778 420.577 471.675L396.197 446.81L404.397 455.575C390.693 464.36 331.307 456.63 327.091 451.007C353.837 437.113 390.883 444.507 394.108 444.679L389.287 439.763L395.261 435.195L389.287 439.411C355.553 436.319 339.389 401.578 335.524 384.946C360.824 384.946 386.476 418.445 395.261 435.195L427.94 468.577L484.865 531.476L526.329 580.319L530.897 584.536V592.618C528.086 607.798 504.426 620.495 492.947 624.946C499.413 607.517 517.779 593.438 526.154 588.577L521.41 584.536L508.057 567.318L482.533 538.572C450.771 548.287 403.888 536.496 386.827 529.367Z" fill="#157331"/>
<path d="M457.808 429.572C478.54 456.278 458.511 497.742 457.808 500.553L448.672 490.714C440.52 461.849 451.483 437.926 457.808 429.572Z" fill="#157331"/>
<path d="M429.697 413.057C449.375 433.789 432.859 468.928 431.102 471.388L421.615 461.198C415.43 438.709 424.543 419.616 429.697 413.057Z" fill="#157331"/>
<path d="M396.666 384.946C419.999 408.84 416.11 439.06 411.425 451.007L399.126 438.709C387.038 424.653 392.449 397.01 396.666 384.946Z" fill="#157331"/>
<path d="M395.261 435.195C386.476 418.445 360.824 384.946 335.524 384.946C339.389 401.578 355.553 436.319 389.287 439.411L395.261 435.195ZM395.261 435.195L427.94 468.577L484.865 531.476L526.329 580.319M395.261 435.195L389.287 439.763L442.347 493.877L471.864 526.556L508.057 567.318L521.41 584.536M521.41 584.536L526.329 580.319M521.41 584.536L526.154 588.577M526.329 580.319L530.897 584.536V592.618M530.897 592.618L526.154 588.577M530.897 592.618C528.086 607.798 504.426 620.495 492.947 624.946C499.413 607.517 517.779 593.438 526.154 588.577M515.788 577.859C479.243 577.859 460.619 592.548 457.808 597.889C468.35 597.537 507.284 593.18 519.653 582.779L515.788 577.859ZM508.057 557.83C514.851 532.881 524.362 474.902 508.057 442.574C500.092 457.567 486.974 499.991 499.624 548.343L508.057 557.83ZM496.813 555.37C475.026 552.676 427.372 549.386 411.073 557.83C381.908 572.94 395.261 568.02 407.208 572.94C428.643 577.859 470.81 568.372 504.543 564.507L496.813 555.37ZM482.757 528.313C488.848 511.681 497.375 469.631 482.757 434.492C475.963 442.457 464.766 471.177 475.729 520.934L482.757 528.313ZM473.621 529.367C453.591 525.151 404.256 519.247 386.827 529.367C403.928 536.512 450.991 548.343 482.757 538.504L473.621 529.367ZM457.808 500.553C458.511 497.742 478.54 456.278 457.808 429.572C451.483 437.926 440.52 461.849 448.672 490.714L457.808 500.553ZM449.023 500.553C431.805 498.562 385.07 497.883 372.42 505.473C387.427 510.978 432.823 518.755 457.808 511.447L449.023 500.553ZM431.102 471.388C432.859 468.928 449.375 433.789 429.697 413.057C424.543 419.616 415.43 438.709 421.615 461.198L431.102 471.388ZM420.912 471.739C405.919 468.811 362.581 466.468 348.526 479.119C365.158 485.209 412.549 493.807 429.697 480.876L420.912 471.739ZM411.425 451.007C416.11 439.06 419.999 408.84 396.666 384.946C392.449 397.01 387.038 424.653 399.126 438.709L411.425 451.007ZM394.206 444.682C391.747 444.682 354.148 436.952 327.091 451.007C331.307 456.63 390.693 464.36 404.397 455.575L394.206 444.682Z" stroke="#157331" stroke-width="0.702782"/>
<path d="M457.808 597.889C460.619 592.548 479.243 577.859 515.788 577.859L519.653 582.779C507.284 593.18 468.35 597.537 457.808 597.889Z" fill="#157331"/>
<path d="M508.057 442.574C524.362 474.902 514.851 532.881 508.057 557.83L499.624 548.343C486.974 499.991 500.092 457.567 508.057 442.574Z" fill="#157331"/>
<path d="M411.073 557.83C427.372 549.386 475.026 552.676 496.813 555.37L504.543 564.507C470.81 568.372 428.643 577.859 407.208 572.94C395.261 568.02 381.908 572.94 411.073 557.83Z" fill="#157331"/>
<path d="M482.757 434.492C497.375 469.631 488.848 511.681 482.757 528.313L475.729 520.934C464.766 471.177 475.963 442.457 482.757 434.492Z" fill="#157331"/>
<path d="M386.827 529.367C404.256 519.247 453.591 525.151 473.621 529.367L480.216 535.963L471.864 526.556L454.408 507.23L457.808 511.447C432.823 518.755 387.427 510.978 372.42 505.473C384.898 497.986 430.54 498.545 448.305 500.473L442.347 493.877L429.64 480.918C412.445 493.788 365.14 485.203 348.526 479.119C362.478 466.561 405.285 468.778 420.577 471.675L396.197 446.81L404.397 455.575C390.693 464.36 331.307 456.63 327.091 451.007C353.837 437.113 390.883 444.507 394.108 444.679L389.287 439.763L395.261 435.195L389.287 439.411C355.553 436.319 339.389 401.578 335.524 384.946C360.824 384.946 386.476 418.445 395.261 435.195L427.94 468.577L484.865 531.476L526.329 580.319L530.897 584.536V592.618C528.086 607.798 504.426 620.495 492.947 624.946C499.413 607.517 517.779 593.438 526.154 588.577L521.41 584.536L508.057 567.318L482.533 538.572C450.771 548.287 403.888 536.496 386.827 529.367Z" fill="#157331"/>
<path d="M457.808 429.572C478.54 456.278 458.511 497.742 457.808 500.553L448.672 490.714C440.52 461.849 451.483 437.926 457.808 429.572Z" fill="#157331"/>
<path d="M429.697 413.057C449.375 433.789 432.859 468.928 431.102 471.388L421.615 461.198C415.43 438.709 424.543 419.616 429.697 413.057Z" fill="#157331"/>
<path d="M396.666 384.946C419.999 408.84 416.11 439.06 411.425 451.007L399.126 438.709C387.038 424.653 392.449 397.01 396.666 384.946Z" fill="#157331"/>
<path d="M395.261 435.195C386.476 418.445 360.824 384.946 335.524 384.946C339.389 401.578 355.553 436.319 389.287 439.411L395.261 435.195ZM395.261 435.195L427.94 468.577L484.865 531.476L526.329 580.319M395.261 435.195L389.287 439.763L442.347 493.877L471.864 526.556L508.057 567.318L521.41 584.536M521.41 584.536L526.329 580.319M521.41 584.536L526.154 588.577M526.329 580.319L530.897 584.536V592.618M530.897 592.618L526.154 588.577M530.897 592.618C528.086 607.798 504.426 620.495 492.947 624.946C499.413 607.517 517.779 593.438 526.154 588.577M515.788 577.859C479.243 577.859 460.619 592.548 457.808 597.889C468.35 597.537 507.284 593.18 519.653 582.779L515.788 577.859ZM508.057 557.83C514.851 532.881 524.362 474.902 508.057 442.574C500.092 457.567 486.974 499.991 499.624 548.343L508.057 557.83ZM496.813 555.37C475.026 552.676 427.372 549.386 411.073 557.83C381.908 572.94 395.261 568.02 407.208 572.94C428.643 577.859 470.81 568.372 504.543 564.507L496.813 555.37ZM482.757 528.313C488.848 511.681 497.375 469.631 482.757 434.492C475.963 442.457 464.766 471.177 475.729 520.934L482.757 528.313ZM473.621 529.367C453.591 525.151 404.256 519.247 386.827 529.367C403.928 536.512 450.991 548.343 482.757 538.504L473.621 529.367ZM457.808 500.553C458.511 497.742 478.54 456.278 457.808 429.572C451.483 437.926 440.52 461.849 448.672 490.714L457.808 500.553ZM449.023 500.553C431.805 498.562 385.07 497.883 372.42 505.473C387.427 510.978 432.823 518.755 457.808 511.447L449.023 500.553ZM431.102 471.388C432.859 468.928 449.375 433.789 429.697 413.057C424.543 419.616 415.43 438.709 421.615 461.198L431.102 471.388ZM420.912 471.739C405.919 468.811 362.581 466.468 348.526 479.119C365.158 485.209 412.549 493.807 429.697 480.876L420.912 471.739ZM411.425 451.007C416.11 439.06 419.999 408.84 396.666 384.946C392.449 397.01 387.038 424.653 399.126 438.709L411.425 451.007ZM394.206 444.682C391.747 444.682 354.148 436.952 327.091 451.007C331.307 456.63 390.693 464.36 404.397 455.575L394.206 444.682Z" stroke="#157331" stroke-width="0.702782"/>
<path d="M190.425 309.937C189.655 308.852 189.878 308.581 190.086 308.581C192.526 309.394 191.442 311.631 191.103 311.292L190.425 309.937Z" fill="white" stroke="white" stroke-width="0.702782"/>
<path d="M168.734 304.175C169.818 304.717 172.801 304.627 174.157 304.514C173.885 305.598 167.943 306.547 165.006 306.886C162.294 307.564 151.11 304.853 149.754 304.514C148.669 304.243 147.72 303.271 147.381 302.819C148.737 303.361 153.595 302.141 155.855 301.464C158.024 300.108 161.729 300.673 163.311 301.125C164.667 301.667 167.491 303.384 168.734 304.175Z" fill="#9E6740"/>
<path d="M169.75 307.903L162.633 312.309L165.006 308.581L169.75 307.903Z" fill="#9E6740"/>
<path d="M172.462 320.104C174.834 321.121 177.772 322.703 180.596 323.833C170.767 334.339 174.495 342.812 174.156 343.829C170.361 338.406 171.445 325.527 172.462 320.104Z" fill="#9E6740"/>
<path d="M170.089 412.631C169.412 412.631 163.311 404.158 163.311 403.819C163.169 403.548 153.084 414.777 148.059 420.426C140.467 428.289 134.954 436.129 133.147 439.067C132.604 442.592 141.507 452.059 146.026 456.352C146.839 456.623 152.239 464.147 154.838 467.875C156.871 471.265 168.056 472.959 168.395 472.959C167.31 471.875 165.909 466.181 165.344 463.469C165.344 464.012 160.6 464.599 158.227 464.825C155.245 462.385 144.557 447.766 139.586 440.761L171.106 418.053L170.089 412.631Z" fill="#9E6740"/>
<path d="M300.914 371.282C299.558 369.926 276.851 360.436 276.173 360.097C287.832 358.471 294.362 361.227 296.169 362.809C300.236 363.622 305.772 372.412 308.032 376.705C307.693 376.027 301.253 371.621 300.914 371.282Z" fill="#9E6740"/>
<path d="M294.814 382.466L296.508 383.144C297.05 383.144 298.09 389.923 298.542 393.312C298.813 393.583 298.429 398.622 298.203 401.107L297.186 411.275C296.915 413.444 299.558 418.279 300.914 420.426C300.643 420.968 306.224 424.493 309.048 426.188L314.132 428.56C315.149 428.56 317.386 428.763 318.199 429.577L319.555 430.933C320.233 431.272 322.153 440.197 322.944 444.828L326.333 458.047C327.689 461.662 330.468 469.028 330.739 469.57C331.011 470.112 333.338 471.829 334.468 472.62L333.79 473.976L335.823 475.332C334.468 478.856 334.355 481.771 334.468 482.788L330.739 480.754L328.367 477.704C327.011 474.654 323.961 467.265 322.605 462.114C321.25 456.962 317.07 449.573 315.149 446.523L304.981 438.05C286.273 437.779 271.089 433.305 267.7 430.933C267.474 430.142 268.92 428.357 271.089 424.832C273.258 421.307 278.997 414.325 282.273 411.275C290.407 402.056 294.475 388.228 294.814 382.466Z" fill="#9E6740"/>
<path d="M168.734 304.175C169.818 304.717 172.801 304.627 174.157 304.514C173.885 305.598 167.943 306.547 165.006 306.886C162.294 307.564 151.11 304.853 149.754 304.514C148.669 304.243 147.72 303.271 147.381 302.819C148.737 303.361 153.595 302.141 155.855 301.464C158.024 300.108 161.729 300.673 163.311 301.125C164.667 301.667 167.491 303.384 168.734 304.175Z" stroke="#9E6740" stroke-width="0.702782"/>
<path d="M169.75 307.903L162.633 312.309L165.006 308.581L169.75 307.903Z" stroke="#9E6740" stroke-width="0.702782"/>
<path d="M172.462 320.104C174.834 321.121 177.772 322.703 180.596 323.833C170.767 334.339 174.495 342.812 174.156 343.829C170.361 338.406 171.445 325.527 172.462 320.104Z" stroke="#9E6740" stroke-width="0.702782"/>
<path d="M170.089 412.631C169.412 412.631 163.311 404.158 163.311 403.819C163.169 403.548 153.084 414.777 148.059 420.426C140.467 428.289 134.954 436.129 133.147 439.067C132.604 442.592 141.507 452.059 146.026 456.352C146.839 456.623 152.239 464.147 154.838 467.875C156.871 471.265 168.056 472.959 168.395 472.959C167.31 471.875 165.909 466.181 165.344 463.469C165.344 464.012 160.6 464.599 158.227 464.825C155.245 462.385 144.557 447.766 139.586 440.761L171.106 418.053L170.089 412.631Z" stroke="#9E6740" stroke-width="0.702782"/>
<path d="M300.914 371.282C299.558 369.926 276.851 360.436 276.173 360.097C287.832 358.471 294.362 361.227 296.169 362.809C300.236 363.622 305.772 372.412 308.032 376.705C307.693 376.027 301.253 371.621 300.914 371.282Z" stroke="#9E6740" stroke-width="0.702782"/>
<path d="M294.814 382.466L296.508 383.144C297.05 383.144 298.09 389.923 298.542 393.312C298.813 393.583 298.429 398.622 298.203 401.107L297.186 411.275C296.915 413.444 299.558 418.279 300.914 420.426C300.643 420.968 306.224 424.493 309.048 426.188L314.132 428.56C315.149 428.56 317.386 428.763 318.199 429.577L319.555 430.933C320.233 431.272 322.153 440.197 322.944 444.828L326.333 458.047C327.689 461.662 330.468 469.028 330.739 469.57C331.011 470.112 333.338 471.829 334.468 472.62L333.79 473.976L335.823 475.332C334.468 478.856 334.355 481.771 334.468 482.788L330.739 480.754L328.367 477.704C327.011 474.654 323.961 467.265 322.605 462.114C321.25 456.962 317.07 449.573 315.149 446.523L304.981 438.05C286.273 437.779 271.089 433.305 267.7 430.933C267.474 430.142 268.92 428.357 271.089 424.832C273.258 421.307 278.997 414.325 282.273 411.275C290.407 402.056 294.475 388.228 294.814 382.466Z" stroke="#9E6740" stroke-width="0.702782"/>
<path d="M182.291 283.839C189.069 288.991 190.764 294.572 190.764 296.719C188.866 295.634 185.002 295.589 183.308 295.702C183.308 295.363 179.805 290.731 177.885 288.245L175.173 285.534L169.672 281.087C167.589 279.98 162.607 274.882 160.6 272.316C157.888 267.436 158.34 262.6 158.905 260.793C159.447 258.352 160.487 257.742 160.938 257.742C161.616 258.081 161.051 262.261 161.277 264.521C162.362 269.13 166.248 273.22 168.056 274.689C169.683 275.773 178.224 281.241 182.291 283.839Z" fill="#593E35"/>
<path d="M184.663 300.786C184.934 301.328 182.969 302.593 181.952 303.158C179.24 304.243 177.433 302.48 176.868 301.464C176.529 301.125 175.851 298.978 175.512 297.735L174.156 294.685C174.156 294.414 172.123 292.087 171.106 290.957L166.361 286.551L160.938 282.823L156.193 278.078C155.516 277.4 153.143 273.107 152.126 270.96C151.855 270.689 151.787 268.136 151.787 266.893C151.787 266.351 152.465 263.73 152.804 262.487C153.347 260.86 153.934 260.68 154.16 260.793C154.499 261.132 154.725 265.086 154.838 267.232C154.838 267.571 155.855 270.847 156.532 272.655C156.532 272.926 159.696 276.157 161.277 277.739L167.039 281.467L172.123 284.517L176.19 287.229C176.461 287.229 179.466 291.07 180.935 292.99L183.308 296.38C183.308 296.719 184.324 299.317 184.663 300.786Z" fill="#593E35"/>
<path d="M169.751 281.128C169.725 281.115 169.699 281.102 169.672 281.087M169.672 281.087C167.589 279.98 162.607 274.882 160.6 272.316C157.888 267.436 158.34 262.6 158.905 260.793C159.447 258.352 160.487 257.742 160.938 257.742C161.616 258.081 161.051 262.261 161.277 264.521C162.362 269.13 166.248 273.22 168.056 274.689C169.683 275.773 178.224 281.241 182.291 283.839C189.069 288.991 190.764 294.572 190.764 296.719C188.866 295.634 185.002 295.589 183.308 295.702C183.308 295.363 179.805 290.731 177.885 288.245L175.173 285.534L169.672 281.087ZM181.952 303.158C182.969 302.593 184.934 301.328 184.663 300.786C184.324 299.317 183.308 296.719 183.308 296.38L180.935 292.99C179.466 291.07 176.461 287.229 176.19 287.229L172.123 284.517L167.039 281.467L161.277 277.739C159.696 276.157 156.532 272.926 156.532 272.655C155.855 270.847 154.838 267.571 154.838 267.232C154.725 265.086 154.499 261.132 154.16 260.793C153.934 260.68 153.347 260.86 152.804 262.487C152.465 263.73 151.787 266.351 151.787 266.893C151.787 268.136 151.855 270.689 152.126 270.96C153.143 273.107 155.516 277.4 156.193 278.078C157.662 279.546 160.667 282.552 160.938 282.823L166.361 286.551L171.106 290.957C172.123 292.087 174.156 294.414 174.156 294.685L175.512 297.735C175.851 298.978 176.529 301.125 176.868 301.464C177.433 302.48 179.24 304.243 181.952 303.158Z" stroke="#593E35" stroke-width="0.702782"/>
<path d="M206.354 291.296C206.354 291.567 203.191 295.928 201.609 298.074C201.609 298.345 199.802 300.221 198.898 301.125C196.187 298.413 192.571 297.057 191.103 296.719C191.103 296.38 190.99 295.363 190.764 294.685C192.119 293.6 195.622 291.974 197.203 291.296C202.084 289.398 205.338 290.505 206.354 291.296Z" fill="#AA6F45"/>
<path d="M159.922 297.735C165.616 298.82 169.299 300.673 170.428 301.463C169.615 301.735 165.796 306.547 163.989 308.92C152.059 308.92 145.913 304.175 144.331 301.802C144.67 301.125 150.884 299.995 153.821 299.091C156.804 298.006 159.131 297.735 159.922 297.735Z" fill="#AA6F45"/>
<path d="M206.354 291.296C206.354 291.567 203.191 295.928 201.609 298.074C201.609 298.345 199.802 300.221 198.898 301.125C196.187 298.413 192.571 297.057 191.103 296.719C191.103 296.38 190.99 295.363 190.764 294.685C192.119 293.6 195.622 291.974 197.203 291.296C202.084 289.398 205.338 290.505 206.354 291.296Z" stroke="#AA6F45" stroke-width="0.702782"/>
<path d="M159.922 297.735C165.616 298.82 169.299 300.673 170.428 301.463C169.615 301.735 165.796 306.547 163.989 308.92C152.059 308.92 145.913 304.175 144.331 301.802C144.67 301.125 150.884 299.995 153.821 299.091C156.804 298.006 159.131 297.735 159.922 297.735Z" stroke="#AA6F45" stroke-width="0.702782"/>
<path d="M203.152 305.641C205.592 308.081 216.596 315.244 221.792 318.52C222.064 319.334 221.905 319.989 221.792 320.215L219.42 323.943C217.793 326.112 216.031 326.654 215.353 326.654C215.082 326.925 210.043 326.541 207.558 326.315L200.44 325.637L180.783 323.265L171.971 319.198C171.947 320.554 171.293 333.433 170.954 335.127C171.632 339.194 171.632 338.517 171.971 340.211C174.343 344.617 174.569 343.6 175.021 345.634C176.648 350.786 180.896 353.881 182.816 354.785C185.528 356.683 194.114 357.835 198.068 358.174C199.762 358.513 213.997 359.869 221.453 360.208C222.809 360.208 236.705 359.756 243.484 359.53C252.431 358.174 269.581 359.191 277.037 359.869C286.256 358.242 293.531 360.773 296.017 362.241C298.999 362.241 304.49 370.375 306.862 374.443C308.489 377.696 312.511 380.769 314.319 381.899C305.547 386.622 296.44 382.614 296.691 382.911C296.719 382.938 296.722 382.943 296.695 382.916C296.693 382.914 296.692 382.913 296.691 382.911C296.442 382.67 294.255 380.648 294.661 383.594C295 385.288 290.069 402.802 288.374 403.48C283.968 409.58 279.41 413.758 275.682 418.842C265.175 427.315 268.564 437.821 268.564 431.721C269.055 434.322 270.041 438.855 270.95 441.235L273.987 446.972C275.885 447.515 277.263 450.588 277.715 452.056C278.257 452.87 277.037 455.332 276.359 456.462L271.953 464.935L268.564 471.036L265.514 477.476L262.802 484.254C262.802 484.593 261.785 487.417 261.446 488.999L260.769 493.066C260.226 494.964 260.769 497.472 261.108 498.489C255.685 498.76 253.877 502.669 253.651 504.589H239.416C241.857 500.251 246.308 498.941 248.228 498.828C248.771 498.828 252.296 494.761 253.99 492.727C254.532 492.456 258.283 482.898 260.091 478.153C261.718 475.442 263.48 467.534 264.158 463.919C264.836 463.58 262.124 449.684 261.785 449.345C261.514 449.074 256.25 444.261 253.651 441.888C250.126 438.906 241.563 426.637 237.722 420.875L222.809 423.248C221.725 423.519 211.06 423.587 205.863 423.587C204.236 424.129 192.532 422.457 186.883 421.553L185.528 429.348L184.85 438.499L184.511 448.667C184.782 450.294 183.946 456.123 183.494 458.835L183.155 467.308V476.459C182.816 477.814 185.189 487.643 184.85 487.643C184.579 487.643 183.833 489.677 183.494 490.694C182.816 491.033 182.138 501.539 182.138 502.217C182.138 502.895 182.477 504.251 182.477 504.589C182.477 504.861 172.761 504.702 167.903 504.589C167.564 503.573 173.665 499.167 174.004 499.167C174.275 499.167 176.602 491.936 177.732 488.321C178.003 488.05 178.749 482.107 179.088 479.17C179.359 478.086 179.427 473.747 179.427 471.714C179.698 471.172 179.088 466.743 178.749 464.596C178.523 463.015 178.003 459.851 177.732 459.851C177.461 459.851 176.941 457.818 176.715 456.801L175.699 452.734L175.021 446.633L174.004 439.516L172.987 431.721L171.971 424.603L170.954 418.503C170.14 417.689 167.77 411.385 162.82 403.251C155.228 388.338 154.008 385.062 154.346 385.288C150.55 372.545 149.827 363.032 149.94 359.869C149.398 359.055 150.166 347.329 150.618 341.567C150.618 339.94 152.878 331.173 154.008 326.993C155.024 323.265 160.447 314.792 161.464 313.097C162.277 311.742 163.836 309.369 164.514 308.352C166.412 305.37 169.372 302.365 170.615 301.235C176.309 296.354 181.347 295.586 183.155 295.812C192.103 294.728 200.214 301.913 203.152 305.641Z" fill="#BC7E4B"/>
<path d="M270.936 441.211L270.95 441.235M270.95 441.235L273.987 446.972C275.885 447.515 277.263 450.588 277.715 452.056C278.257 452.87 277.037 455.332 276.359 456.462L271.953 464.935L268.564 471.036L265.514 477.476L262.802 484.254C262.802 484.593 261.785 487.417 261.446 488.999L260.769 493.066C260.226 494.964 260.769 497.472 261.108 498.489C255.685 498.76 253.877 502.669 253.651 504.589H239.416C241.857 500.251 246.308 498.941 248.228 498.828C248.771 498.828 252.296 494.761 253.99 492.727C254.532 492.456 258.283 482.898 260.091 478.153C261.718 475.442 263.48 467.534 264.158 463.919C264.836 463.58 262.124 449.684 261.785 449.345C261.514 449.074 256.25 444.261 253.651 441.888C250.126 438.906 241.563 426.637 237.722 420.875L222.809 423.248C221.725 423.519 211.06 423.587 205.863 423.587C204.236 424.129 192.532 422.457 186.883 421.553L185.528 429.348L184.85 438.499L184.511 448.667C184.782 450.294 183.946 456.123 183.494 458.835L183.155 467.308V476.459C182.816 477.814 185.189 487.643 184.85 487.643C184.579 487.643 183.833 489.677 183.494 490.694C182.816 491.032 182.138 501.539 182.138 502.217C182.138 502.895 182.477 504.251 182.477 504.589C182.477 504.861 172.761 504.702 167.903 504.589C167.564 503.573 173.665 499.167 174.004 499.167C174.275 499.167 176.602 491.936 177.732 488.321C178.003 488.05 178.749 482.107 179.088 479.17C179.359 478.086 179.427 473.747 179.427 471.714C179.698 471.172 179.088 466.743 178.749 464.596C178.523 463.015 178.003 459.851 177.732 459.851C177.461 459.851 176.941 457.818 176.715 456.801L175.699 452.734L175.021 446.633L174.004 439.516L172.987 431.721L171.971 424.603L170.954 418.503C170.14 417.689 167.77 411.385 162.82 403.251C155.228 388.338 154.008 385.062 154.346 385.288C150.55 372.545 149.827 363.032 149.94 359.869C149.398 359.055 150.166 347.329 150.618 341.567C150.618 339.94 152.878 331.173 154.008 326.993C155.024 323.265 160.447 314.792 161.464 313.097C162.277 311.742 163.836 309.369 164.514 308.352C166.412 305.37 169.372 302.365 170.615 301.235C176.309 296.354 181.347 295.586 183.155 295.812C192.103 294.728 200.214 301.913 203.152 305.641C205.592 308.081 216.596 315.244 221.792 318.52C222.064 319.334 221.905 319.989 221.792 320.215L219.42 323.943C217.793 326.112 216.031 326.654 215.353 326.654C215.082 326.925 210.043 326.541 207.558 326.315L200.44 325.637L180.783 323.265L171.971 319.198C171.947 320.554 171.293 333.433 170.954 335.127C171.632 339.194 171.632 338.517 171.971 340.211C174.343 344.617 174.569 343.6 175.021 345.634C176.648 350.786 180.896 353.881 182.816 354.785C185.528 356.683 194.114 357.835 198.068 358.174C199.762 358.513 213.997 359.869 221.453 360.208C222.809 360.208 236.705 359.756 243.484 359.53C252.431 358.174 269.581 359.191 277.037 359.869C286.256 358.242 293.531 360.773 296.017 362.241C298.999 362.241 304.49 370.375 306.862 374.443C308.489 377.696 312.511 380.769 314.319 381.899C305.507 386.644 296.356 382.577 296.695 382.916C296.966 383.187 294.21 380.317 294.661 383.594C295 385.288 290.069 402.802 288.374 403.48C283.968 409.58 279.41 413.758 275.682 418.842M270.95 441.235C270.041 438.855 269.055 434.322 268.564 431.721C268.564 437.821 265.175 427.315 275.682 418.842M275.682 418.842C274.778 418.277 276.495 420.197 275.682 418.842Z" stroke="#BC7E4B" stroke-width="0.702782"/>
<path d="M216.522 318.032C216.861 317.693 220.25 318.032 220.589 318.032L221.945 319.388L222.284 320.405L219.572 324.133C219.233 323.568 218.488 322.37 218.217 322.099C217.313 321.873 215.437 321.354 215.166 321.082C214.624 320.269 215.844 318.71 216.522 318.032Z" fill="#593E35"/>
<path d="M191.442 308.203C193.882 309.288 194.04 311.141 193.814 311.931C193.001 313.016 189.86 313.061 188.391 312.948C185.409 311.864 184.889 310.463 185.002 309.898C186.019 306.848 191.103 308.203 191.442 308.203Z" fill="#593E35"/>
<path d="M169.412 473.259C166.971 470.548 166.135 465.729 166.022 463.808V463.469L168.395 465.503L170.767 467.875L175.851 473.637C173.818 474.315 170.767 473.598 169.412 473.259Z" fill="#593E35"/>
<path d="M174.156 499.734C177.952 498.65 181.274 502.672 182.291 504.818H175.512H168.395C168.734 503.085 172.462 500.412 174.156 499.734Z" fill="#593E35"/>
<path d="M248.381 499.056C251.906 500.683 253.691 503.763 253.804 504.779L239.908 504.818C240.925 501.09 246.347 499.056 248.381 499.056Z" fill="#593E35"/>
<path d="M343.958 486.855L336.501 474.315C334.332 476.755 334.807 481.281 335.145 482.749L335.484 483.466C336.569 485.364 341.585 486.516 343.958 486.855Z" fill="#593E35"/>
<path d="M216.522 318.032C216.861 317.693 220.25 318.032 220.589 318.032L221.945 319.388L222.284 320.405L219.572 324.133C219.233 323.568 218.488 322.37 218.217 322.099C217.313 321.873 215.437 321.354 215.166 321.082C214.624 320.269 215.844 318.71 216.522 318.032Z" stroke="#593E35" stroke-width="0.702782"/>
<path d="M191.442 308.203C193.882 309.288 194.04 311.141 193.814 311.931C193.001 313.016 189.86 313.061 188.391 312.948C185.409 311.864 184.889 310.463 185.002 309.898C186.019 306.848 191.103 308.203 191.442 308.203Z" stroke="#593E35" stroke-width="0.702782"/>
<path d="M169.412 473.259C166.971 470.548 166.135 465.729 166.022 463.808V463.469L168.395 465.503L170.767 467.875L175.851 473.637C173.818 474.315 170.767 473.598 169.412 473.259Z" stroke="#593E35" stroke-width="0.702782"/>
<path d="M174.156 499.734C177.952 498.65 181.274 502.672 182.291 504.818H175.512H168.395C168.734 503.085 172.462 500.412 174.156 499.734Z" stroke="#593E35" stroke-width="0.702782"/>
<path d="M248.381 499.056C251.906 500.683 253.691 503.763 253.804 504.779L239.908 504.818C240.925 501.09 246.347 499.056 248.381 499.056Z" stroke="#593E35" stroke-width="0.702782"/>
<path d="M343.958 486.855L336.501 474.315C334.332 476.755 334.807 481.281 335.145 482.749L335.484 483.466C336.569 485.364 341.585 486.516 343.958 486.855Z" stroke="#593E35" stroke-width="0.702782"/>
<path d="M234.146 399.074C232.79 403.819 237.874 420.765 238.213 420.765C212.455 426.188 193.362 423.476 187.036 421.443L187.375 418.053C188.73 418.867 199.237 419.974 204.321 420.426C208.93 420.968 223.413 418.392 230.079 417.037C228.994 415.139 231.661 404.497 233.129 399.413L234.146 399.074Z" fill="#D7A664" stroke="#D7A664" stroke-width="0.702782"/>
<path d="M250.414 391.617C243.975 400.429 244.766 412.631 246.347 418.053C244.653 414.777 241.263 407.479 241.263 404.496C241.263 400.768 241.941 397.04 242.958 390.262C243.772 384.839 248.268 379.19 250.414 377.044C258.006 372.434 259.452 376.479 259.226 379.077C258.549 379.416 250.753 390.601 250.414 391.617Z" fill="#C9966B"/>
<path d="M174.156 416.698C174.142 416.654 174.128 416.57 174.114 416.451L170.089 392.973C169.818 388.906 171.784 386.759 172.801 386.195C175.512 384.568 176.642 387.324 176.868 388.906C174.97 390.533 174.044 393.425 173.818 394.668C173.818 401.293 173.878 414.368 174.114 416.451L174.156 416.698Z" fill="#C9966B"/>
<path d="M246.347 418.053C244.766 412.631 243.975 400.429 250.414 391.617C250.753 390.601 258.549 379.416 259.226 379.077C259.452 376.479 258.006 372.434 250.414 377.044C248.268 379.19 243.772 384.839 242.958 390.262C241.941 397.04 241.263 400.768 241.263 404.496C241.263 407.479 244.653 414.777 246.347 418.053ZM174.156 416.698C173.885 415.884 173.818 401.672 173.818 394.668C174.044 393.425 174.97 390.533 176.868 388.906C176.642 387.324 175.512 384.568 172.801 386.195C171.784 386.759 169.818 388.906 170.089 392.973L174.156 416.698Z" stroke="#C9966B" stroke-width="0.702782"/>
<path d="M188.052 297.397L187.375 296.38C191.984 295.566 200.367 302.819 203.982 306.547L216.183 315.698C212.455 317.054 209.405 312.987 208.727 312.987C208.184 312.987 205.112 310.05 203.643 308.581C202.965 308.581 198.559 305.192 195.509 303.836C194.966 303.836 193.023 302.932 192.119 302.48C191.306 302.48 189.295 302.028 188.391 301.803C187.578 301.531 187.826 298.752 188.052 297.397Z" fill="#E4BA80"/>
<path d="M301.592 379.755C305.659 382.805 311.421 383.144 311.76 383.144C311.421 384.839 301.592 384.161 299.219 383.822C297.322 383.551 295.039 382.466 294.136 382.128C293.684 381.789 292.102 380.568 289.391 378.399C286.679 376.23 285.324 369.813 284.985 366.876C286.883 370.672 292.102 373.428 294.475 374.332C295.017 374.332 299.445 377.947 301.592 379.755Z" fill="#E4BA80"/>
<path d="M170.089 411.953C169.073 408.225 166.903 400.294 166.361 398.396C163.921 398.396 157.662 390.262 154.838 386.195C157.278 395.413 166.022 407.208 170.089 411.953Z" fill="#E4BA80"/>
<path d="M187.713 404.497C188.73 407.547 187.375 417.715 187.375 418.053C197.949 419.951 205.112 420.426 207.371 420.426C209.269 420.697 223.075 418.053 229.74 416.698C230.079 416.924 230.486 417.172 229.401 416.359C228.317 415.545 230.983 405.174 232.451 400.091C212.116 410.665 194.153 407.434 187.713 404.497Z" fill="#E4BA80"/>
<path d="M188.052 297.397L187.375 296.38C191.984 295.566 200.367 302.819 203.982 306.547L216.183 315.698C212.455 317.054 209.405 312.987 208.727 312.987C208.184 312.987 205.112 310.05 203.643 308.581C202.965 308.581 198.559 305.192 195.509 303.836C194.966 303.836 193.023 302.932 192.119 302.48C191.306 302.48 189.295 302.028 188.391 301.803C187.578 301.531 187.826 298.752 188.052 297.397Z" stroke="#E4BA80" stroke-width="0.702782"/>
<path d="M301.592 379.755C305.659 382.805 311.421 383.144 311.76 383.144C311.421 384.839 301.592 384.161 299.219 383.822C297.322 383.551 295.039 382.466 294.136 382.128C293.684 381.789 292.102 380.568 289.391 378.399C286.679 376.23 285.324 369.813 284.985 366.876C286.883 370.672 292.102 373.428 294.475 374.332C295.017 374.332 299.445 377.947 301.592 379.755Z" stroke="#E4BA80" stroke-width="0.702782"/>
<path d="M170.089 411.953C169.073 408.225 166.903 400.294 166.361 398.396C163.921 398.396 157.662 390.262 154.838 386.195C157.278 395.413 166.022 407.208 170.089 411.953Z" stroke="#E4BA80" stroke-width="0.702782"/>
<path d="M187.713 404.497C188.73 407.547 187.375 417.715 187.375 418.053C197.949 419.951 205.112 420.426 207.371 420.426C209.269 420.697 223.075 418.053 229.74 416.698C230.079 416.924 230.486 417.172 229.401 416.359C228.317 415.545 230.983 405.174 232.451 400.091C212.116 410.665 194.153 407.434 187.713 404.497Z" stroke="#E4BA80" stroke-width="0.702782"/>
<path d="M206.015 291.296C206 291.302 205.985 291.308 205.969 291.315C205.475 291.764 201.133 297.699 198.898 300.786C198.627 299.972 195.848 298.413 194.492 297.735C195.032 296.115 202.338 292.793 205.969 291.315C205.999 291.287 206.015 291.28 206.015 291.296Z" fill="#8C5A39"/>
<path d="M183.307 306.886C181.138 306.073 179.466 306.547 178.901 306.886C178.359 307.429 180.709 308.694 181.952 309.259C182.494 309.801 183.307 311.292 183.646 311.97C183.917 312.241 185.115 312.987 185.68 313.326C186.764 314.139 189.747 313.891 191.103 313.665C193.272 313.394 194.492 313.552 194.831 313.665C198.356 315.292 198.559 314.117 198.22 313.326C197.678 312.512 196.864 311.857 196.525 311.631C196.187 311.292 195.735 310.727 195.509 310.276C193.34 306.48 190.99 305.982 190.086 306.208C189.069 306.208 185.115 306.773 183.307 306.886Z" fill="#8C5A39"/>
<path d="M206.015 291.296C202.4 292.764 195.034 296.108 194.492 297.735C195.848 298.413 198.627 299.972 198.898 300.786C201.27 297.509 206.015 291.025 206.015 291.296ZM178.901 306.886C179.466 306.547 181.138 306.073 183.307 306.886C185.115 306.773 189.069 306.208 190.086 306.208C190.99 305.982 193.34 306.48 195.509 310.276C195.735 310.727 196.187 311.292 196.525 311.631C196.864 311.857 197.678 312.512 198.22 313.326C198.559 314.117 198.356 315.292 194.831 313.665C194.492 313.552 193.272 313.394 191.103 313.665C189.747 313.891 186.764 314.139 185.68 313.326C185.115 312.987 183.917 312.241 183.646 311.97C183.307 311.292 182.494 309.801 181.952 309.259C180.709 308.694 178.359 307.429 178.901 306.886Z" stroke="#8C5A39" stroke-width="0.702782"/>
<path d="M147.72 302.818C147.733 302.815 147.746 302.811 147.759 302.808C148.511 302.894 159.322 306.627 163.989 307.903C164.667 307.225 167.721 303.861 168.734 302.141C168.058 300.789 152.778 301.418 147.759 302.808C147.725 302.804 147.712 302.807 147.72 302.818Z" fill="#8C5A39"/>
<path d="M147.72 302.818C152.698 301.421 168.056 300.786 168.734 302.141C167.721 303.861 164.667 307.225 163.989 307.903C159.113 306.569 147.531 302.555 147.72 302.818Z" stroke="#8C5A39" stroke-width="0.702782"/>
<path d="M191.198 307.598C188.758 306.514 186.566 308.05 185.775 308.954C185.233 310.039 187.131 311.213 188.148 311.665C190.181 313.021 193.119 312.343 194.587 311.326C194.045 309.428 192.102 308.05 191.198 307.598Z" fill="#573E37" stroke="#573E37" stroke-width="0.702782"/>
<path d="M191.781 309.937C191.781 309.598 190.425 309.115 190.425 308.776C190.425 308.098 192.006 309.341 192.458 310.132C192.797 310.725 192.119 311.292 192.119 310.953L191.781 309.937Z" fill="white" stroke="white" stroke-width="0.702782"/>
<path d="M155.963 624.287C154.206 621.476 132.772 614.097 131.015 608.123C136.168 607.069 149.779 606.647 162.991 613.394C161.586 612.704 140.502 590.905 142.259 587.391C150.191 590.774 167.278 598.92 172.416 604.54C170.685 602.455 156.343 573.35 158.423 574.39C164.397 578.958 181.264 590.202 183.372 596.176C182.201 585.751 180.209 565.183 181.615 566.308C183.372 567.713 193.211 584.229 195.319 596.176C197.428 586.22 202.277 566.308 204.807 566.308C206.915 571.696 210.499 585.213 207.969 596.176C213.006 588.328 223.852 572.984 226.944 574.39C226.944 578.138 226.031 588.094 222.376 597.933C226.476 595.356 236.854 589.851 245.568 588.445C245.568 593.014 244.162 594.419 231.512 608.826C235.612 607.655 246.693 605.523 258.218 606.366C252.479 611.989 239.876 623.374 235.378 623.936L155.963 624.287Z" fill="#2EAE5B"/>
<path d="M155.963 624.287C154.206 621.476 132.772 614.097 131.015 608.123C136.168 607.069 149.779 606.647 162.991 613.394C161.586 612.704 140.502 590.905 142.259 587.391C150.224 590.788 167.419 598.987 172.479 604.609C171.073 603.241 156.315 573.336 158.423 574.39C164.397 578.958 181.264 590.202 183.372 596.176C182.201 585.751 180.209 565.183 181.615 566.308C183.372 567.713 193.211 584.229 195.319 596.176C197.428 586.22 202.277 566.308 204.807 566.308C206.915 571.696 210.499 585.213 207.969 596.176C213.006 588.328 223.852 572.984 226.944 574.39C226.944 578.138 226.031 588.094 222.376 597.933C226.476 595.356 236.854 589.851 245.568 588.445C245.568 593.014 244.162 594.419 231.512 608.826C235.612 607.655 246.693 605.523 258.218 606.366C252.479 611.989 239.876 623.374 235.378 623.936L155.963 624.287Z" stroke="#2EAE5B" stroke-width="0.702782"/>
<path d="M111.066 584.184C117.813 602.738 115.985 619.792 114.228 626H84.7115C82.4626 607.447 101.344 590.392 111.066 584.184Z" fill="#00B295"/>
<path d="M36.9224 551.505C25.1156 584.395 34.3455 614.873 40.4363 626H82.9546C80.4246 587.488 51.2123 560.29 36.9224 551.505Z" fill="#00B295"/>
<path d="M111.066 584.184C117.813 602.738 115.985 619.792 114.228 626H84.7115C82.4626 607.447 101.344 590.392 111.066 584.184Z" stroke="#00B295" stroke-width="0.702782"/>
<path d="M36.9224 551.505C25.1156 584.395 34.3455 614.873 40.4363 626H82.9546C80.4246 587.488 51.2123 560.29 36.9224 551.505Z" stroke="#00B295" stroke-width="0.702782"/>
<path d="M350.283 24.2034C373.826 22.4464 376.637 37.9076 379.097 42.1243L270.165 40.016C274.382 28.7715 285.744 25.9603 290.897 25.9603C311.419 4.31462 339.038 15.77 350.283 24.2034Z" fill="white" stroke="white" stroke-width="0.702782"/>
<path d="M200.59 48.0979C224.133 46.341 226.944 61.8022 229.404 66.0189L120.473 63.9105C124.69 52.666 136.051 49.8549 141.205 49.8548C161.726 28.2092 189.346 39.6645 200.59 48.0979Z" fill="white" stroke="white" stroke-width="0.702782"/>
<path d="M380.854 197.654H347.823H310.927L321.117 181.139H315.143L330.956 149.162H325.334L332.713 138.269H328.496L335.524 127.025H332.01L337.632 119.294H334.119L346.417 88.3718L358.013 119.294H354.499L359.067 127.025H355.553L362.581 138.269H359.067L364.338 149.162H360.122L376.637 181.139H371.366L380.854 197.654Z" fill="#108687" stroke="#108687" stroke-width="0.702782"/>
<path d="M346.769 216.63V186.41M346.769 148.108V172.003M346.769 172.003L345.754 170.958L334.821 159.704M346.769 172.003V186.41M346.769 186.41L357.662 176.571" stroke="#013856" stroke-width="2.10835"/>
<path d="M284.572 172.354H251.542H214.646L224.836 155.839H218.862L234.675 123.862H229.053L236.432 112.969H232.215L239.243 101.725H235.729L241.351 93.9942H237.837L250.136 63.0718L261.732 93.9942H258.218L262.786 101.725H259.272L266.3 112.969H262.786L268.057 123.862H263.84L280.356 155.839H275.085L284.572 172.354Z" fill="#108687" stroke="#108687" stroke-width="0.702782"/>
<path d="M250.488 191.329V161.11M250.488 122.808V146.703M250.488 146.703L249.473 145.658L238.54 134.404M250.488 146.703V161.11M250.488 161.11L261.381 151.271" stroke="#013856" stroke-width="2.10835"/>
<path d="M260.678 624.946V598.24M260.678 598.24C266.3 597.654 279.02 594.375 284.924 585.941C281.996 589.572 273.047 597.116 260.678 598.24ZM260.678 598.24C260.444 595.898 258.921 590.158 254.704 585.941C231.512 584.536 228.35 584.536 229.695 556.073M229.695 556.073C229.505 553.47 229.695 549.961 229.695 546.937V556.073ZM229.695 556.073C236.275 555.722 249.574 553.262 250.136 546.234C250.565 548.694 247.076 554.105 229.695 556.073ZM229.695 556.073C229.459 567.669 211.835 565.561 211.835 550.451" stroke="#072817" stroke-width="2.10835"/>
<path d="M285.361 583.492C285.827 580.57 287.456 575.617 291.193 574.048C291.404 576.561 290.94 582.143 287.519 585.064C289.083 583.952 292.962 582.341 298.979 582.829C297.968 584.451 294.176 587.612 287.101 587.288C291.747 587.959 295.372 592.251 296.604 594.313C291.325 594.097 287.629 590.08 286.442 588.098C289.292 592.962 288.773 598.861 288.157 601.203C285.152 599.111 285.527 590.409 285.631 588.667C285.215 593.501 279.787 597.403 277.071 598.771C276.966 594.988 281.866 590.08 284.33 588.098C279.579 591.124 273.376 590.62 270.868 589.99C272.663 587.18 279.975 587.017 283.406 587.288C276.754 585.018 274.124 580.848 273.64 579.047C278.973 580.497 281.697 582.828 282.825 584.432C279.555 578.009 280.058 574.581 280.767 573.643C284.737 577.235 285.498 581.295 285.361 583.492Z" fill="#F87171"/>
<path d="M285.254 584.315C285.518 581.614 287.075 575.777 291.193 574.048C291.413 576.66 290.902 582.586 287.101 585.396M285.254 584.315C285.887 584.099 286.75 584.946 287.101 585.396M285.254 584.315C285.65 582.469 285.307 577.75 280.767 573.643C280.019 574.633 279.5 578.398 283.406 585.531M285.254 584.315C284.409 583.883 283.67 584.946 283.406 585.531M287.101 585.396C288.289 584.315 292.328 582.289 298.979 582.829C297.968 584.451 294.176 587.612 287.101 587.288M287.101 585.396C287.524 586.261 287.277 587.017 287.101 587.288M287.101 587.288C291.747 587.959 295.372 592.251 296.604 594.313C291.325 594.097 287.629 590.08 286.442 588.098M287.101 587.288C287.014 587.513 286.758 587.99 286.442 588.098M283.406 585.531C282.966 584.135 280.397 580.884 273.64 579.047C274.124 580.848 276.754 585.018 283.406 587.288M283.406 585.531C283.089 586.288 283.274 587.017 283.406 587.288M283.406 587.288C279.975 587.017 272.663 587.18 270.868 589.99C273.376 590.62 279.579 591.124 284.33 588.098M284.33 588.098C281.866 590.08 276.966 594.988 277.071 598.771C279.843 597.375 285.439 593.34 285.65 588.368M284.33 588.098C284.752 588.422 285.386 588.413 285.65 588.368M285.65 588.368C285.633 588.639 284.858 598.906 288.157 601.203C288.773 598.861 289.292 592.962 286.442 588.098M285.65 588.368L286.442 588.098" stroke="#F87171" stroke-width="0.702782"/>
<path d="M252.221 545.188C252.571 542.997 253.792 539.282 256.595 538.105C256.754 539.99 256.405 544.176 253.839 546.367C255.013 545.533 257.922 544.324 262.435 544.691C261.676 545.907 258.832 548.278 253.526 548.035C257.011 548.538 259.729 551.757 260.653 553.303C256.694 553.141 253.922 550.129 253.031 548.643C255.169 552.29 254.78 556.715 254.318 558.471C252.065 556.902 252.345 550.375 252.423 549.069C252.111 552.695 248.04 555.621 246.004 556.647C245.924 553.81 249.6 550.129 251.448 548.643C247.884 550.912 243.232 550.534 241.351 550.061C242.698 547.954 248.181 547.832 250.755 548.035C245.766 546.332 243.793 543.205 243.43 541.854C247.43 542.941 249.473 544.69 250.319 545.893C247.866 541.076 248.244 538.505 248.775 537.801C251.753 540.495 252.323 543.54 252.221 545.188Z" fill="#FAC215"/>
<path d="M252.141 545.805C252.339 543.779 253.507 539.402 256.595 538.105C256.76 540.064 256.377 544.509 253.526 546.616M252.141 545.805C252.616 545.643 253.262 546.278 253.526 546.616M252.141 545.805C252.438 544.421 252.18 540.881 248.775 537.801C248.214 538.544 247.825 541.368 250.755 546.717M252.141 545.805C251.507 545.481 250.953 546.278 250.755 546.717M253.526 546.616C254.417 545.805 257.446 544.286 262.435 544.691C261.676 545.907 258.832 548.278 253.526 548.035M253.526 546.616C253.843 547.265 253.658 547.832 253.526 548.035M253.526 548.035C257.011 548.538 259.729 551.757 260.653 553.303C256.694 553.141 253.922 550.129 253.031 548.643M253.526 548.035C253.46 548.203 253.269 548.561 253.031 548.643M250.755 546.717C250.425 545.67 248.498 543.232 243.43 541.854C243.793 543.205 245.766 546.332 250.755 548.035M250.755 546.717C250.517 547.285 250.656 547.832 250.755 548.035M250.755 548.035C248.181 547.832 242.698 547.954 241.351 550.061C243.232 550.534 247.884 550.912 251.448 548.643M251.448 548.643C249.6 550.129 245.924 553.81 246.004 556.647C248.082 555.6 252.279 552.574 252.438 548.845M251.448 548.643C251.764 548.886 252.24 548.879 252.438 548.845M252.438 548.845C252.425 549.048 251.844 556.748 254.318 558.471C254.78 556.715 255.169 552.29 253.031 548.643M252.438 548.845L253.031 548.643" stroke="#FAC215" stroke-width="0.702782"/>
<path d="M212.162 549.405C212.512 547.213 213.733 543.499 216.536 542.322C216.695 544.206 216.347 548.392 213.781 550.584C214.954 549.75 217.863 548.541 222.376 548.908C221.617 550.123 218.773 552.494 213.468 552.251C216.952 552.755 219.671 555.974 220.595 557.52C216.635 557.358 213.864 554.345 212.973 552.859C215.111 556.507 214.722 560.931 214.26 562.688C212.006 561.119 212.287 554.592 212.365 553.286C212.053 556.911 207.982 559.838 205.945 560.864C205.866 558.027 209.541 554.345 211.389 552.859C207.826 555.129 203.174 554.751 201.293 554.278C202.639 552.17 208.123 552.049 210.696 552.251C205.707 550.549 203.734 547.422 203.371 546.071C207.372 547.158 209.415 548.906 210.261 550.11C207.808 545.293 208.185 542.721 208.717 542.018C211.695 544.712 212.265 547.757 212.162 549.405Z" fill="#FAC215"/>
<path d="M212.082 550.022C212.28 547.996 213.448 543.618 216.536 542.322C216.701 544.28 216.319 548.725 213.468 550.833M212.082 550.022C212.557 549.86 213.204 550.495 213.468 550.833M212.082 550.022C212.379 548.637 212.122 545.098 208.717 542.018C208.156 542.761 207.766 545.584 210.696 550.934M212.082 550.022C211.449 549.698 210.894 550.495 210.696 550.934M213.468 550.833C214.359 550.022 217.388 548.502 222.376 548.908C221.617 550.123 218.773 552.494 213.468 552.251M213.468 550.833C213.785 551.481 213.6 552.049 213.468 552.251M213.468 552.251C216.952 552.755 219.671 555.974 220.595 557.52C216.635 557.358 213.864 554.345 212.973 552.859M213.468 552.251C213.402 552.42 213.21 552.778 212.973 552.859M210.696 550.934C210.366 549.887 208.439 547.449 203.371 546.071C203.734 547.422 205.707 550.549 210.696 552.251M210.696 550.934C210.459 551.501 210.597 552.049 210.696 552.251M210.696 552.251C208.123 552.049 202.639 552.17 201.293 554.278C203.174 554.751 207.826 555.129 211.389 552.859M211.389 552.859C209.541 554.345 205.866 558.027 205.945 560.864C208.024 559.817 212.221 556.791 212.379 553.062M211.389 552.859C211.706 553.102 212.181 553.096 212.379 553.062M212.379 553.062C212.366 553.265 211.785 560.965 214.26 562.688C214.722 560.931 215.111 556.507 212.973 552.859M212.379 553.062L212.973 552.859" stroke="#FAC215" stroke-width="0.702782"/>
<defs>
<clipPath id="clip0_749_922">
<rect width="112.445" height="632.504" fill="white" transform="translate(418.452 -6.50366)"/>
</clipPath>
</defs>
</svg>
