<svg width="154" height="48" viewBox="0 0 154 48" fill="none" xmlns="http://www.w3.org/2000/svg">
<circle cx="24" cy="24" r="24" fill="white"/>
<circle cx="24" cy="24" r="23.2" fill="#D9D9D9" fill-opacity="0.01" stroke="#03625D" stroke-width="1.6"/>
<path d="M12.5685 6.04224L10.9255 6.40387C11.8848 9.09599 13.2013 10.5104 14.7014 11.2497C16.222 12.0051 17.9773 12.0694 19.8959 11.9328C22.4472 11.7479 25.3251 11.1613 28.2642 12.0212C29.0602 12.3024 29.897 12.6601 30.7849 13.1342C31.2543 13.0217 31.6625 12.877 32.0708 12.7726C32.0708 12.7726 32.3973 11.9488 31.8667 10.8961C31.4074 9.97194 30.2644 8.80669 27.3763 7.987L26.8049 9.24065C28.5806 9.75496 29.5399 10.3898 30.0297 10.9925C30.1011 11.0809 30.1522 11.1613 30.2032 11.2417C29.8154 11.0809 29.4174 10.9363 29.0296 10.8238C26.1619 9.77907 23.8657 9.71478 22.0288 9.55406C21.0491 9.4737 20.2225 9.37726 19.5387 8.99152C18.855 8.59775 18.3447 7.91467 17.9059 6.72531L16.2731 7.10302C16.8547 8.67811 17.6303 9.54602 18.5386 10.0684C18.9468 10.3014 19.3856 10.4702 19.8551 10.5907C18.2427 10.659 16.7221 10.6446 15.5995 10.1166C14.3545 9.49781 13.3646 8.2763 12.5685 6.04224ZM21.7022 6.33154C21.6104 7.2316 21.8145 7.96289 22.1513 8.55757C22.9371 8.63472 23.6208 8.64597 24.3352 8.7424C23.7841 8.26023 23.2943 7.5209 23.3963 6.42797L21.7022 6.33154ZM33.9791 7.41643L32.8668 8.42095C33.7036 8.99956 33.9383 9.69067 33.9383 10.2773C33.4893 9.9623 33.0811 9.75255 32.6014 9.5621C33.3362 10.2387 33.4383 11.4394 33.4893 12.0855L35.0711 12.2221C35.0711 12.2221 36.8672 9.39333 33.9791 7.41643ZM25.7435 12.9895C23.9576 13.1503 23.0085 12.7806 22.437 14.0985C22.437 14.0985 24.3556 16.3406 29.4684 16.2844C29.1827 17.2005 29.3153 17.8756 29.3153 18.6872C29.3153 21.3874 26.5599 23.742 20.4878 23.742C17.4058 23.742 13.6605 24.1759 10.803 25.3894C8.7722 26.2493 7.18324 27.4949 6.4801 29.2227L7.27713 30.0986L8.80281 30.1147V35.073L6.94138 37.3473L7.38461 41.1983L9.23076 42.7529L9.39472 38.6331C10.2724 38.2313 12.2828 37.1866 13.9973 35.5793C16.3241 33.4176 18.11 30.2754 16.0077 26.3859L17.5793 25.8635C19.304 29.0539 18.7019 31.8184 17.1915 34.0444C20.0796 33.9721 22.5595 33.8274 24.6618 33.5542L24.1821 29.0298L25.8762 28.9173L27.6923 46.2509L29.5385 45.8623L29.5399 34.1569C30.938 33.6908 34.122 31.9791 35.612 26.0323C35.7957 25.309 35.8977 24.6983 35.9487 24.1759C36.1835 22.85 36.3161 21.3552 36.357 19.6516L33.8567 19.0328H41.5412L42.2862 17.7068C41.5616 17.7309 40.6942 17.4336 40.6942 17.4336L40.8677 16.7907H42.4801L33.7546 13.2306C32.7851 13.5199 31.7646 13.8976 31.0502 14.3557C30.4787 14.0342 28.4989 13.0297 25.7435 12.9895ZM35.4895 31.1996C34.4996 32.6541 33.4383 33.739 32.5198 34.5105L35.4462 38.089L32.8615 44.6963L35.0769 43.9189L38.4 37.7003L35.612 32.3488C35.5712 32.1639 35.5201 31.8023 35.4895 31.1996ZM19.7939 35.282C18.6407 35.3382 17.416 35.3784 16.1098 35.3945C15.2219 36.3186 14.2014 37.2107 13.14 37.9018L14.0308 44.3076L15.773 44.9291V38.7054C16.518 38.2232 18.3141 36.9937 19.7939 35.282Z" fill="#03625D"/>
<path d="M68.7552 28.5056C68.9344 28.48 69.1584 28.448 69.4272 28.4096C69.7088 28.3712 69.9712 28.3264 70.2144 28.2752C70.4704 28.2112 70.6432 28.1408 70.7328 28.064C70.8992 28.2048 71.008 28.4928 71.0592 28.928C71.1232 29.3504 71.104 29.792 71.0016 30.2528C70.9248 30.6496 70.7904 31.0208 70.5984 31.3664C70.4064 31.712 70.1312 31.9232 69.7728 32C69.4656 32.064 69.1136 32.1024 68.7168 32.1152C68.32 32.128 67.9168 32.128 67.5072 32.1152C67.0976 32.1024 66.72 32.0896 66.3744 32.0768C66.0416 32.064 65.7856 32.0576 65.6064 32.0576C65.4272 32.0576 65.1456 32.0576 64.7616 32.0576C64.3904 32.0704 64.064 32.0832 63.7824 32.096C63.4496 32.1344 63.0848 32.16 62.688 32.1728C62.2912 32.1856 61.9264 32.1728 61.5936 32.1344C61.2608 32.096 61.0176 32.032 60.864 31.9424C60.9536 31.7632 61.0304 31.4944 61.0944 31.136C61.1584 30.7648 61.2096 30.3616 61.248 29.9264C61.2864 29.4912 61.2992 29.0752 61.2864 28.6784L61.248 25.1648V23.5328C61.248 23.072 61.2416 22.688 61.2288 22.3808C61.2288 22.0736 61.2288 21.9072 61.2288 21.8816C61.2288 21.4592 61.2096 21.0048 61.1712 20.5184C61.1328 20.032 61.088 19.5712 61.0368 19.136C60.9856 18.688 60.9408 18.3232 60.9024 18.0416C60.8512 17.824 60.8128 17.6128 60.7872 17.408C60.7616 17.1904 60.7552 16.9984 60.768 16.832C60.8576 16.8704 61.1008 16.9088 61.4976 16.9472C61.9072 16.9728 62.3808 16.9984 62.9184 17.024C62.9568 17.024 63.1424 17.0304 63.4752 17.0432C63.808 17.0432 64.2176 17.0496 64.704 17.0624C65.2032 17.0752 65.7152 17.088 66.24 17.1008C66.7776 17.1008 67.264 17.1008 67.6992 17.1008C68.1344 17.1008 68.4544 17.0944 68.6592 17.0816C69.184 17.056 69.6256 17.0176 69.984 16.9664C70.3552 16.9024 70.6048 16.8192 70.7328 16.7168C70.8864 16.8448 71.0272 17.088 71.1552 17.4464C71.296 17.792 71.3728 18.1568 71.3856 18.5408C71.3856 18.912 71.296 19.264 71.1168 19.5968C70.9504 19.9168 70.6432 20.1344 70.1952 20.2496C70.0288 20.288 69.7664 20.32 69.408 20.3456C69.0624 20.3712 68.7232 20.3904 68.3904 20.4032C68.0704 20.4032 67.84 20.3968 67.6992 20.384C67.3024 20.3456 66.8928 20.3904 66.4704 20.5184C66.048 20.6336 65.6896 20.7936 65.3952 20.9984C65.1008 21.1904 64.9472 21.4016 64.9344 21.632C64.9216 21.8496 65.0112 22.0288 65.2032 22.1696C65.3952 22.3104 65.6448 22.4256 65.952 22.5152C66.272 22.592 66.6112 22.6432 66.9696 22.6688C67.328 22.6944 67.6672 22.7008 67.9872 22.688C68.2432 22.6624 68.5376 22.6176 68.8704 22.5536C69.2032 22.4896 69.408 22.4256 69.4848 22.3616C69.6512 22.5024 69.7664 22.7648 69.8304 23.1488C69.9072 23.5328 69.9072 23.9296 69.8304 24.3392C69.7664 24.672 69.6384 24.9792 69.4464 25.2608C69.2544 25.5424 68.9856 25.7344 68.64 25.8368C68.3712 25.9136 68.1408 25.9648 67.9488 25.9904C67.7568 26.0032 67.6608 26.0096 67.6608 26.0096C66.9056 26.0096 66.2656 26.144 65.7408 26.4128C65.2288 26.6688 64.9472 26.976 64.896 27.3344C64.8448 27.6416 64.9088 27.9232 65.088 28.1792C65.28 28.4352 65.5552 28.576 65.9136 28.6016C66.1568 28.6144 66.464 28.6208 66.8352 28.6208C67.2192 28.608 67.5904 28.5952 67.9488 28.5824C68.32 28.5568 68.5888 28.5312 68.7552 28.5056ZM81.9228 23.7056C81.8716 23.9744 81.7564 24.224 81.5772 24.4544C81.398 24.6848 81.1868 24.8768 80.9436 25.0304C80.7132 25.1712 80.4892 25.248 80.2716 25.2608C80.054 25.2736 79.8748 25.1968 79.734 25.0304C79.9772 24.864 80.0348 24.704 79.9068 24.5504C79.7916 24.3968 79.5932 24.2752 79.3116 24.1856C79.03 24.096 78.7548 24.0704 78.486 24.1088C77.8204 24.2112 77.3276 24.4992 77.0076 24.9728C76.6876 25.4336 76.4828 25.9648 76.3932 26.5664C76.3292 27.0784 76.3804 27.5392 76.5468 27.9488C76.726 28.3456 76.9692 28.6656 77.2764 28.9088C77.5964 29.1392 77.942 29.2608 78.3132 29.2736C79.1452 29.2864 79.8364 29.1648 80.3868 28.9088C80.9372 28.6528 81.366 28.3584 81.6732 28.0256C81.9932 27.68 82.2108 27.3984 82.326 27.1808C82.6332 27.3984 82.8124 27.712 82.8636 28.1216C82.9148 28.5312 82.8508 28.9728 82.6716 29.4464C82.4924 29.92 82.2108 30.3744 81.8268 30.8096C81.4428 31.2448 80.9756 31.6032 80.4252 31.8848C79.8748 32.1536 79.2476 32.288 78.5436 32.288C78.1724 32.288 77.7308 32.2432 77.2188 32.1536C76.7068 32.064 76.182 31.8976 75.6444 31.6544C75.1196 31.4112 74.6332 31.0592 74.1852 30.5984C73.75 30.1376 73.4108 29.5424 73.1676 28.8128C72.9372 28.0832 72.8668 27.1872 72.9564 26.1248C73.0204 25.3056 73.238 24.5824 73.6092 23.9552C73.9932 23.3152 74.4604 22.7776 75.0108 22.3424C75.5612 21.8944 76.1372 21.5552 76.7388 21.3248C77.3532 21.0816 77.9356 20.9536 78.486 20.9408C79.0364 20.928 79.5356 21.0112 79.9836 21.1904C80.4316 21.3696 80.8092 21.6064 81.1164 21.9008C81.4236 22.1824 81.6476 22.4832 81.7884 22.8032C81.9292 23.1232 81.974 23.424 81.9228 23.7056ZM95.0486 26.144C95.1638 27.2192 95.0806 28.1408 94.799 28.9088C94.5174 29.6768 94.1014 30.3104 93.551 30.8096C93.0134 31.3088 92.4054 31.68 91.727 31.9232C91.0614 32.1536 90.3958 32.2688 89.7302 32.2688C89.0774 32.2688 88.4118 32.1536 87.7334 31.9232C87.0678 31.68 86.4662 31.3088 85.9286 30.8096C85.4038 30.3104 84.9942 29.6768 84.6998 28.9088C84.4182 28.1408 84.335 27.2192 84.4502 26.144C84.5654 25.1584 84.8598 24.2944 85.3334 23.552C85.8198 22.8096 86.4342 22.2272 87.1766 21.8048C87.9318 21.3696 88.7574 21.1264 89.6534 21.0752C89.7046 21.0624 89.7558 21.024 89.807 20.96C89.871 20.8832 89.9734 20.8192 90.1142 20.768C90.2678 20.704 90.4982 20.6848 90.8054 20.7104C91.535 20.9152 92.2006 21.2672 92.8022 21.7664C93.4038 22.2656 93.903 22.8864 94.2998 23.6288C94.7094 24.3712 94.959 25.2096 95.0486 26.144ZM89.5574 29.1968C89.967 29.1968 90.319 29.1008 90.6134 28.9088C90.9078 28.7168 91.1446 28.4736 91.3238 28.1792C91.503 27.872 91.631 27.552 91.7078 27.2192C91.7974 26.8864 91.8422 26.5856 91.8422 26.3168C91.8422 25.7664 91.7526 25.3376 91.5734 25.0304C91.3942 24.7232 90.9846 24.448 90.3446 24.2048C90.1654 24.128 90.0438 24.0256 89.9798 23.8976C89.9158 23.7696 89.8198 23.6992 89.6918 23.6864C89.2694 23.6352 88.911 23.7504 88.6166 24.032C88.3222 24.3136 88.0982 24.6912 87.9446 25.1648C87.791 25.6384 87.7142 26.1504 87.7142 26.7008C87.7142 27.2512 87.8166 27.712 88.0214 28.0832C88.239 28.4544 88.4886 28.736 88.7702 28.928C89.0646 29.1072 89.327 29.1968 89.5574 29.1968ZM102.762 16.6208C103.517 16.6208 104.24 16.7552 104.932 17.024C105.636 17.28 106.224 17.6256 106.698 18.0608C107.184 18.496 107.472 18.9632 107.562 19.4624C107.626 19.7952 107.581 20.1664 107.428 20.576C107.274 20.9728 107.031 21.3248 106.698 21.632C106.365 21.9264 105.962 22.0864 105.488 22.112C105.322 22.112 105.111 22.0928 104.855 22.0544C104.599 22.016 104.349 21.9392 104.106 21.824C103.876 21.7088 103.69 21.5424 103.549 21.3248C103.741 21.2224 103.869 21.1136 103.933 20.9984C103.997 20.8832 104.016 20.768 103.991 20.6528C103.94 20.3968 103.786 20.1856 103.53 20.0192C103.287 19.8528 102.986 19.7504 102.628 19.712C102.423 19.6864 102.186 19.6928 101.917 19.7312C101.648 19.7568 101.399 19.8464 101.168 20C100.951 20.1408 100.797 20.3776 100.708 20.7104C100.656 20.9024 100.663 21.1136 100.727 21.344C100.804 21.5616 100.983 21.7728 101.264 21.9776C101.546 22.1696 101.975 22.336 102.551 22.4768C103.434 22.6816 104.253 22.9056 105.008 23.1488C105.776 23.392 106.448 23.6928 107.024 24.0512C107.6 24.4096 108.042 24.8576 108.349 25.3952C108.669 25.92 108.816 26.5792 108.791 27.3728C108.778 27.8976 108.637 28.448 108.368 29.024C108.1 29.6 107.709 30.1376 107.197 30.6368C106.685 31.1232 106.058 31.52 105.316 31.8272C104.573 32.1344 103.728 32.288 102.781 32.288C102.18 32.288 101.559 32.2368 100.919 32.1344C100.279 32.032 99.6708 31.872 99.0948 31.6544C98.5316 31.4368 98.0324 31.1488 97.5972 30.7904C97.2132 30.4576 96.938 30.0416 96.7716 29.5424C96.618 29.0432 96.586 28.544 96.6756 28.0448C96.7652 27.5328 96.9892 27.0976 97.3476 26.7392C97.7188 26.3808 98.2308 26.1824 98.8836 26.144C98.7556 26.528 98.826 26.9056 99.0948 27.2768C99.3764 27.6352 99.7924 27.9424 100.343 28.1984C100.893 28.4416 101.495 28.5888 102.148 28.64C102.826 28.6912 103.415 28.6656 103.914 28.5632C104.426 28.4608 104.708 28.2496 104.759 27.9296C104.823 27.5456 104.746 27.2384 104.528 27.008C104.311 26.7776 104.01 26.6048 103.626 26.4896C103.242 26.3616 102.826 26.2592 102.378 26.1824C101.93 26.0928 101.514 26.0032 101.13 25.9136C100.618 25.7728 100.1 25.5936 99.5748 25.376C99.0628 25.1456 98.5892 24.8576 98.154 24.512C97.7316 24.1664 97.386 23.744 97.1172 23.2448C96.8484 22.7456 96.7076 22.1632 96.6948 21.4976C96.682 20.7168 96.842 20.0256 97.1748 19.424C97.5076 18.8096 97.962 18.2976 98.538 17.888C99.114 17.4656 99.7668 17.152 100.496 16.9472C101.239 16.7296 101.994 16.6208 102.762 16.6208ZM120.923 28.5248C120.935 28.8064 120.955 29.152 120.98 29.5616C121.019 29.9712 121.102 30.368 121.23 30.752C121.358 31.136 121.563 31.4432 121.844 31.6736C121.524 31.8912 121.198 32.0448 120.865 32.1344C120.532 32.2368 120.206 32.2624 119.886 32.2112C119.796 32.1856 119.7 32.1536 119.598 32.1152C119.495 32.0896 119.355 32.0512 119.175 32C118.881 31.9104 118.535 31.8912 118.139 31.9424C117.742 31.9936 117.326 32.0576 116.891 32.1344C116.468 32.224 116.052 32.2688 115.643 32.2688C114.977 32.2688 114.311 32.1536 113.646 31.9232C112.98 31.68 112.379 31.3088 111.841 30.8096C111.303 30.3104 110.894 29.6768 110.612 28.9088C110.331 28.1408 110.247 27.2192 110.363 26.144C110.439 25.4016 110.651 24.7232 110.996 24.1088C111.342 23.4816 111.764 22.944 112.263 22.496C112.775 22.0352 113.313 21.6832 113.876 21.44C114.452 21.184 115.009 21.0624 115.547 21.0752C115.956 21.088 116.27 21.1008 116.487 21.1136C116.718 21.1264 117.012 21.1584 117.371 21.2096C117.588 21.2352 117.863 21.2032 118.196 21.1136C118.529 21.024 118.862 20.928 119.195 20.8256C119.54 20.7104 119.835 20.6528 120.078 20.6528C120.449 20.64 120.711 20.6528 120.865 20.6912C121.019 20.7168 121.147 20.7424 121.249 20.768C121.172 20.9984 121.108 21.344 121.057 21.8048C121.006 22.2656 120.967 22.7904 120.942 23.3792C120.929 23.9552 120.916 24.5568 120.903 25.184C120.891 25.8112 120.884 26.4128 120.884 26.9888C120.897 27.5648 120.91 28.0768 120.923 28.5248ZM113.703 26.7584C113.729 27.3984 113.844 27.8976 114.049 28.256C114.267 28.6016 114.523 28.8448 114.817 28.9856C115.124 29.1264 115.419 29.1968 115.7 29.1968C116.263 29.2096 116.679 28.992 116.948 28.544C117.217 28.096 117.345 27.4752 117.332 26.6816C117.332 26.464 117.307 26.208 117.255 25.9136C117.217 25.6192 117.14 25.3312 117.025 25.0496C116.923 24.768 116.775 24.5312 116.583 24.3392C116.404 24.1472 116.167 24.0512 115.873 24.0512C115.284 24.0512 114.766 24.2688 114.318 24.704C113.883 25.1392 113.678 25.824 113.703 26.7584ZM129.575 20.96C130.33 21.0752 130.894 21.2544 131.265 21.4976C131.649 21.7408 131.898 22.0288 132.014 22.3616C132.142 22.6816 132.174 23.04 132.11 23.4368C132.058 23.8336 131.962 24.2432 131.822 24.6656C131.719 24.9856 131.566 25.3888 131.361 25.8752C131.169 26.3616 130.964 26.8608 130.746 27.3728C130.542 27.8848 130.35 28.3456 130.17 28.7552C129.991 29.1648 129.87 29.4528 129.806 29.6192C129.562 30.1824 129.345 30.6304 129.153 30.9632C128.974 31.2832 128.788 31.52 128.596 31.6736C128.404 31.8272 128.167 31.9232 127.886 31.9616C127.527 32.0128 127.207 31.9744 126.926 31.8464C126.644 31.7056 126.426 31.4944 126.273 31.2128C126.26 31.1872 126.234 31.0592 126.196 30.8288C126.158 30.5984 126.119 30.3616 126.081 30.1184C126.042 29.8624 126.004 29.696 125.966 29.6192C125.825 29.2224 125.639 28.7488 125.409 28.1984C125.191 27.6352 124.954 27.0336 124.698 26.3936C124.455 25.7536 124.206 25.1264 123.95 24.512C123.706 23.8976 123.482 23.3408 123.278 22.8416C123.073 22.3296 122.906 21.9264 122.778 21.632C122.663 21.3248 122.606 21.1712 122.606 21.1712C122.798 21.1456 123.066 21.1136 123.412 21.0752C123.758 21.0368 124.122 21.0304 124.506 21.056C124.903 21.0816 125.274 21.1776 125.62 21.344C125.966 21.5104 126.241 21.7792 126.446 22.1504C126.51 22.2784 126.593 22.4832 126.695 22.7648C126.81 23.0336 126.919 23.2832 127.022 23.5136C127.098 23.6672 127.175 23.8464 127.252 24.0512C127.342 24.256 127.444 24.4352 127.559 24.5888C127.674 24.7424 127.809 24.8256 127.962 24.8384C128.167 24.8512 128.334 24.768 128.462 24.5888C128.602 24.4096 128.711 24.2112 128.788 23.9936C128.865 23.7632 128.922 23.5968 128.961 23.4944C129.076 23.2 129.185 22.8928 129.287 22.5728C129.402 22.24 129.486 21.9328 129.537 21.6512C129.601 21.3568 129.614 21.1264 129.575 20.96ZM142.595 27.1808C142.915 27.3984 143.12 27.712 143.209 28.1216C143.312 28.5184 143.299 28.9536 143.171 29.4272C143.056 29.9008 142.819 30.3552 142.46 30.7904C142.102 31.2128 141.616 31.5648 141.001 31.8464C140.4 32.128 139.67 32.2752 138.812 32.288C138.096 32.3008 137.392 32.2112 136.7 32.0192C136.022 31.8272 135.401 31.5328 134.838 31.136C134.288 30.7392 133.84 30.2272 133.494 29.6C133.148 28.9728 132.956 28.224 132.918 27.3536C132.905 27.1744 132.905 26.9888 132.918 26.7968C132.931 26.6048 132.944 26.4064 132.956 26.2016C132.956 26.1504 132.956 26.0992 132.956 26.048C132.969 25.9968 132.982 25.9456 132.995 25.8944C133.123 25.1264 133.385 24.4224 133.782 23.7824C134.192 23.1424 134.691 22.5984 135.28 22.1504C135.868 21.7024 136.496 21.376 137.161 21.1712C137.84 20.9536 138.505 20.8768 139.158 20.9408C140.169 21.0432 140.95 21.312 141.5 21.7472C142.064 22.1824 142.428 22.72 142.595 23.36C142.774 23.9872 142.78 24.6656 142.614 25.3952C142.524 25.7536 142.32 26.112 142 26.4704C141.692 26.816 141.308 27.1296 140.848 27.4112C140.387 27.68 139.894 27.8912 139.369 28.0448C138.857 28.1856 138.358 28.2432 137.872 28.2176C137.628 28.2048 137.5 28.2816 137.488 28.448C137.475 28.6016 137.545 28.7744 137.699 28.9664C137.852 29.1456 138.057 29.2672 138.313 29.3312C138.915 29.4592 139.478 29.4656 140.003 29.3504C140.54 29.2224 140.95 29.0496 141.232 28.832C141.462 28.6528 141.705 28.416 141.961 28.1216C142.217 27.8144 142.428 27.5008 142.595 27.1808ZM138.39 25.2416C138.684 25.216 138.94 25.1264 139.158 24.9728C139.388 24.8064 139.504 24.6336 139.504 24.4544C139.516 24.1984 139.452 23.9936 139.312 23.84C139.184 23.6736 138.96 23.5968 138.64 23.6096C138.281 23.6224 137.936 23.6736 137.603 23.7632C137.27 23.8528 137.072 24.0384 137.008 24.32C136.969 24.512 137.027 24.6784 137.18 24.8192C137.334 24.96 137.526 25.0688 137.756 25.1456C137.987 25.2096 138.198 25.2416 138.39 25.2416ZM150.987 20.8832C151.243 20.8192 151.48 20.8832 151.698 21.0752C151.915 21.2672 152.107 21.5296 152.274 21.8624C152.453 22.1824 152.6 22.5152 152.715 22.8608C152.831 23.1936 152.92 23.4752 152.984 23.7056C153.048 23.936 153.08 24.0512 153.08 24.0512C153.08 24.0512 152.927 24.0832 152.619 24.1472C152.325 24.1984 151.954 24.3072 151.506 24.4736C151.071 24.6272 150.635 24.864 150.2 25.184C149.944 25.376 149.701 25.6064 149.471 25.8752C149.24 26.144 149.042 26.4896 148.875 26.912C148.709 27.3216 148.587 27.8656 148.511 28.544C148.472 28.8896 148.466 29.248 148.491 29.6192C148.517 29.9904 148.53 30.304 148.53 30.56C148.543 30.7904 148.575 30.9568 148.626 31.0592C148.69 31.1488 148.741 31.2256 148.779 31.2896C148.613 31.4432 148.306 31.616 147.858 31.808C147.423 31.9872 146.943 32.0768 146.418 32.0768C145.906 32.0768 145.528 31.9104 145.285 31.5776C145.042 31.2448 144.92 30.784 144.92 30.1952C144.92 30.0544 144.914 29.7472 144.901 29.2736C144.901 28.7872 144.895 28.2048 144.882 27.5264C144.882 26.848 144.875 26.144 144.863 25.4144C144.863 24.6848 144.856 24.0064 144.843 23.3792C144.843 22.7392 144.837 22.2208 144.824 21.824C144.824 21.4272 144.824 21.2288 144.824 21.2288C144.952 21.2032 145.17 21.184 145.477 21.1712C145.797 21.1584 146.143 21.1712 146.514 21.2096C146.885 21.248 147.231 21.3376 147.551 21.4784C147.704 21.5424 147.909 21.6064 148.165 21.6704C148.434 21.7216 148.69 21.7472 148.933 21.7472C149.189 21.7472 149.375 21.7088 149.49 21.632C149.733 21.4528 149.976 21.2992 150.219 21.1712C150.475 21.0432 150.731 20.9472 150.987 20.8832Z" fill="white"/>
</svg>
