<svg width="40" height="40" viewBox="0 0 40 40" fill="none" xmlns="http://www.w3.org/2000/svg">
<g clip-path="url(#clip0_813_6159)">
<path d="M12.7547 5.92961C13.0365 5.78149 13.3333 6.01685 13.3333 6.33517V29.2229C13.3333 29.4461 13.1833 29.6379 12.9775 29.7244C12.8861 29.7629 12.7997 29.8047 12.7167 29.85L8.79998 32.0833C6.06665 33.65 3.81665 32.35 3.81665 29.1833V12.9667C3.81665 11.9167 4.56665 10.6167 5.49998 10.0833L12.7167 5.95001C12.7293 5.94313 12.742 5.93633 12.7547 5.92961Z" fill="#BEAF86"/>
<path d="M24.7219 10.2623C24.8922 10.3466 25 10.5202 25 10.7103V33.3697C25 33.7382 24.615 33.9801 24.283 33.8202L16.533 30.0863C16.36 30.003 16.25 29.8279 16.25 29.6359V6.87222C16.25 6.50137 16.6396 6.25958 16.9719 6.42416L24.7219 10.2623Z" fill="#BEAF86"/>
<path d="M36.6666 10.8167V27.0333C36.6666 28.0833 35.9166 29.3833 34.9833 29.9167L28.6652 33.5376C28.3319 33.7287 27.9166 33.488 27.9166 33.1038V10.357C27.9166 10.1775 28.0129 10.0117 28.1688 9.92275L31.6833 7.91667C34.4166 6.35001 36.6666 7.65001 36.6666 10.8167Z" fill="#BEAF86"/>
</g>
<defs>
<clipPath id="clip0_813_6159">
<rect width="40" height="40" fill="white"/>
</clipPath>
</defs>
</svg>
