<svg width="330" height="318" viewBox="0 0 330 318" fill="none" xmlns="http://www.w3.org/2000/svg">
<path d="M166.795 33.5439C181.595 36.3439 192.295 56.0439 195.795 65.5439C195.795 66.3254 195.978 67.7176 196.631 68.2887C196.854 68.3726 197.076 68.4577 197.295 68.5439C198.495 68.5439 207.795 71.5439 212.295 73.0439C223.895 76.6439 232.461 83.5439 235.295 86.5439C250.895 85.3439 263.128 91.3773 267.295 94.5439C277.295 98.1439 289.795 118.044 294.795 127.544C285.195 140.344 264.128 145.211 254.795 146.044C255.995 150.044 255.295 171.044 252.295 182.544C249.295 196.544 233.128 219.877 224.795 230.044C236.795 243.244 240.795 293.877 241.295 317.544H98.7947C93.1947 295.544 100.795 261.044 105.295 246.544C97.2947 244.944 79.9613 234.544 72.2947 229.544C55 217.501 40.4614 194.711 35.7947 183.544C29.3947 159.944 43.4614 141.377 51.2947 135.044L43.7947 130.044C49.4614 114.211 66.0947 82.2439 87.2947 81.0439C97.2947 70.6439 116.999 63.5004 140.999 62.0004C138.199 50.4004 143.961 43.0439 146.295 42.0439C151.495 39.6439 157.461 46.3773 159.795 50.0439C156.595 38.8439 163.128 34.3773 166.795 33.5439Z" fill="#F5C254"/>
<path d="M140.999 62.0004C138.199 50.4004 143.961 43.0439 146.295 42.0439C151.495 39.6439 157.461 46.3773 159.795 50.0439C156.595 38.8439 163.128 34.3773 166.795 33.5439C181.595 36.3439 192.295 56.0439 195.795 65.5439C195.795 66.5439 196.095 68.5439 197.295 68.5439M140.999 62.0004C116.999 63.5004 97.2947 70.6439 87.2947 81.0439M140.999 62.0004C152.431 62.3483 181.131 62.1788 197.295 68.5439M87.2947 81.0439L76.2947 125.044C69.7947 126.377 55.6947 130.244 51.2947 135.044M87.2947 81.0439C66.0947 82.2439 49.4614 114.211 43.7947 130.044L51.2947 135.044M51.2947 135.044C43.4614 141.377 29.3947 159.944 35.7947 183.544C40.4614 194.711 55 217.501 72.2947 229.544C79.9613 234.544 97.2947 244.944 105.295 246.544M105.295 246.544C100.795 261.044 93.1947 295.544 98.7947 317.544H241.295C240.795 293.877 236.795 243.244 224.795 230.044M105.295 246.544C164.095 262.544 209.461 242.211 224.795 230.044M224.795 230.044C233.128 219.877 249.295 196.544 252.295 182.544C255.295 171.044 255.995 150.044 254.795 146.044M254.795 146.044C246.795 145.377 229.395 137.544 223.795 111.544C225.795 122.044 234.795 143.644 254.795 146.044ZM254.795 146.044C264.128 145.211 285.195 140.344 294.795 127.544C289.795 118.044 277.295 98.1439 267.295 94.5439C263.128 91.3773 250.895 85.3439 235.295 86.5439C232.461 83.5439 223.895 76.6439 212.295 73.0439C207.795 71.5439 198.495 68.5439 197.295 68.5439" stroke="#2D293E" stroke-width="2.8"/>
<path d="M275.795 123.044C262.995 105.844 243.795 102.21 235.795 102.544C233.795 113.744 242.962 122.21 247.795 125.044C262.195 132.244 272.462 126.71 275.795 123.044Z" fill="#FFECCB"/>
<path d="M61.7949 122.544C62.9949 116.144 73.9616 106.877 79.2949 103.044L74.2949 123.044L67.2949 125.044L61.7949 122.544Z" fill="#FFECCB"/>
<path d="M126.295 315.544C123.895 312.344 126.295 272.877 127.795 253.544C141.395 257.144 169.128 253.044 181.295 250.544C183.295 252.144 184.128 294.544 184.295 315.544H126.295Z" fill="#FFECCB"/>
<path d="M275.795 123.044C262.995 105.844 243.795 102.21 235.795 102.544C233.795 113.744 242.962 122.21 247.795 125.044C262.195 132.244 272.462 126.71 275.795 123.044Z" stroke="#FFECCB"/>
<path d="M61.7949 122.544C62.9949 116.144 73.9616 106.877 79.2949 103.044L74.2949 123.044L67.2949 125.044L61.7949 122.544Z" stroke="#FFECCB"/>
<path d="M126.295 315.544C123.895 312.344 126.295 272.877 127.795 253.544C141.395 257.144 169.128 253.044 181.295 250.544C183.295 252.144 184.128 294.544 184.295 315.544H126.295Z" stroke="#FFECCB"/>
<path d="M78.2955 125.044H83.2954C83.6954 128.244 86.4621 131.044 87.7955 132.044C82.9621 134.877 73.7954 140.044 72.7955 140.544C72.4377 140.723 63.9621 147.877 59.7955 151.544C57.7955 152.744 52.2955 159.711 49.7955 163.044C48.1955 164.244 41.9621 179.711 39.2954 187.044C34.2954 178.544 35.7955 169.044 36.7954 163.544C37.2474 161.057 39.1954 154.544 40.7954 151.544C44.7955 144.044 48.7955 139.544 52.7955 136.044C58.2955 131.544 71.1288 127.544 77.2955 126.544L78.2955 125.044Z" fill="#62A9F0"/>
<path d="M179.295 145.544C187.695 143.944 190.462 137.877 190.795 135.044C204.395 133.444 220.795 139.377 227.295 142.544C233.695 144.144 247.629 154.711 253.295 159.544C252.295 178.544 249.795 190.044 240.795 203.544C240.395 197.544 233.295 186.711 230.295 180.544C226.295 172.544 219.962 165.877 217.295 163.544C213.695 158.344 203.795 153.044 199.295 151.044C195.295 148.244 184.295 146.211 179.295 145.544Z" fill="#62A9F0"/>
<path d="M78.2955 125.044H83.2954C83.6954 128.244 86.4621 131.044 87.7955 132.044C82.9621 134.877 73.7954 140.044 72.7955 140.544C72.4377 140.723 63.9621 147.877 59.7955 151.544C57.7955 152.744 52.2955 159.711 49.7955 163.044C48.1955 164.244 41.9621 179.711 39.2954 187.044C34.2954 178.544 35.7955 169.044 36.7954 163.544C37.2474 161.057 39.1954 154.544 40.7954 151.544C44.7955 144.044 48.7955 139.544 52.7955 136.044C58.2955 131.544 71.1288 127.544 77.2955 126.544L78.2955 125.044Z" stroke="#62A9F0"/>
<path d="M179.295 145.544C187.695 143.944 190.462 137.877 190.795 135.044C204.395 133.444 220.795 139.377 227.295 142.544C233.695 144.144 247.629 154.711 253.295 159.544C252.295 178.544 249.795 190.044 240.795 203.544C240.395 197.544 233.295 186.711 230.295 180.544C226.295 172.544 219.962 165.877 217.295 163.544C213.695 158.344 203.795 153.044 199.295 151.044C195.295 148.244 184.295 146.211 179.295 145.544Z" stroke="#62A9F0"/>
<path d="M126.296 173.044C123.096 173.044 117.63 177.377 115.296 179.544C113.696 179.544 113.63 178.211 113.796 177.544C118.596 172.744 124.13 170.544 126.296 170.044C129.496 168.844 136.963 169.877 140.296 170.544C142.696 171.744 141.296 173.377 140.296 174.044C135.096 172.444 128.796 172.711 126.296 173.044Z" fill="#2D293E"/>
<path d="M83.7963 124.044C82.5963 116.844 88.6296 110.377 91.7963 108.044L99.2964 111.544C100.496 112.344 104.463 111.877 106.296 111.544C109.496 114.344 109.963 121.044 109.796 124.044C108.196 133.244 99.7964 134.877 95.7964 134.544C86.9964 132.944 84.1296 126.877 83.7963 124.044Z" fill="#2D293E"/>
<path d="M160.796 130.544C161.196 121.344 166.963 116.711 169.796 115.544L177.296 118.044H185.796C189.796 121.244 190.796 127.711 190.796 130.544C191.596 142.544 179.796 145.544 173.796 145.544C163.396 145.544 160.796 135.544 160.796 130.544Z" fill="#2D293E"/>
<path d="M126.296 173.044C123.096 173.044 117.63 177.377 115.296 179.544C113.696 179.544 113.63 178.211 113.796 177.544C118.596 172.744 124.13 170.544 126.296 170.044C129.496 168.844 136.963 169.877 140.296 170.544C142.696 171.744 141.296 173.377 140.296 174.044C135.096 172.444 128.796 172.711 126.296 173.044Z" stroke="#2D293E"/>
<path d="M83.7963 124.044C82.5963 116.844 88.6296 110.377 91.7963 108.044L99.2964 111.544C100.496 112.344 104.463 111.877 106.296 111.544C109.496 114.344 109.963 121.044 109.796 124.044C108.196 133.244 99.7964 134.877 95.7964 134.544C86.9964 132.944 84.1296 126.877 83.7963 124.044Z" stroke="#2D293E"/>
<path d="M160.796 130.544C161.196 121.344 166.963 116.711 169.796 115.544L177.296 118.044H185.796C189.796 121.244 190.796 127.711 190.796 130.544C191.596 142.544 179.796 145.544 173.796 145.544C163.396 145.544 160.796 135.544 160.796 130.544Z" stroke="#2D293E"/>
<path d="M314.795 44.0435L254.295 87.0435C251.495 85.8435 240.295 84.3769 236.295 84.0435L224.295 76.5435L266.795 52.5435C265.195 49.7435 263.795 38.0435 263.295 32.5435C262.495 24.5435 267.962 22.5435 270.795 22.5435C271.995 22.5435 278.629 32.5435 281.795 37.5435C283.395 39.9435 286.129 38.5435 287.295 37.5435C288.495 37.5435 284.129 23.2102 281.795 16.0435C280.195 8.44352 286.462 6.54352 289.795 6.54352C294.595 8.14352 297.129 17.5435 297.795 22.0435C298.595 25.2435 301.462 27.7102 302.795 28.5435C305.995 27.7435 307.795 18.5435 308.295 14.0435C313.895 6.84353 319.295 7.37686 321.295 8.54353C335.695 16.1435 322.962 35.3769 314.795 44.0435Z" fill="#B55D47"/>
<path d="M61.7953 49.5435L98.2953 72.5435C96.6953 72.1435 89.2954 77.7102 85.7954 80.5435C84.9954 80.1435 77.7954 83.3769 74.2954 85.0435L21.2954 44.5435L10.2955 33.5435C1.89545 22.3435 1.46206 14.2102 2.29536 11.5435C1.09536 3.14352 9.79536 1.71019 14.2954 2.04352C19.4954 2.04352 22.1287 11.0435 22.7954 15.5435C22.7954 19.5435 25.1287 23.2102 26.2954 24.5435C29.0954 24.5435 32.462 15.2102 33.7954 10.5435C35.3954 4.54352 39.7953 2.37685 41.7953 2.04352C46.5953 3.64352 47.7953 7.04352 47.7954 8.54352C48.9954 11.3435 44.2953 22.0435 41.7953 27.0435C40.5953 29.0435 41.962 32.2102 42.7953 33.5435C47.1953 35.5435 51.6287 28.3769 53.2953 24.5435C57.6953 16.5435 62.462 19.2102 64.2953 21.5435C67.8953 27.9435 64.1287 42.8769 61.7953 49.5435Z" fill="#B55D47"/>
<path d="M314.795 44.0435L254.295 87.0435C251.495 85.8435 240.295 84.3769 236.295 84.0435L224.295 76.5435L266.795 52.5435C265.195 49.7435 263.795 38.0435 263.295 32.5435C262.495 24.5435 267.962 22.5435 270.795 22.5435C271.995 22.5435 278.629 32.5435 281.795 37.5435C283.395 39.9435 286.129 38.5435 287.295 37.5435C288.495 37.5435 284.129 23.2102 281.795 16.0435C280.195 8.44352 286.462 6.54352 289.795 6.54352C294.595 8.14352 297.129 17.5435 297.795 22.0435C298.595 25.2435 301.462 27.7102 302.795 28.5435C305.995 27.7435 307.795 18.5435 308.295 14.0435C313.895 6.84353 319.295 7.37686 321.295 8.54353C335.695 16.1435 322.962 35.3769 314.795 44.0435Z" stroke="#2D293E" stroke-width="2.8"/>
<path d="M61.7953 49.5435L98.2953 72.5435C96.6953 72.1435 89.2954 77.7102 85.7954 80.5435C84.9954 80.1435 77.7954 83.3769 74.2954 85.0435L21.2954 44.5435L10.2955 33.5435C1.89545 22.3435 1.46206 14.2102 2.29536 11.5435C1.09536 3.14352 9.79536 1.71019 14.2954 2.04352C19.4954 2.04352 22.1287 11.0435 22.7954 15.5435C22.7954 19.5435 25.1287 23.2102 26.2954 24.5435C29.0954 24.5435 32.462 15.2102 33.7954 10.5435C35.3954 4.54352 39.7953 2.37685 41.7953 2.04352C46.5953 3.64352 47.7953 7.04352 47.7954 8.54352C48.9954 11.3435 44.2953 22.0435 41.7953 27.0435C40.5953 29.0435 41.962 32.2102 42.7953 33.5435C47.1953 35.5435 51.6287 28.3769 53.2953 24.5435C57.6953 16.5435 62.462 19.2102 64.2953 21.5435C67.8953 27.9435 64.1287 42.8769 61.7953 49.5435Z" stroke="#2D293E" stroke-width="2.8"/>
<path d="M182.795 159.543C187.995 156.343 194.628 158.21 197.295 159.543C206.095 166.743 202.962 171.877 200.295 173.543C195.895 177.143 187.795 176.043 184.295 175.043C176.695 168.643 180.128 162.043 182.795 159.543Z" fill="#FF3E6A" stroke="#FF3E6A"/>
<path d="M116.295 144.043C107.895 138.843 89.4618 141.876 81.2952 144.043C76.0952 156.043 90.4618 161.71 98.2952 163.043C117.095 157.443 118.128 148.043 116.295 144.043Z" fill="#862D43" stroke="#862D43"/>
<path d="M197.796 106.544C177.796 112.544 166.129 104.044 162.796 99.0437C155.596 97.8437 156.129 103.544 157.296 106.544C159.696 110.944 170.296 115.377 175.296 117.044C178.896 118.644 192.463 117.044 198.796 116.044C207.196 111.244 201.629 107.71 197.796 106.544Z" fill="#872E34"/>
<path d="M114.796 99.0437C101.196 105.844 93.1293 99.5437 90.796 95.5437C90.3961 94.9304 88.296 95.2882 87.2959 95.5437C86.0959 95.5437 85.1293 98.5437 84.796 100.044C83.596 103.644 93.6293 108.877 98.796 111.044C105.196 112.644 113.129 109.377 116.296 107.544C122.296 102.344 117.796 99.7104 114.796 99.0437Z" fill="#872E34"/>
<path d="M197.796 106.544C177.796 112.544 166.129 104.044 162.796 99.0437C155.596 97.8437 156.129 103.544 157.296 106.544C159.696 110.944 170.296 115.377 175.296 117.044C178.896 118.644 192.463 117.044 198.796 116.044C207.196 111.244 201.629 107.71 197.796 106.544Z" stroke="#872E34"/>
<path d="M114.796 99.0437C101.196 105.844 93.1293 99.5437 90.796 95.5437C90.3961 94.9304 88.296 95.2882 87.2959 95.5437C86.0959 95.5437 85.1293 98.5437 84.796 100.044C83.596 103.644 93.6293 108.877 98.796 111.044C105.196 112.644 113.129 109.377 116.296 107.544C122.296 102.344 117.796 99.7104 114.796 99.0437Z" stroke="#872E34"/>
<path d="M166.798 123.044C166.333 124.891 169.798 127.544 171.798 127.544C174.798 127.544 176.132 123.877 176.298 123.044C176.698 120.244 173.465 118.877 171.798 118.544C168.998 117.744 167.298 121.044 166.798 123.044Z" fill="white" stroke="white"/>
<path d="M89.3374 115.667C88.8722 117.514 92.3373 120.167 94.3374 120.167C97.3373 120.167 98.6707 116.5 98.8373 115.667C99.2373 112.867 96.004 111.5 94.3374 111.167C91.5375 110.367 89.8373 113.667 89.3374 115.667Z" fill="white" stroke="white"/>
<path d="M158.904 91.0119C166.596 91.4642 161.387 75.9051 158.267 76.4552C158.205 76.4935 158.144 76.533 158.084 76.5734C153.796 76.6324 156.305 90.859 158.904 91.0119Z" fill="#FF7C00"/>
<path d="M149.217 72.5502C145.473 73.2103 143.196 85.8359 147.982 87.4369C151.31 88.0724 155.56 72.0429 149.217 72.5502Z" fill="#FF7C00"/>
<path d="M140.795 75.8687C136.219 75.4531 129.885 86.9605 134.256 89.8572C138.313 90.9754 145.581 77.4696 140.795 75.8687Z" fill="#FF7C00"/>
<path d="M158.904 91.0119C166.596 91.4642 161.387 75.9051 158.267 76.4552C158.205 76.4935 158.144 76.533 158.084 76.5734C153.796 76.6324 156.305 90.859 158.904 91.0119Z" stroke="#FF7C00"/>
<path d="M149.217 72.5502C145.473 73.2103 143.196 85.8359 147.982 87.4369C151.31 88.0724 155.56 72.0429 149.217 72.5502Z" stroke="#FF7C00"/>
<path d="M140.795 75.8687C136.219 75.4531 129.885 86.9605 134.256 89.8572C138.313 90.9754 145.581 77.4696 140.795 75.8687Z" stroke="#FF7C00"/>
</svg>
