<svg width="245" height="275" viewBox="0 0 245 275" fill="none" xmlns="http://www.w3.org/2000/svg">
<path d="M220.232 90.7313C224.222 134.693 193.82 132.626 178.12 126.097L189.202 130.994C189.202 188.014 167.777 209.523 157.064 213.15C155.588 213.509 154.11 213.842 152.631 214.15V220.224L192.527 208.254C202.279 209.995 201.023 222.4 199.176 228.385C196.073 233.608 167.548 246.018 154.249 251.459C154.685 261.294 153.532 269.043 152.631 272.456L46.7963 273C45.3475 265.887 46.6609 253.582 48.415 243.075L4.68409 216.959C-2.51947 203.901 6.53111 196.828 11.3334 195.196L52.0351 211.518L52.3373 204.989C-4.40341 153.627 32.02 128.817 57.3242 122.832C57.7675 121.526 66.3747 101.976 70.6228 92.3635C106.529 73.6469 154.164 91.8194 173.493 103.245C186.64 88.1343 209.343 88.3374 220.232 90.7313Z" fill="#F5C254"/>
<path d="M132.683 65.1591C143.322 65.1591 150.045 83.2954 152.077 92.3635C130.799 84.5287 117.353 83.2954 113.289 83.658V82.0258C115.062 61.5682 122.894 70.2373 126.588 77.129C126.145 68.8589 130.467 65.7032 132.683 65.1591Z" fill="#F5C254"/>
<path d="M62.3113 52.1011C84.0324 58.1948 93.5566 76.0555 95.5883 84.0354C91.5987 83.3908 76.6995 88.7214 69.6808 91.529L65.865 100.6C41.9275 85.8011 53.4456 61.8946 62.3113 52.1011Z" fill="#F5C254"/>
<path d="M173.493 103.245C186.64 88.1343 209.343 88.3374 220.232 90.7313C224.222 134.693 193.82 132.626 178.12 126.097L189.202 130.994C189.202 188.014 167.777 209.523 157.064 213.15C155.588 213.509 154.11 213.842 152.631 214.15M173.493 103.245C171.699 105.307 170.084 107.653 168.7 110.318L173.493 103.245ZM173.493 103.245C154.164 91.8194 106.529 73.6469 70.6228 92.3635C66.3747 101.976 57.7675 121.526 57.3242 122.832C32.02 128.817 -4.40341 153.627 52.3373 204.989M52.3373 204.989C68.7467 211.82 111.027 222.81 152.631 214.15M52.3373 204.989L52.0351 211.518M152.631 214.15V220.224M154.249 251.459C167.548 246.018 196.073 233.608 199.176 228.385C201.023 222.4 202.279 209.995 192.527 208.254L152.631 220.224M152.631 220.224V237.634C155.734 253.739 153.924 267.559 152.631 272.456L46.7963 273C45.3475 265.887 46.6609 253.582 48.415 243.075M52.0351 211.518L51.2292 228.929C50.3976 232.446 49.3444 237.508 48.415 243.075M52.0351 211.518L11.3334 195.196C6.53111 196.828 -2.51947 203.901 4.68409 216.959L48.415 243.075M152.077 92.3635C150.045 83.2954 143.322 65.1591 132.683 65.1591C130.467 65.7032 126.145 68.8589 126.588 77.129C122.894 70.2373 115.062 61.5682 113.289 82.0258V83.658C117.353 83.2954 130.799 84.5287 152.077 92.3635ZM95.5883 84.0354C93.5566 76.0555 84.0324 58.1948 62.3113 52.1011C53.4456 61.8946 41.9275 85.8011 65.865 100.6L69.6808 91.529C76.6995 88.7214 91.5987 83.3908 95.5883 84.0354Z" stroke="#2E2B36" stroke-width="2.8"/>
<path d="M143.765 114.671C154.847 121.636 153.554 125.916 151.523 127.185C149.306 128.926 146.905 126.46 145.982 125.009C143.765 121.962 140.256 120.112 138.778 119.568C136.562 118.262 131.944 119.024 129.912 119.568C124.15 117.392 126.403 114.308 128.25 113.039C134.456 111.298 141.179 113.402 143.765 114.671Z" stroke="white"/>
<path d="M82.2592 98.3486C92.4548 100.09 92.0484 104.878 90.5708 107.054C89.6843 108.36 87.2461 108.251 86.6919 107.598C84.4755 104.986 80.9662 104.696 79.4885 104.878C78.602 104.878 75.7945 105.966 74.5016 106.51C69.1822 107.816 68.9606 104.515 69.5147 102.701C72.1744 98.3486 79.1192 97.9859 82.2592 98.3486Z" stroke="white"/>
<path d="M143.765 114.671C154.847 121.636 153.554 125.916 151.523 127.185C149.306 128.926 146.905 126.46 145.982 125.009C143.765 121.962 140.256 120.112 138.778 119.568C136.562 118.262 131.944 119.024 129.912 119.568C124.15 117.392 126.403 114.308 128.25 113.039C134.456 111.298 141.179 113.402 143.765 114.671Z" fill="#872E34"/>
<path d="M82.2592 98.3486C92.4548 100.09 92.0484 104.878 90.5708 107.054C89.6843 108.36 87.2461 108.251 86.6919 107.598C84.4755 104.986 80.9662 104.696 79.4885 104.878C78.602 104.878 75.7945 105.966 74.5016 106.51C69.1822 107.816 68.9606 104.515 69.5147 102.701C72.1744 98.3486 79.1192 97.9859 82.2592 98.3486Z" fill="#872E34"/>
<path d="M143.765 114.671C154.847 121.636 153.554 125.916 151.523 127.185C149.306 128.926 146.905 126.46 145.982 125.009C143.765 121.962 140.256 120.112 138.778 119.568C136.562 118.262 131.944 119.024 129.912 119.568C124.15 117.392 126.403 114.308 128.25 113.039C134.456 111.298 141.179 113.402 143.765 114.671Z" stroke="#872E34"/>
<path d="M82.2592 98.3486C92.4548 100.09 92.0484 104.878 90.5708 107.054C89.6843 108.36 87.2461 108.251 86.6919 107.598C84.4755 104.986 80.9662 104.696 79.4885 104.878C78.602 104.878 75.7945 105.966 74.5016 106.51C69.1822 107.816 68.9606 104.515 69.5147 102.701C72.1744 98.3486 79.1192 97.9859 82.2592 98.3486Z" stroke="#872E34"/>
<path d="M116.06 160.374C115.959 161.757 116.625 163.957 119.043 165.815M119.043 165.815C121.065 167.369 124.311 168.683 129.358 169.08C126.914 168.898 121.429 167.991 119.043 165.815ZM119.043 165.815C109.183 171.437 83.5889 178.111 60.0947 159.83C69.1022 167.447 93.5022 179.308 119.043 165.815Z" stroke="white" stroke-width="2"/>
<path d="M116.06 160.374C115.959 161.757 116.625 163.957 119.043 165.815M119.043 165.815C121.065 167.369 124.311 168.683 129.358 169.08C126.914 168.898 121.429 167.991 119.043 165.815ZM119.043 165.815C109.183 171.437 83.5889 178.111 60.0947 159.83C69.1022 167.447 93.5022 179.308 119.043 165.815Z" stroke="#2D293E" stroke-width="2"/>
<path d="M123.262 108.142C129.819 109.752 127.695 95.084 124.924 95.084C124.865 95.1084 124.806 95.1339 124.748 95.1605C121.046 94.5399 121.046 107.598 123.262 108.142Z" stroke="white"/>
<path d="M117.722 90.1873C114.397 90.1873 110.518 101.069 114.397 103.245C117.167 104.333 123.263 90.7313 117.722 90.1873Z" stroke="white"/>
<path d="M109.964 91.8195C106.086 90.7313 98.882 99.9808 102.207 103.245C105.531 104.878 113.843 93.9959 109.964 91.8195Z" stroke="white"/>
<path d="M123.262 108.142C129.819 109.752 127.695 95.084 124.924 95.084C124.865 95.1084 124.806 95.1339 124.748 95.1605C121.046 94.5399 121.046 107.598 123.262 108.142Z" fill="#FF7C00"/>
<path d="M117.722 90.1873C114.397 90.1873 110.518 101.069 114.397 103.245C117.167 104.333 123.263 90.7313 117.722 90.1873Z" fill="#FF7C00"/>
<path d="M109.964 91.8195C106.086 90.7313 98.882 99.9808 102.207 103.245C105.531 104.878 113.843 93.9959 109.964 91.8195Z" fill="#FF7C00"/>
<path d="M123.262 108.142C129.819 109.752 127.695 95.084 124.924 95.084C124.865 95.1084 124.806 95.1339 124.748 95.1605C121.046 94.5399 121.046 107.598 123.262 108.142Z" stroke="#FF7C00"/>
<path d="M117.722 90.1873C114.397 90.1873 110.518 101.069 114.397 103.245C117.167 104.333 123.263 90.7313 117.722 90.1873Z" stroke="#FF7C00"/>
<path d="M109.964 91.8195C106.086 90.7313 98.882 99.9808 102.207 103.245C105.531 104.878 113.843 93.9959 109.964 91.8195Z" stroke="#FF7C00"/>
<path d="M24.0778 201.725L17.4285 222.944L5.79221 215.327C0.0294816 205.751 7.08513 199.004 11.3333 196.828L24.0778 201.725Z" stroke="white"/>
<path d="M197.514 228.385L184.769 236.002L179.782 213.695L192.527 209.886C199.619 212.062 198.807 223.125 197.514 228.385Z" stroke="white"/>
<path d="M61.7572 133.714C72.396 130.232 79.3039 137.16 83.3674 141.331C85.1405 149.601 75.6099 149.674 68.9606 149.493C54.7754 141.658 58.4325 136.435 61.7572 133.714Z" stroke="white"/>
<path d="M24.6942 201.37L17.2634 223.851L5.41433 216.554C-0.811639 206.3 5.01252 198.018 11.2385 196.046L24.6942 201.37Z" fill="#862D43"/>
<path d="M192.591 208.864C202.432 211.427 199.909 223.324 198.616 228.584L192.591 232.725L184.959 237.261L179.135 213.005L192.591 208.864Z" fill="#862D43"/>
<path d="M61.7574 133.714C72.3963 130.232 79.3042 137.16 83.3676 141.331C85.1408 149.601 75.6101 149.674 68.9608 149.493C54.7757 141.658 58.4328 136.434 61.7574 133.714Z" fill="#862D43"/>
<path d="M24.6942 201.37L17.2634 223.851L5.41433 216.554C-0.811639 206.3 5.01252 198.018 11.2385 196.046L24.6942 201.37Z" stroke="#862D43"/>
<path d="M192.591 208.864C202.432 211.427 199.909 223.324 198.616 228.584L192.591 232.725L184.959 237.261L179.135 213.005L192.591 208.864Z" stroke="#862D43"/>
<path d="M61.7574 133.714C72.3963 130.232 79.3042 137.16 83.3676 141.331C85.1408 149.601 75.6101 149.674 68.9608 149.493C54.7757 141.658 58.4328 136.434 61.7574 133.714Z" stroke="#862D43"/>
<path d="M89.3625 217.09C85.5673 216.501 86.723 251.6 88.9322 270.334H131.107C134.653 268.593 133.402 219.11 132.398 219.203C121.754 220.189 100.81 218.865 89.3625 217.09Z" fill="#FFECCB"/>
<path d="M66.744 65.7034C60.9813 72.6677 66.548 83.5494 70.4268 88.6275L83.3375 83.9792C80.6777 74.8386 71.1769 68.4238 66.744 65.7034Z" fill="#FFECCB"/>
<path d="M178.12 115.759C185.323 109.23 201.503 97.0427 208.596 100.525C207.857 109.412 200.727 124.9 178.12 115.759Z" fill="#FFECCB"/>
<path d="M89.3625 217.09C85.5673 216.501 86.723 251.6 88.9322 270.334H131.107C134.653 268.593 133.402 219.11 132.398 219.203C121.754 220.189 100.81 218.865 89.3625 217.09Z" stroke="#FFECCB" stroke-width="3"/>
<path d="M66.744 65.7034C60.9813 72.6677 66.548 83.5494 70.4268 88.6275L83.3375 83.9792C80.6777 74.8386 71.1769 68.4238 66.744 65.7034Z" stroke="#FFECCB" stroke-width="3"/>
<path d="M178.12 115.759C185.323 109.23 201.503 97.0427 208.596 100.525C207.857 109.412 200.727 124.9 178.12 115.759Z" stroke="#FFECCB" stroke-width="3"/>
<path d="M237.964 43.9393C256.249 57.5414 220.047 81.6625 204.163 88.5543C187.761 90.7305 176.642 98.1665 173.133 101.612L158.726 93.9953L196.96 75.4963C192.527 59.8266 196.221 54.4584 198.622 53.7329C204.717 51.5566 205.271 66.2468 211.366 65.7028C214.137 66.2468 210.997 55.5466 209.15 49.9244C206.934 43.8306 210.812 41.9444 213.029 41.7631C218.016 41.3549 220.232 53.1888 224.111 59.7177C226.881 61.8942 228.544 41.7631 237.964 43.9393Z" stroke="white" stroke-width="3"/>
<path d="M85.5838 50.4684L104.978 82.0253H95.0036C92.7871 69.8374 78.1957 59.1739 71.177 55.3657L70.0687 53.7334L57.8784 26.5292C54.3321 5.63627 62.6807 1.50122 67.2983 2.04531C76.7181 2.58939 70.0688 16.1915 71.177 22.7203C72.2853 24.8969 82.2592 9.66251 90.0169 14.559C97.2201 20.0002 76.7185 28.1611 78.9345 34.1458C81.1512 36.8663 92.7875 27.6171 96.666 30.8813C99.769 35.6692 90.5708 45.9343 85.5838 50.4684Z" stroke="white" stroke-width="3"/>
<path d="M237.964 43.9393C256.249 57.5414 220.047 81.6625 204.163 88.5543C187.761 90.7305 176.619 98.5348 173.11 101.981L157.847 94.29L196.96 75.4963C192.527 59.8266 196.221 54.4584 198.622 53.7329C204.717 51.5566 205.271 66.2468 211.366 65.7028C214.137 66.2468 210.997 55.5466 209.15 49.9244C206.934 43.8306 210.812 41.9444 213.029 41.7631C218.016 41.3549 220.232 53.1888 224.111 59.7178C226.881 61.8942 228.544 41.7631 237.964 43.9393Z" fill="#B55D47"/>
<path d="M85.5838 50.4684L106.032 83.2467L95.1866 84.2327V83.4439C92.9702 71.2559 78.1957 59.1739 71.177 55.3657L70.0687 53.7335L57.8784 26.5292C54.3321 5.63627 62.6807 1.50122 67.2983 2.04531C76.7181 2.58939 70.0688 16.1915 71.177 22.7203C72.2853 24.8969 82.2592 9.66251 90.0169 14.559C97.2201 20.0002 76.7185 28.1611 78.9345 34.1458C81.1512 36.8663 92.7875 27.6171 96.666 30.8813C99.769 35.6692 90.5708 45.9343 85.5838 50.4684Z" fill="#B55D47"/>
<path d="M237.964 43.9393C256.249 57.5414 220.047 81.6625 204.163 88.5543C187.761 90.7305 176.619 98.5348 173.11 101.981L157.847 94.29L196.96 75.4963C192.527 59.8266 196.221 54.4584 198.622 53.7329C204.717 51.5566 205.271 66.2468 211.366 65.7028C214.137 66.2468 210.997 55.5466 209.15 49.9244C206.934 43.8306 210.812 41.9444 213.029 41.7631C218.016 41.3549 220.232 53.1888 224.111 59.7178C226.881 61.8942 228.544 41.7631 237.964 43.9393Z" stroke="#2E2B36" stroke-width="3"/>
<path d="M85.5838 50.4684L106.032 83.2467L95.1866 84.2327V83.4439C92.9702 71.2559 78.1957 59.1739 71.177 55.3657L70.0687 53.7335L57.8784 26.5292C54.3321 5.63627 62.6807 1.50122 67.2983 2.04531C76.7181 2.58939 70.0688 16.1915 71.177 22.7203C72.2853 24.8969 82.2592 9.66251 90.0169 14.559C97.2201 20.0002 76.7185 28.1611 78.9345 34.1458C81.1512 36.8663 92.7875 27.6171 96.666 30.8813C99.769 35.6692 90.5708 45.9343 85.5838 50.4684Z" stroke="#2E2B36" stroke-width="3"/>
<path d="M161.497 161.462C162.051 148.404 148.198 146.772 143.765 148.948C133.791 155.477 138.479 163.879 143.211 165.815C156.509 171.256 161.127 165.09 161.497 161.462Z" stroke="white"/>
<path d="M161.497 161.462C162.051 148.404 148.198 146.772 143.765 148.948C133.791 155.477 138.479 163.879 143.211 165.815C156.509 171.256 161.127 165.09 161.497 161.462Z" fill="#FF3E6A" stroke="#FF3E6A"/>
<path d="M120.492 134.258C120.492 132.953 130.097 128.999 134.899 127.185C137.116 126.75 137.3 128.817 137.116 129.906L126.033 134.802L134.899 141.876C135.786 144.052 133.791 144.596 132.683 144.596C128.693 141.984 122.893 136.616 120.492 134.258Z" stroke="white" stroke-width="0.5"/>
<path d="M71.1767 113.583C68.517 112.277 67.8521 114.127 67.8521 115.215L72.8391 121.744L65.6357 122.832C63.8625 124.138 64.8969 125.916 65.6357 126.641L77.2719 125.009C78.1585 125.009 78.3801 123.558 78.3801 122.832L71.1767 113.583Z" stroke="white" stroke-width="0.5"/>
<path d="M120.492 134.258C120.492 132.953 130.097 128.999 134.899 127.185C137.116 126.75 137.3 128.817 137.116 129.906L126.033 134.802L134.899 141.876C135.786 144.052 133.791 144.596 132.683 144.596C128.693 141.984 122.893 136.616 120.492 134.258Z" fill="#2D293E"/>
<path d="M71.1767 113.583C68.517 112.277 67.8521 114.127 67.8521 115.215L72.8391 121.744L65.6357 122.832C63.8625 124.138 64.8969 125.916 65.6357 126.641L77.2719 125.009C78.1585 125.009 78.3801 123.558 78.3801 122.832L71.1767 113.583Z" fill="#2D293E"/>
<path d="M120.492 134.258C120.492 132.953 130.097 128.999 134.899 127.185C137.116 126.75 137.3 128.817 137.116 129.906L126.033 134.802L134.899 141.876C135.786 144.052 133.791 144.596 132.683 144.596C128.693 141.984 122.893 136.616 120.492 134.258Z" stroke="#2D293E" stroke-width="0.5"/>
<path d="M71.1767 113.583C68.517 112.277 67.8521 114.127 67.8521 115.215L72.8391 121.744L65.6357 122.832C63.8625 124.138 64.8969 125.916 65.6357 126.641L77.2719 125.009C78.1585 125.009 78.3801 123.558 78.3801 122.832L71.1767 113.583Z" stroke="#2D293E" stroke-width="0.5"/>
</svg>
