<svg width="102" height="165" viewBox="0 0 102 165" fill="none" xmlns="http://www.w3.org/2000/svg">
<path d="M43.6936 40.1662C41.1387 41.5109 41.7326 45.8811 42.3489 47.8981C40.6009 47.4947 33.1042 49.2988 29.5744 50.2513C22.851 39.3594 10.7489 37.3088 5.53829 37.6449C-0.378296 57.5462 11.5893 62.2647 18.3127 62.1363L15.1191 73.447C9.60595 74.2538 7.3312 77.0328 5.87447 78.4896C1.70596 81.9857 1.05603 87.6222 1 90.2555C1 98.3236 4.24964 103.646 5.87447 105.719C8.69829 110.56 19.6574 115.614 20.4978 115.804L17.1362 130.596C14.951 138.496 15.2872 146.284 15.9596 150.598H18.176L17.8085 157.489C20.2289 163.675 25.5404 163.204 27.8936 162.196C28.8349 161.792 30.4149 154.296 31.0872 150.598H64.9762L67.2254 162.196C69.9148 164.078 71.8269 163.264 73.2765 162.868C78.8233 161.355 78.4871 154.184 77.6467 150.598H81.3446L80.168 141.017C79.3276 134.462 75.7978 117.99 70.9233 113.451L76.6382 108.913C82.1514 104.207 85.5467 98.6037 86.5552 93.7853C88.3033 89.4823 87.0595 74.7357 86.2191 67.9002C102.893 67.4968 102.131 52.1563 99.6659 44.5364C85.8157 43.7296 77.5347 51.1478 75.1255 54.9577L63.5276 49.9151C60.0314 38.8888 53.8907 36.3563 51.2574 36.4684C48.7025 37.9475 48.7361 41.5669 49.0723 43.1917C47.9966 40.099 45.0383 39.8861 43.6936 40.1662Z" fill="#F5C254"/>
<path d="M42.3489 47.8981C41.7326 45.8811 41.1387 41.5109 43.6936 40.1662C45.0383 39.8861 47.9966 40.099 49.0723 43.1917C48.7361 41.5669 48.7025 37.9475 51.2574 36.4684C53.8907 36.3563 60.0314 38.8888 63.5276 49.9151M42.3489 47.8981C40.6009 47.4947 33.1042 49.2988 29.5744 50.2513M42.3489 47.8981C46.2709 47.7861 55.9974 48.0326 63.5276 49.9151M63.5276 49.9151L75.1255 54.9577M75.1255 54.9577L73.7808 58.1513M75.1255 54.9577C77.5347 51.1478 85.8157 43.7296 99.6659 44.5364C102.131 52.1563 102.893 67.4968 86.2191 67.9002M86.2191 67.9002C84.5382 67.6201 81.0756 67.0262 80.6722 66.8917C80.2688 66.7572 84.202 67.508 86.2191 67.9002ZM86.2191 67.9002C87.0595 74.7357 88.3033 89.4823 86.5552 93.7853C85.5467 98.6037 82.1514 104.207 76.6382 108.913L70.9233 113.451M70.9233 113.451C75.7978 117.99 79.3276 134.462 80.168 141.017L81.3446 150.598H77.6467M70.9233 113.451C43.3574 124.377 33.1042 118.662 20.4978 115.804M77.6467 150.598L75.7978 127.738M77.6467 150.598C78.4871 154.184 78.8233 161.355 73.2765 162.868C71.8269 163.264 69.9148 164.078 67.2254 162.196L64.9762 150.598M61.8467 134.462L64.9762 150.598M64.9762 150.598H31.0872M31.0872 150.598L31.4234 139.336M31.0872 150.598C30.4149 154.296 28.8349 161.792 27.8936 162.196C25.5404 163.204 20.2289 163.675 17.8085 157.489L18.176 150.598M19.1532 132.277L18.176 150.598M18.176 150.598H15.9596C15.2872 146.284 14.951 138.496 17.1362 130.596L20.4978 115.804M20.4978 115.804C19.6574 115.614 8.69829 110.56 5.87446 105.719C4.24964 103.646 0.999998 98.3236 0.999998 90.2555C1.05603 87.6222 1.70596 81.9857 5.87446 78.4896C7.3312 77.0328 9.60595 74.2538 15.1191 73.447L18.3127 62.1363M18.3127 62.1363L19.1532 59.1598C22.3804 53.7811 27.4454 50.9797 29.5744 50.2513M18.3127 62.1363C11.5893 62.2647 -0.378298 57.5462 5.53829 37.6449C10.7489 37.3088 22.851 39.3594 29.5744 50.2513" stroke="#2E2B36" stroke-width="1.5"/>
<path d="M25.877 13.6074L29.743 50.0818C31.7599 49.275 36.9706 48.2889 39.3239 47.8967L37.8111 40.8372L35.7941 29.7436L41.8452 26.2138C45.3413 23.39 44.8707 21.7875 44.1983 21.3393C43.2571 20.1291 39.548 20.9471 37.8111 21.5074C35.2562 22.0453 35.0657 20.3868 35.2898 19.4904L44.0302 14.784C46.1817 11.8257 43.8061 10.75 42.3493 10.5819L35.2898 13.1032C33.9451 13.7755 33.2727 12.823 33.1046 12.2627C40.2314 3.11892 36.2983 0.945018 33.4408 1.00105C27.2553 2.34573 25.821 9.96557 25.877 13.6074Z" fill="#B55D47"/>
<path d="M71.5962 32.7691L64.3685 50.0818C66.9233 51.0231 71.5961 53.0513 73.6132 53.9478L80.0005 33.7776L84.875 15.9606C84.7405 7.89253 80.7849 5.20317 78.8239 4.867C74.9244 5.2704 74.8459 8.50884 75.2941 10.0776C77.9835 15.1874 77.5352 16.4649 76.975 16.4649C75.8992 16.0615 70.8118 13.4954 68.4026 12.2627C65.041 13.6074 66.1055 15.9606 67.058 16.9691L73.6132 21.3393C75.2268 22.8185 73.6132 23.7485 72.6047 24.0287C65.8813 20.8014 64.3125 22.684 64.3685 24.0287C63.9651 26.718 69.0189 30.9762 71.5962 32.7691Z" fill="#B55D47"/>
<path d="M25.877 13.6074L29.743 50.0818C31.7599 49.275 36.9706 48.2889 39.3239 47.8967L37.8111 40.8372L35.7941 29.7436L41.8452 26.2138C45.3413 23.39 44.8707 21.7875 44.1983 21.3393C43.2571 20.1291 39.548 20.9471 37.8111 21.5074C35.2562 22.0453 35.0657 20.3868 35.2898 19.4904L44.0302 14.784C46.1817 11.8257 43.8061 10.75 42.3493 10.5819L35.2898 13.1032C33.9451 13.7755 33.2727 12.823 33.1046 12.2627C40.2314 3.11892 36.2983 0.945018 33.4408 1.00105C27.2553 2.34573 25.821 9.96557 25.877 13.6074Z" stroke="#2E2B36" stroke-width="1.5"/>
<path d="M71.5962 32.7691L64.3685 50.0818C66.9233 51.0231 71.5961 53.0513 73.6132 53.9478L80.0005 33.7776L84.875 15.9606C84.7405 7.89253 80.7849 5.20317 78.8239 4.867C74.9244 5.2704 74.8459 8.50884 75.2941 10.0776C77.9835 15.1874 77.5352 16.4649 76.975 16.4649C75.8992 16.0615 70.8118 13.4954 68.4026 12.2627C65.041 13.6074 66.1055 15.9606 67.058 16.9691L73.6132 21.3393C75.2268 22.8185 73.6132 23.7485 72.6047 24.0287C65.8813 20.8014 64.3125 22.684 64.3685 24.0287C63.9651 26.718 69.0189 30.9762 71.5962 32.7691Z" stroke="#2E2B36" stroke-width="1.5"/>
<path d="M75.9668 92.774C77.3115 86.8574 72.4931 83.4733 69.9158 82.5208C64.2682 80.6382 60.7271 85.3222 59.6626 87.8995C57.6455 93.4127 62.7441 95.7995 65.5455 96.3037C71.8655 97.6484 75.1264 94.5108 75.9668 92.774Z" fill="#FF3E6A" stroke="#FF3E6A"/>
<path d="M23.5401 80.4972C28.9188 81.0351 30.4876 82.9624 30.5997 83.8589C30.8686 87.7585 24.8848 89.1816 21.8592 89.4057C15.9427 87.9266 15.2479 83.5227 15.6401 81.5057C16.9848 79.8921 21.467 80.161 23.5401 80.4972Z" fill="#862D43"/>
<path d="M67 155L76.9992 152C77.4991 157 76.6717 158.828 75.9994 159.5C73.4781 163.03 70.0127 162.509 68.5 161.5C67.9621 161.366 67.4482 157.241 67 155Z" fill="#862D43"/>
<path d="M19.499 151.5L28.999 154.5C28.1586 158.534 27.8912 160.384 27.499 161C22.6582 162.614 20.3437 160.862 18.999 157.5L19.499 151.5Z" fill="#862D43"/>
<path d="M23.5401 80.4972C28.9188 81.0351 30.4876 82.9624 30.5997 83.8589C30.8686 87.7585 24.8848 89.1816 21.8592 89.4057C15.9427 87.9266 15.2479 83.5227 15.6401 81.5057C16.9848 79.8921 21.467 80.161 23.5401 80.4972Z" stroke="#862D43"/>
<path d="M67 155L76.9992 152C77.4991 157 76.6717 158.828 75.9994 159.5C73.4781 163.03 70.0127 162.509 68.5 161.5C67.9621 161.366 67.4482 157.241 67 155Z" stroke="#862D43"/>
<path d="M19.499 151.5L28.999 154.5C28.1586 158.534 27.8912 160.384 27.499 161C22.6582 162.614 20.3437 160.862 18.999 157.5L19.499 151.5Z" stroke="#862D43"/>
<path d="M10.244 44.0312C8.22696 50.8891 14.1099 55.0688 17.3035 56.3014C17.7069 54.0155 20.8333 52.4355 22.3461 51.9312C18.8499 46.1491 12.8213 44.2554 10.244 44.0312Z" fill="#FFECCB"/>
<path d="M79.4949 61.0078C80.7836 58.0383 85.6469 51.7632 94.7907 50.4185C95.1268 55.7412 92.5383 65.3108 79.4949 61.0078Z" fill="#FFECCB"/>
<path d="M58 149.5C58.8068 148.021 57.6723 127.456 57 119.5C49.5 121.5 39.866 121.004 36 120.5C34.9243 122.383 35.3319 142.048 35.5 149.5L58 149.5Z" fill="#FFECCB"/>
<path d="M10.244 44.0312C8.22696 50.8891 14.1099 55.0688 17.3035 56.3014C17.7069 54.0155 20.8333 52.4355 22.3461 51.9312C18.8499 46.1491 12.8213 44.2554 10.244 44.0312Z" stroke="#FFECCB"/>
<path d="M79.4949 61.0078C80.7836 58.0383 85.6469 51.7632 94.7907 50.4185C95.1268 55.7412 92.5383 65.3108 79.4949 61.0078Z" stroke="#FFECCB"/>
<path d="M58 149.5C58.8068 148.021 57.6723 127.456 57 119.5C49.5 121.5 39.866 121.004 36 120.5C34.9243 122.383 35.3319 142.048 35.5 149.5L58 149.5Z" stroke="#FFECCB"/>
<path d="M19.6581 53.613C17.2376 55.2266 17.3049 57.1988 17.641 57.9832C19.1202 59.7313 20.7226 57.9272 21.3389 56.8066C22.5491 55.193 24.7566 55.1257 25.7091 55.2938C27.7261 55.2938 28.4545 54.8456 28.5666 54.6215C29.2389 53.9492 28.7346 52.9967 28.3985 52.6045C24.9023 50.5875 21.1148 52.4364 19.6581 53.613Z" fill="#882B33"/>
<path d="M56.8048 60.1683C54.5189 58.6891 55.8523 57.3109 56.8048 56.8066C58.9563 56.4032 61.3991 57.3109 62.3516 57.8151C63.8308 58.2185 65.3211 59.664 65.8814 60.3364L68.2346 63.8662C69.3103 65.3453 68.5708 66.6115 68.0665 67.0598C65.915 68.1355 64.7048 65.8272 64.3686 64.5385C63.8308 63.4628 62.4637 62.1853 61.8474 61.6811C59.9648 60.6053 57.7013 60.2243 56.8048 60.1683Z" fill="#882B33"/>
<path d="M19.6581 53.613C17.2376 55.2266 17.3049 57.1988 17.641 57.9832C19.1202 59.7313 20.7226 57.9272 21.3389 56.8066C22.5491 55.193 24.7566 55.1257 25.7091 55.2938C27.7261 55.2938 28.4545 54.8456 28.5666 54.6215C29.2389 53.9492 28.7346 52.9967 28.3985 52.6045C24.9023 50.5875 21.1148 52.4364 19.6581 53.613Z" stroke="#882B33"/>
<path d="M56.8048 60.1683C54.5189 58.6891 55.8523 57.3109 56.8048 56.8066C58.9563 56.4032 61.3991 57.3109 62.3516 57.8151C63.8308 58.2185 65.3211 59.664 65.8814 60.3364L68.2346 63.8662C69.3103 65.3453 68.5708 66.6115 68.0665 67.0598C65.915 68.1355 64.7048 65.8272 64.3686 64.5385C63.8308 63.4628 62.4637 62.1853 61.8474 61.6811C59.9648 60.6053 57.7013 60.2243 56.8048 60.1683Z" stroke="#882B33"/>
<path d="M23.3119 68.3277C23.3894 64.8496 26.2841 62.2825 28.3622 61.8347C31.1788 61.284 33.9228 62.993 34.7455 64.1402C35.8989 65.7015 35.8976 69.2965 35.5766 70.6948C34.5162 75.3143 29.1047 75.7765 27.4002 75.3143C23.3119 73.9511 23.2213 69.6858 23.3119 68.3277Z" fill="#2D293E"/>
<path d="M49.5555 75.3143C50.4917 71.0177 53.3731 69.2787 54.6968 68.9463C58.8099 67.9021 60.8914 70.1096 61.418 71.3439C62.8847 73.1544 62.7815 76.2723 62.5465 77.605C61.8977 83.3103 56.5391 83.8203 53.9409 83.3622C49.4373 82.5681 49.1408 77.6661 49.5555 75.3143Z" fill="#2D293E"/>
<path d="M28.3622 61.8347C26.2841 62.2825 23.3894 64.8496 23.3119 68.3277C23.2213 69.6859 23.3119 73.9511 27.4002 75.3143C29.1047 75.7765 34.5162 75.3143 35.5766 70.6948C35.8976 69.2965 35.8989 65.7015 34.7455 64.1402M28.3622 61.8347L31.7142 63.6057C32.1675 64.0736 33.9239 64.157 34.7455 64.1402M28.3622 61.8347C31.1788 61.284 33.9228 62.993 34.7455 64.1402M54.6968 68.9463C53.3731 69.2787 50.4917 71.0177 49.5555 75.3143C49.1408 77.6661 49.4373 82.5681 53.9409 83.3622C56.5391 83.8203 61.8977 83.3103 62.5465 77.605C62.7815 76.2723 62.8847 73.1544 61.418 71.3439M54.6968 68.9463L57.7372 70.6948L61.418 71.3439M54.6968 68.9463C58.8099 67.9021 60.8914 70.1096 61.418 71.3439" stroke="#2D293E"/>
<path d="M51.0832 78.2389C50.8477 74.2967 52.5737 71.8473 53.4661 71.1154C55.8088 69.6298 54.9663 73.4684 54.2521 75.5734C52.4248 79.1132 51.3781 78.8253 51.0832 78.2389Z" fill="white" stroke="white"/>
<path d="M24.9797 70.7467C24.7442 66.8045 26.4702 64.3551 27.3626 63.6232C29.7053 62.1376 28.8627 65.9762 28.1486 68.0812C26.3213 71.621 25.2746 71.3331 24.9797 70.7467Z" fill="white" stroke="white"/>
<path d="M41.1526 93.8273C41.358 90.4387 39.8691 89.2493 39.0989 89.0781C37.0452 89.0781 36.2751 91.9875 36.1468 93.4422C35.9414 96.4201 37.6015 97.678 38.4572 97.9347C40.4082 98.0373 41.0671 95.2392 41.1526 93.8273Z" fill="#2E2B36" stroke="#2E2B36"/>
</svg>
