<svg width="274" height="300" viewBox="0 0 274 300" fill="none" xmlns="http://www.w3.org/2000/svg">
<path d="M152.486 79.4458C162.201 82.6843 164.9 95.6384 165.035 101.711V103.33C169.893 103.978 187.03 114.178 194.991 119.197C197.962 116.149 201.431 113.338 203.492 111.831C218.389 102.763 237.767 105.624 245.593 108.188C246.241 126.971 239.926 138.144 236.687 141.383C229.886 149.155 216.581 149.479 210.779 148.669L209.565 170.934C210.212 184.536 199.849 206.018 194.586 215.059C187.138 229.308 170.702 239.348 163.416 242.586C171.188 261.046 169.623 287.251 167.869 298.046H55.7348V274.724L7.96667 252.302L3.91856 249.063C-1.26308 237.729 5.26794 229.227 9.18115 226.394L63.0215 244.206L69.4986 228.013C66.9078 227.041 57.624 218.162 53.306 213.844C37.7611 198.3 33.3351 175.522 33.0652 166.076C35.3322 147.617 51.8217 138.684 59.783 136.525L72.3323 100.901C61.969 84.0607 73.4118 66.0869 80.4286 59.2051C102.451 65.0344 112.544 85.1132 114.838 94.424H129.006C128.683 84.3846 134.269 81.6048 137.103 81.4699C140.989 82.1176 143.31 87.4072 143.985 89.971C144.632 83.1701 149.922 80.1205 152.486 79.4458Z" fill="#F5C254"/>
<path d="M129.006 94.424C128.683 84.3846 134.269 81.6048 137.103 81.4699C140.989 82.1176 143.31 87.4072 143.985 89.971C144.632 83.1701 149.922 80.1205 152.486 79.4458C162.201 82.6843 164.9 95.6384 165.035 101.711V103.33M129.006 94.424H114.838M129.006 94.424C148.114 95.7194 160.987 100.901 165.035 103.33M114.838 94.424L101.884 96.4481L84.8815 104.14L72.3323 100.901M114.838 94.424C112.544 85.1132 102.451 65.0344 80.4286 59.2051C73.4118 66.0869 61.969 84.0607 72.3323 100.901M72.3323 100.901L59.783 136.525C51.8217 138.684 35.3322 147.617 33.0652 166.076C33.3351 175.522 37.7611 198.3 53.306 213.844C57.624 218.162 66.9078 227.041 69.4986 228.013M69.4986 228.013L63.0215 244.206M69.4986 228.013C99.293 249.387 144.524 246.634 163.416 242.586M63.0215 244.206L69.4986 247.444M63.0215 244.206L9.18115 226.394C5.26794 229.227 -1.26308 237.729 3.91856 249.063L7.96667 252.302L55.7348 274.724M67.4745 280.234L55.7348 274.724M55.7348 274.724V298.046H167.869C169.623 287.251 171.188 261.046 163.416 242.586M163.416 242.586C170.702 239.348 187.138 229.308 194.586 215.059C199.849 206.018 210.212 184.536 209.565 170.934L210.779 148.669M210.779 148.669L201.063 144.216M210.779 148.669C216.581 149.479 229.886 149.155 236.687 141.383C239.926 138.144 246.241 126.971 245.593 108.188C237.767 105.624 218.39 102.763 203.492 111.831C201.431 113.338 197.962 116.149 194.991 119.197M194.991 119.197C192.907 121.336 191.068 123.592 190.133 125.595L194.991 119.197ZM194.991 119.197C187.03 114.178 169.893 103.978 165.035 103.33" stroke="#2D293E" stroke-width="2.3"/>
<path d="M200.659 132.477C205.652 126.54 219.2 115.151 233.449 117.094C235.068 127.619 220.495 145.026 200.659 132.477Z" fill="#FFECCB"/>
<path d="M85.2868 73.374C92.4116 75.641 99.0505 88.8919 101.479 95.234L98.6456 96.0437C92.4924 95.396 87.9856 97.1232 86.5013 98.0677C78.0811 87.7045 82.1832 77.2872 85.2868 73.374Z" fill="#FFECCB"/>
<path d="M100.28 296.3C99.6325 290.471 101.631 259.033 102.98 243.92C118.1 247.16 140.24 247.16 146.18 247.16C147.476 249.427 146.315 280.648 146.18 296.3H100.28Z" fill="#FFECCB"/>
<path d="M200.659 132.477C205.652 126.54 219.2 115.151 233.449 117.094C235.068 127.619 220.495 145.026 200.659 132.477Z" stroke="#FFECCB"/>
<path d="M85.2868 73.374C92.4116 75.641 99.0505 88.8919 101.479 95.234L98.6456 96.0437C92.4924 95.396 87.9856 97.1232 86.5013 98.0677C78.0811 87.7045 82.1832 77.2872 85.2868 73.374Z" stroke="#FFECCB"/>
<path d="M100.28 296.3C99.6325 290.471 101.631 259.033 102.98 243.92C118.1 247.16 140.24 247.16 146.18 247.16C147.476 249.427 146.315 280.648 146.18 296.3H100.28Z" stroke="#FFECCB"/>
<path d="M140.34 57.5856L137.506 79.8504C129.086 80.822 128.061 89.1611 128.601 93.2093H115.646L119.695 74.183L124.957 54.347L129.41 34.5111C129.734 30.301 133.863 19.8028 135.887 15.08C138.802 8.9268 144.118 4.68976 146.412 3.34039C153.861 0.425719 157.882 2.93557 158.962 4.55483C161.229 6.49794 160.176 11.0319 159.367 13.0559L148.841 21.1522C147.546 22.1238 147.762 23.4462 148.032 23.986C150.946 25.9291 157.882 25.6052 160.986 25.2004C168.111 25.2004 169.352 28.9787 169.082 30.8678C167.787 35.0779 160.446 36.1304 156.938 36.1304C149.489 35.1588 146.817 37.3448 146.412 38.5593C147.384 41.7978 151.135 42.6074 152.889 42.6074C161.633 43.579 163.01 46.7905 162.605 48.2748C162.281 53.4565 147.627 56.641 140.34 57.5856Z" fill="#B55D47"/>
<path d="M261.785 85.113C260.489 86.4084 239.925 98.3369 229.804 104.139C210.373 104.139 197.959 113.315 194.181 117.903L180.822 109.402L222.113 89.9708C221.465 88.3515 220.763 79.5805 220.494 75.3974C220.17 69.2442 223.867 66.8963 225.756 66.4915C228.671 67.4631 230.749 71.2143 231.424 72.9685C233.691 79.1217 236.956 80.1203 238.305 79.8504C239.925 78.8788 237.631 67.571 236.281 62.0385C236.281 56.533 240.06 55.1567 241.949 55.1567C245.511 55.4805 247.211 60.959 247.616 63.6578C247.94 66.5725 250.45 71.889 251.664 74.183C253.931 73.5353 255.578 67.9758 256.117 65.2771C260.651 55.8853 266.373 57.3157 268.667 59.2048C277.087 66.3296 267.587 79.4456 261.785 85.113Z" fill="#B55D47"/>
<path d="M140.34 57.5856L137.506 79.8504C129.086 80.822 128.061 89.1611 128.601 93.2093H115.646L119.695 74.183L124.957 54.347L129.41 34.5111C129.734 30.301 133.863 19.8028 135.887 15.08C138.802 8.9268 144.118 4.68976 146.412 3.34039C153.861 0.425719 157.882 2.93557 158.962 4.55483C161.229 6.49794 160.176 11.0319 159.367 13.0559L148.841 21.1522C147.546 22.1238 147.762 23.4462 148.032 23.986C150.946 25.9291 157.882 25.6052 160.986 25.2004C168.111 25.2004 169.352 28.9787 169.082 30.8678C167.787 35.0779 160.446 36.1304 156.938 36.1304C149.489 35.1588 146.817 37.3448 146.412 38.5593C147.384 41.7978 151.135 42.6074 152.889 42.6074C161.633 43.579 163.01 46.7905 162.605 48.2748C162.281 53.4565 147.627 56.641 140.34 57.5856Z" stroke="#2D293E" stroke-width="2.3"/>
<path d="M261.785 85.113C260.489 86.4084 239.925 98.3369 229.804 104.139C210.373 104.139 197.959 113.315 194.181 117.903L180.822 109.402L222.113 89.9708C221.465 88.3515 220.763 79.5805 220.494 75.3974C220.17 69.2442 223.867 66.8963 225.756 66.4915C228.671 67.4631 230.749 71.2143 231.424 72.9685C233.691 79.1217 236.956 80.1203 238.305 79.8504C239.925 78.8788 237.631 67.571 236.281 62.0385C236.281 56.533 240.06 55.1567 241.949 55.1567C245.511 55.4805 247.211 60.959 247.616 63.6578C247.94 66.5725 250.45 71.889 251.664 74.183C253.931 73.5353 255.578 67.9758 256.117 65.2771C260.651 55.8853 266.373 57.3157 268.667 59.2048C277.087 66.3296 267.587 79.4456 261.785 85.113Z" stroke="#2D293E" stroke-width="2.3"/>
<path d="M69.4988 149.075C84.0721 148.427 92.8431 155.552 95.407 159.195C91.8446 169.558 80.9686 169.18 75.9758 167.696C62.6979 158.628 66.1253 151.503 69.4988 149.075Z" fill="#862D43"/>
<path d="M19.3017 255.946L23.601 232.58L9.58609 228.013C6.99527 229.309 4.88139 233.373 4.32359 235.3C-0.129527 250.683 9.99081 251.898 19.3017 255.946Z" fill="#862D43"/>
<path d="M69.4988 149.075C84.0721 148.427 92.8431 155.552 95.407 159.195C91.8446 169.558 80.9686 169.18 75.9758 167.696C62.6979 158.628 66.1253 151.503 69.4988 149.075Z" stroke="#862D43"/>
<path d="M19.3017 255.946L23.601 232.58L9.58609 228.013C6.99527 229.309 4.88139 233.373 4.32359 235.3C-0.129527 250.683 9.99081 251.898 19.3017 255.946Z" stroke="#862D43"/>
<path d="M190.133 181.863C198.23 172.795 191.348 162.162 186.895 157.979C183.009 167.37 176.639 172.957 173.941 174.576C166.816 175.871 155.049 172.417 150.057 170.528C150.704 178.948 160.042 184.022 164.63 185.506C176.613 190.688 186.625 185.236 190.133 181.863Z" fill="#FE3E6A" stroke="#FE3E6A"/>
<path d="M88.5254 186.722C89.47 191.714 97.3504 199.19 121.315 189.151" stroke="#2D293E" stroke-width="2.8"/>
<path d="M22.541 117.903C33.552 118.227 37.924 107.783 38.7336 102.521C40.029 114.179 49.5287 117.634 54.1166 117.903C43.1056 119.523 39.2734 129.373 38.7336 134.096C37.1144 122.114 27.2639 118.308 22.541 117.903Z" fill="#FFCE01" stroke="#FFCE01"/>
<path d="M217.66 187.125C228.671 187.449 233.043 177.005 233.853 171.742C235.148 183.401 244.648 186.855 249.236 187.125C238.225 188.744 234.393 198.595 233.853 203.318C232.233 191.335 222.383 187.53 217.66 187.125Z" fill="#FFCE01" stroke="#FFCE01"/>
<path d="M219.279 162.277C223.514 162.401 225.196 158.384 225.507 156.36C226.005 160.844 229.659 162.173 231.424 162.277C227.189 162.9 225.715 166.688 225.507 168.505C224.884 163.896 221.096 162.433 219.279 162.277Z" fill="#FFCE01" stroke="#FFCE01"/>
<path d="M170.701 121.141C176.53 125.027 178.797 131.396 179.202 134.095L169.891 130.452C166.653 125.594 160.176 124.11 157.342 123.975C150.865 122.355 153.834 118.712 156.128 117.093C161.633 115.797 168.137 119.252 170.701 121.141Z" fill="#8A283D"/>
<path d="M94.1908 96.4473C87.7138 96.4473 83.6656 100.765 82.4512 102.924L90.5475 104.948C93.1383 103.329 97.5643 103.464 99.4534 103.734C100.425 103.734 105.256 106.972 107.55 108.592C109.169 109.239 110.923 107.242 111.598 106.163C111.922 103.572 109.034 100.765 107.55 99.6858C103.016 96.4473 96.7546 96.1774 94.1908 96.4473Z" fill="#8A283D"/>
<path d="M170.701 121.141C176.53 125.027 178.797 131.396 179.202 134.095L169.891 130.452C166.653 125.594 160.176 124.11 157.342 123.975C150.865 122.355 153.834 118.712 156.128 117.093C161.633 115.797 168.137 119.252 170.701 121.141Z" stroke="#8A283D"/>
<path d="M94.1908 96.4473C87.7138 96.4473 83.6656 100.765 82.4512 102.924L90.5475 104.948C93.1383 103.329 97.5643 103.464 99.4534 103.734C100.425 103.734 105.256 106.972 107.55 108.592C109.169 109.239 110.923 107.242 111.598 106.163C111.922 103.572 109.034 100.765 107.55 99.6858C103.016 96.4473 96.7546 96.1774 94.1908 96.4473Z" stroke="#8A283D"/>
<path d="M134.675 125.595L127.388 123.166L121.316 121.547C121.64 119.603 120.641 118.038 120.101 117.498L104.313 109.807L90.5498 105.759C87.6351 104.787 78.5403 102.655 74.3572 101.711C69.8232 101.387 66.2608 103.465 65.0463 104.544C59.8647 109.402 59.9187 128.698 60.5934 137.739C60.9982 138.549 67.4752 142.597 68.6897 143.407C69.6612 144.054 83.3979 149.074 90.1449 151.503C95.6503 153.122 102.424 152.717 105.123 152.313C108.362 152.313 116.188 136.39 119.696 128.428L132.246 132.477L129.817 144.621C129.169 149.155 129.547 156.765 129.817 160.004C134.351 165.186 144.66 168.91 149.248 170.124C158.963 174.334 169.758 174.577 173.942 174.173C176.856 173.849 183.792 162.973 186.896 157.575C190.134 152.393 190.404 145.431 190.134 142.597C189.163 140.006 183.252 136.39 180.419 134.905L169.893 130.857L154.51 126.404L138.723 123.166C137.427 123.166 135.484 124.785 134.675 125.595Z" fill="#2D293E" stroke="#2D293E"/>
<path d="M89.7394 117.904C78.0808 113.37 70.0384 118.983 67.4746 122.357C68.1223 114.584 71.5228 109.942 73.142 108.593C89.3346 107.621 106.337 116.284 112.814 120.737L110.79 127.619C107.875 125.676 95.5418 120.333 89.7394 117.904Z" fill="#5B8ECD"/>
<path d="M142.77 130.048C141.151 130.372 138.621 138.08 139.161 138.62C139.701 138.62 159.233 139.764 163.011 141.383C168.834 143 174.789 153.72 177.492 158.585L177.501 158.601C178.148 158.277 180.958 148.939 182.037 144.621C170.055 134.582 150.867 130.723 142.77 130.048Z" fill="#5B8ECD"/>
<path d="M89.7394 117.904C78.0808 113.37 70.0384 118.983 67.4746 122.357C68.1223 114.584 71.5228 109.942 73.142 108.593C89.3346 107.621 106.337 116.284 112.814 120.737L110.79 127.619C107.875 125.676 95.5418 120.333 89.7394 117.904Z" stroke="#5B8ECD"/>
<path d="M142.77 130.048C141.151 130.372 138.621 138.08 139.161 138.62C139.701 138.62 159.233 139.764 163.011 141.383C168.834 143 174.789 153.72 177.492 158.585L177.501 158.601C178.148 158.277 180.958 148.939 182.037 144.621C170.055 134.582 150.867 130.723 142.77 130.048Z" stroke="#5B8ECD"/>
<path d="M67.4746 134.095V122.76C76.3805 113.45 86.9057 117.498 87.3105 117.498C87.6344 117.498 103.098 124.515 110.79 128.023C107.875 139.034 102.019 144.755 99.455 146.24C83.5862 146.564 71.5228 138.278 67.4746 134.095Z" fill="#61AAEF"/>
<path d="M137.103 157.17C136.455 155.874 137.912 144.216 138.722 138.548C147.79 137.577 157.883 140.033 161.796 141.382C168.597 143.649 175.477 152.797 178.041 157.52C175.881 161.3 172.996 166.076 170.702 167.695C152.243 167.695 140.611 160.678 137.103 157.17Z" fill="#61AAEF"/>
<path d="M67.4746 134.095V122.76C76.3805 113.45 86.9057 117.498 87.3105 117.498C87.6344 117.498 103.098 124.515 110.79 128.023C107.875 139.034 102.019 144.755 99.455 146.24C83.5862 146.564 71.5228 138.278 67.4746 134.095Z" stroke="#61AAEF"/>
<path d="M137.103 157.17C136.455 155.874 137.912 144.216 138.722 138.548C147.79 137.577 157.883 140.033 161.796 141.382C168.597 143.649 175.477 152.797 178.041 157.52C175.881 161.3 172.996 166.076 170.702 167.695C152.243 167.695 140.611 160.678 137.103 157.17Z" stroke="#61AAEF"/>
</svg>
