<svg width="303" height="468" viewBox="0 0 303 468" fill="none" xmlns="http://www.w3.org/2000/svg">
<path d="M273.008 114.697C277.981 170.564 240.087 167.937 220.519 159.64L234.332 165.863C234.332 238.324 207.627 265.659 194.274 270.268C192.435 270.724 190.593 271.147 188.749 271.538V279.257L238.476 264.045C250.632 266.258 249.066 282.023 246.764 289.628C242.905 296.252 206.508 311.892 189.882 318.829C191.958 345.75 194.228 382.653 190.375 389.694C190.189 390.033 189.989 390.303 189.774 390.499H63.7874L69.2499 395.749C66.2499 393.349 63 390.04 62.875 389.622C55.5561 379.51 55.2043 331.35 61.375 311.749L4.3455 275.108C-4.63315 258.514 6.64766 249.525 12.6333 247.451L63.3646 268.194L63.7413 259.897C-6.98133 194.626 38.4174 163.097 69.9572 155.491C70.5097 153.832 81.2378 128.986 86.5328 116.771C90.0322 114.911 93.621 113.338 97.2754 112.025C93.0127 113.459 88.9151 114.966 85.8593 116.212L81.1032 127.489C51.267 108.682 65.1228 78.0512 76.1732 65.6055C103.247 73.3495 114.617 96.7987 117.15 106.94C114.48 106.94 108.706 108.411 102.525 110.327C144.513 98.1991 193.439 117.755 214.752 130.6C231.139 111.397 259.436 111.655 273.008 114.697Z" fill="#F5C254"/>
<path d="M163.886 82.1998C177.146 82.1998 185.458 105.44 187.991 116.964C161.47 107.007 144.435 106.438 139.428 105.937L139.713 103.634C141.923 77.6363 151.684 88.6531 156.289 97.4112C155.736 86.9015 161.123 82.8912 163.886 82.1998Z" fill="#F5C254"/>
<path d="M214.752 130.6C231.139 111.397 259.436 111.655 273.008 114.697C277.981 170.564 240.087 167.937 220.519 159.64L234.332 165.863C234.332 238.324 207.627 265.659 194.274 270.268C192.435 270.724 190.593 271.147 188.749 271.538M214.752 130.6C212.517 133.22 210.503 136.202 208.778 139.588L214.752 130.6ZM214.752 130.6C190.66 116.08 131.287 92.9861 86.5328 116.771C81.2378 128.986 70.5097 153.832 69.9572 155.491C38.4174 163.097 -6.98133 194.626 63.7413 259.897M63.7413 259.897C84.1943 268.577 136.893 282.544 188.749 271.538M63.7413 259.897L63.3646 268.194M188.749 271.538V279.257M189.774 318.874C206.35 311.96 242.896 296.266 246.764 289.628C249.066 282.023 250.632 266.258 238.476 264.045L188.749 279.257M188.749 279.257L188.125 290.374V295.999L188.5 301.624C190.504 326.172 195.16 380.952 190.375 389.694M63.3646 268.194L62.3602 290.32C62.125 295.249 61.75 306.874 61.375 311.749M63.3646 268.194L12.6333 247.451C6.64766 249.525 -4.63315 258.514 4.3455 275.108L61.375 311.749M61.375 311.749C55.2043 331.35 55.5561 379.51 62.875 389.622M62.875 389.622C63.1173 389.957 63.3673 390.25 63.625 390.499H189.774C189.989 390.303 190.189 390.033 190.375 389.694M62.875 389.622C63 390.04 66.2499 393.349 69.2499 395.749L62.875 389.622ZM190.375 389.694C189.625 390.712 187 394.249 184.75 396.124M187.991 116.964C185.458 105.44 177.146 82.1998 163.886 82.1998C161.123 82.8912 155.736 86.9015 156.289 97.4112C151.684 88.6531 141.923 77.6363 139.713 103.634L139.428 105.937C144.435 106.438 161.47 107.007 187.991 116.964ZM117.15 106.94C114.617 96.7987 103.247 73.3495 76.1732 65.6055C65.1228 78.0512 51.267 108.682 81.1032 127.489L85.8593 116.212C94.6075 112.644 111.893 106.94 117.15 106.94Z" stroke="#2E2B36" stroke-width="2"/>
<path d="M177.443 145.094C191.256 153.949 189.645 159.391 187.112 161.005C184.35 163.219 181.357 160.083 180.206 158.238C177.443 154.364 173.069 152.012 171.228 151.32C168.465 149.66 162.71 150.628 160.177 151.32C152.995 148.553 155.803 144.632 158.105 143.018C165.841 140.804 174.22 143.479 177.443 145.094Z" stroke="white"/>
<path d="M100.782 124.339C113.49 126.553 112.983 132.641 111.142 135.408C110.037 137.069 106.998 136.93 106.307 136.1C103.545 132.779 99.1704 132.41 97.3287 132.641C96.2237 132.641 92.7245 134.025 91.113 134.716C84.4829 136.377 84.2066 132.18 84.8972 129.874C88.2123 124.339 96.8684 123.878 100.782 124.339Z" stroke="white"/>
<path d="M177.443 145.094C191.256 153.949 189.645 159.391 187.112 161.005C184.35 163.219 181.357 160.083 180.206 158.238C177.443 154.364 173.069 152.012 171.228 151.32C168.465 149.66 162.71 150.628 160.177 151.32C152.995 148.553 155.803 144.632 158.105 143.018C165.841 140.804 174.22 143.479 177.443 145.094Z" fill="#872E34"/>
<path d="M100.782 124.339C113.49 126.553 112.983 132.641 111.142 135.408C110.037 137.069 106.998 136.93 106.307 136.1C103.545 132.779 99.1704 132.41 97.3287 132.641C96.2237 132.641 92.7245 134.025 91.113 134.716C84.4829 136.377 84.2066 132.18 84.8972 129.874C88.2123 124.339 96.8684 123.878 100.782 124.339Z" fill="#872E34"/>
<path d="M177.443 145.094C191.256 153.949 189.645 159.391 187.112 161.005C184.35 163.219 181.357 160.083 180.206 158.238C177.443 154.364 173.069 152.012 171.228 151.32C168.465 149.66 162.71 150.628 160.177 151.32C152.995 148.553 155.803 144.632 158.105 143.018C165.841 140.804 174.22 143.479 177.443 145.094Z" stroke="#872E34"/>
<path d="M100.782 124.339C113.49 126.553 112.983 132.641 111.142 135.408C110.037 137.069 106.998 136.93 106.307 136.1C103.545 132.779 99.1704 132.41 97.3287 132.641C96.2237 132.641 92.7245 134.025 91.113 134.716C84.4829 136.377 84.2066 132.18 84.8972 129.874C88.2123 124.339 96.8684 123.878 100.782 124.339Z" stroke="#872E34"/>
<path d="M142.724 203.031C142.599 204.801 143.428 207.619 146.434 209.998M146.434 209.998C148.949 211.988 152.987 213.671 159.264 214.179C156.224 213.947 149.402 212.785 146.434 209.998ZM146.434 209.998C134.171 217.198 102.34 225.745 73.1201 202.334C84.3227 212.089 114.669 227.278 146.434 209.998Z" stroke="white" stroke-width="2"/>
<path d="M142.724 203.031C142.599 204.801 143.428 207.619 146.434 209.998M146.434 209.998C148.949 211.988 152.987 213.671 159.264 214.179C156.224 213.947 149.402 212.785 146.434 209.998ZM146.434 209.998C134.171 217.198 102.34 225.745 73.1201 202.334C84.3227 212.089 114.669 227.278 146.434 209.998Z" stroke="#2D293E" stroke-width="2"/>
<path d="M151.805 136.57C160.065 138.577 157.389 120.291 153.899 120.291C153.824 120.322 153.75 120.353 153.677 120.386C149.013 119.613 149.013 135.892 151.805 136.57Z" stroke="white"/>
<path d="M144.825 114.187C140.637 114.187 135.75 127.752 140.637 130.466C144.127 131.822 151.805 114.865 144.825 114.187Z" stroke="white"/>
<path d="M135.052 116.221C130.167 114.865 121.092 126.396 125.28 130.466C129.468 132.5 139.939 118.935 135.052 116.221Z" stroke="white"/>
<path d="M151.805 136.57C160.065 138.577 157.389 120.291 153.899 120.291C153.824 120.322 153.75 120.353 153.677 120.386C149.013 119.613 149.013 135.892 151.805 136.57Z" fill="#FF7C00"/>
<path d="M144.825 114.187C140.637 114.187 135.75 127.752 140.637 130.466C144.127 131.822 151.805 114.865 144.825 114.187Z" fill="#FF7C00"/>
<path d="M135.052 116.221C130.167 114.865 121.092 126.396 125.28 130.466C129.468 132.5 139.939 118.935 135.052 116.221Z" fill="#FF7C00"/>
<path d="M151.805 136.57C160.065 138.577 157.389 120.291 153.899 120.291C153.824 120.322 153.75 120.353 153.677 120.386C149.013 119.613 149.013 135.892 151.805 136.57Z" stroke="#FF7C00"/>
<path d="M144.825 114.187C140.637 114.187 135.75 127.752 140.637 130.466C144.127 131.822 151.805 114.865 144.825 114.187Z" stroke="#FF7C00"/>
<path d="M135.052 116.221C130.167 114.865 121.092 126.396 125.28 130.466C129.468 132.5 139.939 118.935 135.052 116.221Z" stroke="#FF7C00"/>
<path d="M28.0177 255.593L19.7246 282.461L5.21156 272.816C-1.97583 260.691 6.82412 252.148 12.1225 249.392L28.0177 255.593Z" stroke="white"/>
<path d="M244.331 289.35L228.435 298.995L222.215 270.749L238.111 265.927C246.957 268.682 245.943 282.691 244.331 289.35Z" stroke="white"/>
<path d="M75.0122 169.477C88.2812 165.068 96.8969 173.841 101.965 179.122C104.176 189.594 92.2896 189.686 83.9964 189.456C66.3044 179.536 70.8656 172.922 75.0122 169.477Z" stroke="white"/>
<path d="M29.2971 254.671L19.5308 284.22L4.32359 274.297C-2.7564 260.681 5.00336 250.405 12.7695 247.91L29.2971 254.671Z" fill="#862D43"/>
<path d="M246.194 289.583L246.158 289.73L242.652 292.735L238.395 295.489L228.379 301.249L221.021 269.806L237.805 264.566C251.567 267.422 247.827 282.849 246.194 289.583Z" fill="#862D43"/>
<path d="M74.6053 169.477C87.8761 165.07 96.4929 173.837 101.562 179.115C103.773 189.579 91.8849 189.671 83.5907 189.442C65.8963 179.528 70.4581 172.919 74.6053 169.477Z" fill="#862D43"/>
<path d="M29.2971 254.671L19.5308 284.22L4.32359 274.297C-2.7564 260.681 5.00336 250.405 12.7695 247.91L29.2971 254.671Z" stroke="#862D43"/>
<path d="M246.194 289.583L246.158 289.73L242.652 292.735L238.395 295.489L228.379 301.249L221.021 269.806L237.805 264.566C251.567 267.422 247.827 282.849 246.194 289.583Z" stroke="#862D43"/>
<path d="M74.6053 169.477C87.8761 165.07 96.4929 173.837 101.562 179.115C103.773 189.579 91.8849 189.671 83.5907 189.442C65.8963 179.528 70.4581 172.919 74.6053 169.477Z" stroke="#862D43"/>
<path d="M102.625 272.749C97.9578 271.664 88.3749 354.124 96.9999 363.874L125.875 367.624L153.625 363.874C162.625 368.749 157.874 276.73 156.625 276.874C143.808 278.355 115.406 275.721 102.625 272.749Z" fill="#FFECCB"/>
<path d="M80.521 83.1348C73.3342 91.9703 81.2121 107.064 86.0493 113.507L101.252 107.985C97.9353 96.388 86.0494 86.5861 80.521 83.1348Z" fill="#FFECCB"/>
<path d="M219.42 146.64C228.404 138.357 248.582 122.895 257.427 127.312C256.506 138.587 247.614 158.237 219.42 146.64Z" fill="#FFECCB"/>
<path d="M102.625 272.749C97.9578 271.664 88.3749 354.124 96.9999 363.874L125.875 367.624L153.625 363.874C162.625 368.749 157.874 276.73 156.625 276.874C143.808 278.355 115.406 275.721 102.625 272.749Z" stroke="#FFECCB" stroke-width="3"/>
<path d="M80.521 83.1348C73.3342 91.9703 81.2121 107.064 86.0493 113.507L101.252 107.985C97.9353 96.388 86.0494 86.5861 80.521 83.1348Z" stroke="#FFECCB" stroke-width="3"/>
<path d="M219.42 146.64C228.404 138.357 248.582 122.895 257.427 127.312C256.506 138.587 247.614 158.237 219.42 146.64Z" stroke="#FFECCB" stroke-width="3"/>
<path d="M294.72 55.3484C317.52 72.6509 272.381 103.334 252.575 112.101C232.125 114.869 218.261 124.328 213.885 128.711L195.922 119.022L243.594 95.4903C238.067 75.5578 242.673 68.7291 245.666 67.8063C253.266 65.0379 253.957 83.7246 261.557 83.0325C265.012 83.7246 261.097 70.1134 258.794 62.9617C256.03 55.2102 260.866 52.8109 263.63 52.5802C269.848 52.0611 272.611 67.1143 277.448 75.4193C280.902 78.1879 282.975 52.5802 294.72 55.3484Z" stroke="white" stroke-width="3"/>
<path d="M104.723 63.6537L128.905 103.795H116.469C113.705 88.2919 95.5115 74.7275 86.7602 69.8833L85.3783 67.807L70.1787 33.2021C65.7569 6.62549 76.1665 1.36554 81.9239 2.05763C93.6692 2.74973 85.3784 20.0522 86.7602 28.357C88.142 31.1258 100.578 11.747 110.251 17.9756C119.232 24.897 93.6697 35.278 96.4327 42.8908C99.1966 46.3514 113.705 34.5859 118.541 38.7382C122.41 44.8286 110.942 57.8862 104.723 63.6537Z" stroke="white" stroke-width="3"/>
<path d="M294.687 55.1523C317.483 72.3912 272.697 103.483 252.894 112.217C232.446 114.975 223.35 120.964 214.336 129.212L194.056 119.465L243.568 95.1466C238.042 75.2874 242.647 68.4838 245.641 67.5644C253.239 64.8062 253.93 83.4242 261.529 82.7346C264.983 83.4242 261.068 69.863 258.766 62.7376C256.003 55.0146 260.838 52.6242 263.601 52.3943C269.818 51.877 272.582 66.8749 277.417 75.1494C280.871 77.9078 282.944 52.3943 294.687 55.1523Z" fill="#B55D47"/>
<path d="M104.718 63.4271L130.21 105.469L116.69 106.219L116.44 105.469C114.437 90.2236 95.1446 74.5561 86.3945 69.7297L85.1427 67.7303L70.1785 33.0874C65.7574 6.60848 76.1654 1.36787 81.9221 2.05742C93.6656 2.74698 85.376 19.9858 86.7576 28.2601C88.1392 31.0187 100.574 11.7112 110.245 17.9168C119.225 24.8128 93.6661 35.1557 96.4287 42.7404C99.1922 46.1883 113.699 34.4661 118.534 38.6031C122.403 44.6712 110.935 57.6808 104.718 63.4271Z" fill="#B55D47"/>
<path d="M294.687 55.1523C317.483 72.3912 272.697 103.483 252.894 112.217C232.446 114.975 223.35 120.964 214.336 129.212L194.056 119.465L243.568 95.1466C238.042 75.2874 242.647 68.4838 245.641 67.5644C253.239 64.8062 253.93 83.4242 261.529 82.7346C264.983 83.4242 261.068 69.863 258.766 62.7376C256.003 55.0146 260.838 52.6242 263.601 52.3943C269.818 51.877 272.582 66.8749 277.417 75.1494C280.871 77.9078 282.944 52.3943 294.687 55.1523Z" stroke="#2E2B36" stroke-width="2"/>
<path d="M104.718 63.4271L130.21 105.469L116.69 106.219L116.44 105.469C114.437 90.2236 95.1446 74.5561 86.3945 69.7297L85.1427 67.7303L70.1785 33.0874C65.7574 6.60848 76.1654 1.36787 81.9221 2.05742C93.6656 2.74698 85.376 19.9858 86.7576 28.2601C88.1392 31.0187 100.574 11.7112 110.245 17.9168C119.225 24.8128 93.6661 35.1557 96.4287 42.7404C99.1922 46.1883 113.699 34.4661 118.534 38.6031C122.403 44.6712 110.935 57.6808 104.718 63.4271Z" stroke="#2E2B36" stroke-width="2"/>
<path d="M199.31 204.635C200.002 188.139 182.69 186.077 177.15 188.826C164.685 197.074 170.543 207.687 176.458 210.134C193.077 217.007 198.848 209.217 199.31 204.635Z" stroke="white"/>
<path d="M199.31 204.635C200.002 188.139 182.69 186.077 177.15 188.826C164.685 197.074 170.543 207.687 176.458 210.134C193.077 217.007 198.848 209.217 199.31 204.635Z" fill="#FF3E6A" stroke="#FF3E6A"/>
<path d="M148.431 170.137C148.431 168.474 160.438 163.439 166.442 161.13C169.212 160.575 169.443 163.208 169.212 164.594L155.358 170.83L166.442 179.838C167.55 182.609 165.056 183.302 163.671 183.302C158.683 179.976 151.433 173.14 148.431 170.137Z" stroke="white" stroke-width="0.5"/>
<path d="M86.7802 143.807C83.4552 142.144 82.6239 144.5 82.6239 145.886L88.8583 154.201L79.8531 155.586C77.6364 157.249 78.9295 159.513 79.8531 160.437L94.4 158.358C95.5083 158.358 95.7854 156.51 95.7854 155.586L86.7802 143.807Z" stroke="white" stroke-width="0.5"/>
<path d="M148.431 170.137C148.431 168.474 160.438 163.439 166.442 161.13C169.212 160.575 169.443 163.208 169.212 164.594L155.358 170.83L166.442 179.838C167.55 182.609 165.056 183.302 163.671 183.302C158.683 179.976 151.433 173.14 148.431 170.137Z" fill="#2D293E"/>
<path d="M86.7802 143.807C83.4552 142.144 82.6239 144.5 82.6239 145.886L88.8583 154.201L79.8531 155.586C77.6364 157.249 78.9295 159.513 79.8531 160.437L94.4 158.358C95.5083 158.358 95.7854 156.51 95.7854 155.586L86.7802 143.807Z" fill="#2D293E"/>
<path d="M148.431 170.137C148.431 168.474 160.438 163.439 166.442 161.13C169.212 160.575 169.443 163.208 169.212 164.594L155.358 170.83L166.442 179.838C167.55 182.609 165.056 183.302 163.671 183.302C158.683 179.976 151.433 173.14 148.431 170.137Z" stroke="#2D293E" stroke-width="0.5"/>
<path d="M86.7802 143.807C83.4552 142.144 82.6239 144.5 82.6239 145.886L88.8583 154.201L79.8531 155.586C77.6364 157.249 78.9295 159.513 79.8531 160.437L94.4 158.358C95.5083 158.358 95.7854 156.51 95.7854 155.586L86.7802 143.807Z" stroke="#2D293E" stroke-width="0.5"/>
<path d="M199.75 457.469C194.459 426.159 190.492 399.777 189.169 390.5H134.5L160.512 457.469C163.333 460.948 175.502 467.036 183.438 466.166C193.578 465.055 199.015 459.208 199.75 457.469Z" fill="#F5C254" stroke="black" stroke-width="2"/>
<path d="M52.75 457.469C58.0405 426.159 62.0084 399.777 63.3311 390.5H118L91.9881 457.469C89.1665 460.948 76.9983 467.036 69.0625 466.166C58.9223 465.055 53.4848 459.208 52.75 457.469Z" fill="#F5C254" stroke="black" stroke-width="2"/>
<path d="M98.5 438.5H57.0644L53.5 456.893C57.0644 463.644 65.9638 465.036 69.5396 465.409C78.0049 466.291 87.8069 460.556 90.9257 457.468L98.5 438.5Z" fill="#862D43" stroke="#862D43"/>
<path d="M154 438.5H195.436L199 456.398C195.436 462.968 186.536 464.322 182.96 464.685C175.832 465.408 164.248 459.963 161.129 456.529L157.787 447.729L154 438.5Z" fill="#862D43" stroke="#862D43"/>
<path d="M64 390.5H188.5" stroke="#F5C254" stroke-width="2"/>
<path d="M62.125 388.25C64.375 390.875 67.075 394.175 68.875 395.375" stroke="#2E2B36" stroke-width="2"/>
<path d="M190.375 389.375C188.875 390.75 185.2 393.725 182.5 394.625" stroke="#2E2B36" stroke-width="2"/>
<path d="M94.75 380.375C99.25 384.125 111.625 391.55 125.125 391.25C131.5 391.5 146.725 389.675 156.625 380.375" stroke="#2E2B36" stroke-width="2"/>
<path d="M125.875 368.75C115.975 369.65 102.427 366 96.802 364.25H155.125C141.925 367.25 130.25 368.625 125.875 368.75Z" fill="#FFECCB" stroke="#FFECCB" stroke-width="2"/>
</svg>
