<svg width="102" height="165" viewBox="0 0 102 165" fill="none" xmlns="http://www.w3.org/2000/svg">
<path d="M58.3064 40.1662C60.8613 41.5109 60.2674 45.8811 59.6511 47.8981C61.3991 47.4947 68.8958 49.2988 72.4256 50.2513C79.149 39.3594 91.2511 37.3088 96.4617 37.6449C102.378 57.5462 90.4107 62.2647 83.6873 62.1363L86.8809 73.447C92.3941 74.2538 94.6688 77.0328 96.1255 78.4896C100.294 81.9857 100.944 87.6222 101 90.2555C101 98.3236 97.7504 103.646 96.1255 105.719C93.3017 110.56 82.3426 115.614 81.5022 115.804L84.8638 130.596C87.049 138.496 86.7128 146.284 86.0404 150.598H83.824L84.1915 157.489C81.7711 163.675 76.4596 163.204 74.1064 162.196C73.1651 161.792 71.5851 154.296 70.9128 150.598H37.0238L34.7746 162.196C32.0852 164.078 30.1731 163.264 28.7235 162.868C23.1767 161.355 23.5129 154.184 24.3533 150.598H20.6554L21.832 141.017C22.6724 134.462 26.2022 117.99 31.0767 113.451L25.3618 108.913C19.8486 104.207 16.4533 98.6037 15.4448 93.7853C13.6967 89.4823 14.9405 74.7357 15.7809 67.9002C-0.893086 67.4968 -0.131102 52.1563 2.33414 44.5364C16.1843 43.7296 24.4653 51.1478 26.8745 54.9577L38.4724 49.9151C41.9686 38.8888 48.1093 36.3563 50.7426 36.4684C53.2975 37.9475 53.2639 41.5669 52.9277 43.1917C54.0034 40.099 56.9617 39.8861 58.3064 40.1662Z" fill="#F5C254"/>
<path d="M59.6511 47.8981C60.2674 45.8811 60.8613 41.5109 58.3064 40.1662C56.9617 39.8861 54.0034 40.099 52.9277 43.1917C53.2639 41.5669 53.2975 37.9475 50.7426 36.4684C48.1093 36.3563 41.9686 38.8888 38.4724 49.9151M59.6511 47.8981C61.3991 47.4947 68.8958 49.2988 72.4256 50.2513M59.6511 47.8981C55.7291 47.7861 46.0026 48.0326 38.4724 49.9151M38.4724 49.9151L26.8745 54.9577M26.8745 54.9577L28.2192 58.1513M26.8745 54.9577C24.4653 51.1478 16.1843 43.7296 2.33414 44.5364C-0.131102 52.1563 -0.893086 67.4968 15.7809 67.9002M15.7809 67.9002C17.4618 67.6201 20.9244 67.0262 21.3278 66.8917C21.7312 66.7572 17.798 67.508 15.7809 67.9002ZM15.7809 67.9002C14.9405 74.7357 13.6967 89.4823 15.4448 93.7853C16.4533 98.6037 19.8486 104.207 25.3618 108.913L31.0767 113.451M31.0767 113.451C26.2022 117.99 22.6724 134.462 21.832 141.017L20.6554 150.598H24.3533M31.0767 113.451C58.6426 124.377 68.8958 118.662 81.5022 115.804M24.3533 150.598L26.2022 127.738M24.3533 150.598C23.5129 154.184 23.1767 161.355 28.7235 162.868C30.1731 163.264 32.0852 164.078 34.7746 162.196L37.0238 150.598M40.1533 134.462L37.0238 150.598M37.0238 150.598H70.9128M70.9128 150.598L70.5766 139.336M70.9128 150.598C71.5851 154.296 73.1651 161.792 74.1064 162.196C76.4596 163.204 81.7711 163.675 84.1915 157.489L83.824 150.598M82.8468 132.277L83.824 150.598M83.824 150.598H86.0404C86.7128 146.284 87.049 138.496 84.8638 130.596L81.5022 115.804M81.5022 115.804C82.3426 115.614 93.3017 110.56 96.1255 105.719C97.7504 103.646 101 98.3236 101 90.2555C100.944 87.6222 100.294 81.9857 96.1255 78.4896C94.6688 77.0328 92.3941 74.2538 86.8809 73.447L83.6873 62.1363M83.6873 62.1363L82.8468 59.1598C79.6196 53.7811 74.5546 50.9797 72.4256 50.2513M83.6873 62.1363C90.4107 62.2647 102.378 57.5462 96.4617 37.6449C91.2511 37.3088 79.149 39.3594 72.4256 50.2513" stroke="#2E2B36" stroke-width="1.5"/>
<path d="M76.123 13.6074L72.257 50.0818C70.2401 49.275 65.0294 48.2889 62.6761 47.8967L64.1889 40.8372L66.2059 29.7436L60.1548 26.2138C56.6587 23.39 57.1293 21.7875 57.8017 21.3393C58.7429 20.1291 62.452 20.9471 64.1889 21.5074C66.7438 22.0453 66.9343 20.3868 66.7102 19.4904L57.9698 14.784C55.8183 11.8257 58.1939 10.75 59.6507 10.5819L66.7102 13.1032C68.0549 13.7755 68.7273 12.823 68.8954 12.2627C61.7686 3.11892 65.7017 0.945018 68.5592 1.00105C74.7447 2.34573 76.179 9.96557 76.123 13.6074Z" fill="#B55D47"/>
<path d="M30.4038 32.7691L37.6315 50.0818C35.0767 51.0231 30.4039 53.0513 28.3868 53.9478L21.9995 33.7776L17.125 15.9606C17.2595 7.89253 21.2151 5.20317 23.1761 4.867C27.0756 5.2704 27.1541 8.50884 26.7059 10.0776C24.0165 15.1874 24.4648 16.4649 25.025 16.4649C26.1008 16.0615 31.1882 13.4954 33.5974 12.2627C36.959 13.6074 35.8945 15.9606 34.942 16.9691L28.3868 21.3393C26.7732 22.8185 28.3868 23.7485 29.3953 24.0287C36.1187 20.8014 37.6875 22.684 37.6315 24.0287C38.0349 26.718 32.9811 30.9762 30.4038 32.7691Z" fill="#B55D47"/>
<path d="M76.123 13.6074L72.257 50.0818C70.2401 49.275 65.0294 48.2889 62.6761 47.8967L64.1889 40.8372L66.2059 29.7436L60.1548 26.2138C56.6587 23.39 57.1293 21.7875 57.8017 21.3393C58.7429 20.1291 62.452 20.9471 64.1889 21.5074C66.7438 22.0453 66.9343 20.3868 66.7102 19.4904L57.9698 14.784C55.8183 11.8257 58.1939 10.75 59.6507 10.5819L66.7102 13.1032C68.0549 13.7755 68.7273 12.823 68.8954 12.2627C61.7686 3.11892 65.7017 0.945018 68.5592 1.00105C74.7447 2.34573 76.179 9.96557 76.123 13.6074Z" stroke="#2E2B36" stroke-width="1.5"/>
<path d="M30.4038 32.7691L37.6315 50.0818C35.0767 51.0231 30.4039 53.0513 28.3868 53.9478L21.9995 33.7776L17.125 15.9606C17.2595 7.89253 21.2151 5.20317 23.1761 4.867C27.0756 5.2704 27.1541 8.50884 26.7059 10.0776C24.0165 15.1874 24.4648 16.4649 25.025 16.4649C26.1008 16.0615 31.1882 13.4954 33.5974 12.2627C36.959 13.6074 35.8945 15.9606 34.942 16.9691L28.3868 21.3393C26.7732 22.8185 28.3868 23.7485 29.3953 24.0287C36.1187 20.8014 37.6875 22.684 37.6315 24.0287C38.0349 26.718 32.9811 30.9762 30.4038 32.7691Z" stroke="#2E2B36" stroke-width="1.5"/>
<path d="M26.0332 92.774C24.6885 86.8574 29.5069 83.4733 32.0842 82.5208C37.7318 80.6382 41.2729 85.3222 42.3374 87.8995C44.3545 93.4127 39.2559 95.7995 36.4545 96.3037C30.1345 97.6484 26.8736 94.5108 26.0332 92.774Z" fill="#FF3E6A" stroke="#FF3E6A"/>
<path d="M78.4599 80.4972C73.0812 81.0351 71.5124 82.9624 71.4003 83.8589C71.1314 87.7585 77.1152 89.1816 80.1408 89.4057C86.0573 87.9266 86.7521 83.5227 86.3599 81.5057C85.0152 79.8921 80.533 80.161 78.4599 80.4972Z" fill="#862D43"/>
<path d="M35 155L25.0008 152C24.5009 157 25.3283 158.828 26.0006 159.5C28.5219 163.03 31.9873 162.509 33.5 161.5C34.0379 161.366 34.5518 157.241 35 155Z" fill="#862D43"/>
<path d="M82.501 151.5L73.001 154.5C73.8414 158.534 74.1088 160.384 74.501 161C79.3418 162.614 81.6563 160.862 83.001 157.5L82.501 151.5Z" fill="#862D43"/>
<path d="M78.4599 80.4972C73.0812 81.0351 71.5124 82.9624 71.4003 83.8589C71.1314 87.7585 77.1152 89.1816 80.1408 89.4057C86.0573 87.9266 86.7521 83.5227 86.3599 81.5057C85.0152 79.8921 80.533 80.161 78.4599 80.4972Z" stroke="#862D43"/>
<path d="M35 155L25.0008 152C24.5009 157 25.3283 158.828 26.0006 159.5C28.5219 163.03 31.9873 162.509 33.5 161.5C34.0379 161.366 34.5518 157.241 35 155Z" stroke="#862D43"/>
<path d="M82.501 151.5L73.001 154.5C73.8414 158.534 74.1088 160.384 74.501 161C79.3418 162.614 81.6563 160.862 83.001 157.5L82.501 151.5Z" stroke="#862D43"/>
<path d="M91.756 44.0312C93.773 50.8891 87.8901 55.0688 84.6965 56.3014C84.2931 54.0155 81.1667 52.4355 79.6539 51.9312C83.1501 46.1491 89.1787 44.2554 91.756 44.0312Z" fill="#FFECCB"/>
<path d="M22.5051 61.0078C21.2164 58.0383 16.3531 51.7632 7.20933 50.4185C6.87316 55.7412 9.46167 65.3108 22.5051 61.0078Z" fill="#FFECCB"/>
<path d="M44 149.5C43.1932 148.021 44.3277 127.456 45 119.5C52.5 121.5 62.134 121.004 66 120.5C67.0757 122.383 66.6681 142.048 66.5 149.5L44 149.5Z" fill="#FFECCB"/>
<path d="M91.756 44.0312C93.773 50.8891 87.8901 55.0688 84.6965 56.3014C84.2931 54.0155 81.1667 52.4355 79.6539 51.9312C83.1501 46.1491 89.1787 44.2554 91.756 44.0312Z" stroke="#FFECCB"/>
<path d="M22.5051 61.0078C21.2164 58.0383 16.3531 51.7632 7.20933 50.4185C6.87316 55.7412 9.46167 65.3108 22.5051 61.0078Z" stroke="#FFECCB"/>
<path d="M44 149.5C43.1932 148.021 44.3277 127.456 45 119.5C52.5 121.5 62.134 121.004 66 120.5C67.0757 122.383 66.6681 142.048 66.5 149.5L44 149.5Z" stroke="#FFECCB"/>
<path d="M82.3419 53.613C84.7624 55.2266 84.6951 57.1988 84.359 57.9832C82.8798 59.7313 81.2774 57.9272 80.6611 56.8066C79.4509 55.193 77.2434 55.1257 76.2909 55.2938C74.2739 55.2938 73.5455 54.8456 73.4334 54.6215C72.7611 53.9492 73.2654 52.9967 73.6015 52.6045C77.0977 50.5875 80.8852 52.4364 82.3419 53.613Z" fill="#882B33"/>
<path d="M45.1952 60.1683C47.4811 58.6891 46.1477 57.3109 45.1952 56.8066C43.0437 56.4032 40.6009 57.3109 39.6484 57.8151C38.1692 58.2185 36.6789 59.664 36.1186 60.3364L33.7654 63.8662C32.6897 65.3453 33.4292 66.6115 33.9335 67.0598C36.085 68.1355 37.2952 65.8272 37.6314 64.5385C38.1692 63.4628 39.5363 62.1853 40.1526 61.6811C42.0352 60.6053 44.2987 60.2243 45.1952 60.1683Z" fill="#882B33"/>
<path d="M82.3419 53.613C84.7624 55.2266 84.6951 57.1988 84.359 57.9832C82.8798 59.7313 81.2774 57.9272 80.6611 56.8066C79.4509 55.193 77.2434 55.1257 76.2909 55.2938C74.2739 55.2938 73.5455 54.8456 73.4334 54.6215C72.7611 53.9492 73.2654 52.9967 73.6015 52.6045C77.0977 50.5875 80.8852 52.4364 82.3419 53.613Z" stroke="#882B33"/>
<path d="M45.1952 60.1683C47.4811 58.6891 46.1477 57.3109 45.1952 56.8066C43.0437 56.4032 40.6009 57.3109 39.6484 57.8151C38.1692 58.2185 36.6789 59.664 36.1186 60.3364L33.7654 63.8662C32.6897 65.3453 33.4292 66.6115 33.9335 67.0598C36.085 68.1355 37.2952 65.8272 37.6314 64.5385C38.1692 63.4628 39.5363 62.1853 40.1526 61.6811C42.0352 60.6053 44.2987 60.2243 45.1952 60.1683Z" stroke="#882B33"/>
<path d="M78.6881 68.3277C78.6106 64.8496 75.7159 62.2825 73.6378 61.8347C70.8212 61.284 68.0772 62.993 67.2545 64.1402C66.1011 65.7015 66.1024 69.2965 66.4234 70.6948C67.4838 75.3143 72.8953 75.7765 74.5998 75.3143C78.6881 73.9511 78.7787 69.6858 78.6881 68.3277Z" fill="#2D293E"/>
<path d="M52.4445 75.3143C51.5083 71.0177 48.6269 69.2787 47.3032 68.9463C43.1901 67.9021 41.1086 70.1096 40.582 71.3439C39.1153 73.1544 39.2185 76.2723 39.4535 77.605C40.1023 83.3103 45.4609 83.8203 48.0591 83.3622C52.5627 82.5681 52.8592 77.6661 52.4445 75.3143Z" fill="#2D293E"/>
<path d="M73.6378 61.8347C75.7159 62.2825 78.6106 64.8496 78.6881 68.3277C78.7787 69.6859 78.6881 73.9511 74.5998 75.3143C72.8953 75.7765 67.4838 75.3143 66.4234 70.6948C66.1024 69.2965 66.1011 65.7015 67.2545 64.1402M73.6378 61.8347L70.2858 63.6057C69.8325 64.0736 68.0761 64.157 67.2545 64.1402M73.6378 61.8347C70.8212 61.284 68.0772 62.993 67.2545 64.1402M47.3032 68.9463C48.6269 69.2787 51.5083 71.0177 52.4445 75.3143C52.8592 77.6661 52.5627 82.5681 48.0591 83.3622C45.4609 83.8203 40.1023 83.3103 39.4535 77.605C39.2185 76.2723 39.1153 73.1544 40.582 71.3439M47.3032 68.9463L44.2628 70.6948L40.582 71.3439M47.3032 68.9463C43.1901 67.9021 41.1086 70.1096 40.582 71.3439" stroke="#2D293E"/>
<path d="M50.9168 78.2389C51.1523 74.2967 49.4263 71.8473 48.5339 71.1154C46.1912 69.6298 47.0337 73.4684 47.7479 75.5734C49.5752 79.1132 50.6219 78.8253 50.9168 78.2389Z" fill="white" stroke="white"/>
<path d="M77.0203 70.7467C77.2558 66.8045 75.5298 64.3551 74.6374 63.6232C72.2947 62.1376 73.1373 65.9762 73.8514 68.0812C75.6787 71.621 76.7254 71.3331 77.0203 70.7467Z" fill="white" stroke="white"/>
<path d="M60.8474 93.8273C60.642 90.4387 62.1309 89.2493 62.9011 89.0781C64.9548 89.0781 65.7249 91.9875 65.8532 93.4422C66.0586 96.4201 64.3985 97.678 63.5428 97.9347C61.5918 98.0373 60.9329 95.2392 60.8474 93.8273Z" fill="#2E2B36" stroke="#2E2B36"/>
</svg>
