<svg width="20" height="20" viewBox="0 0 20 20" fill="none" xmlns="http://www.w3.org/2000/svg">
<path d="M17.8031 18.8636C18.096 19.1565 18.5709 19.1565 18.8637 18.8636C19.1566 18.5707 19.1566 18.0959 18.8637 17.803L17.8031 18.8636ZM14.6422 8.52937C14.6422 11.9053 11.9055 14.6421 8.52949 14.6421V16.1421C12.7339 16.1421 16.1422 12.7338 16.1422 8.52937H14.6422ZM8.52949 14.6421C5.15352 14.6421 2.41675 11.9053 2.41675 8.52937H0.916748C0.916748 12.7338 4.32509 16.1421 8.52949 16.1421V14.6421ZM2.41675 8.52937C2.41675 5.15339 5.15352 2.41663 8.52949 2.41663V0.916626C4.32509 0.916626 0.916748 4.32497 0.916748 8.52937H2.41675ZM8.52949 2.41663C11.9055 2.41663 14.6422 5.15339 14.6422 8.52937H16.1422C16.1422 4.32497 12.7339 0.916626 8.52949 0.916626V2.41663ZM12.9011 13.9617L17.8031 18.8636L18.8637 17.803L13.9618 12.901L12.9011 13.9617Z" fill="#323539"/>
</svg>
